<svg xmlns="http://www.w3.org/2000/svg" width="536" height="425" fill="none" viewBox="0 0 536 425"><path fill="#000" fill-rule="evenodd" d="M16.4104 1.53248C13.6544 3.02748 12.8184 5.32248 14.6244 6.43748C15.1534 6.76548 16.5034 6.11748 17.6244 4.99648C22.3274 0.293481 44.7564 3.57748 55.8764 10.5975C57.9354 11.8965 60.0244 12.9605 60.5184 12.9605C61.0114 12.9605 61.9384 13.5905 62.5774 14.3615C63.9014 15.9555 75.4714 21.6785 83.6604 24.7895C97.0134 29.8615 113.436 32.1235 121.175 29.9565C125.816 28.6565 126.928 26.1505 122.559 26.8375C116.607 27.7725 102.556 27.0415 96.3244 25.4715C85.2854 22.6925 71.1104 16.6915 65.0664 12.2395C63.3644 10.9865 61.6674 9.96048 61.2964 9.96048C60.9244 9.96048 58.9354 8.89648 56.8764 7.59748C49.4934 2.93648 38.2834 -0.0435193 28.2964 0.000480677C22.1594 0.0274807 18.2574 0.530481 16.4104 1.53248ZM10.2554 3.14748C10.0394 3.86948 9.32443 9.63548 8.66543 15.9605C8.00643 22.2855 6.65943 29.7825 5.67143 32.6205C3.19643 39.7305 -0.686574 57.9465 0.104426 58.7375C0.460426 59.0935 1.62443 58.8395 2.69243 58.1725C5.86843 56.1895 10.2154 56.7615 20.0924 60.4605C25.2324 62.3855 29.7374 63.9605 30.1034 63.9605C30.7544 63.9605 37.6564 66.8745 42.6604 69.2625C44.0354 69.9185 48.7604 72.4835 53.1604 74.9625C66.3974 82.4195 79.6234 85.9605 94.2444 85.9605C104.645 85.9605 108.796 85.0305 117.255 80.8055C121.239 78.8165 123.277 75.7675 122.002 73.7045C121.693 73.2055 120.193 73.9915 118.668 75.4525L115.896 78.1085L115.484 74.5815C115.115 71.4175 115.335 71.0225 117.616 70.7575C119.8 70.5025 120.16 69.9655 120.16 66.9605C120.16 63.7425 119.898 63.4355 116.91 63.1475C113.721 62.8395 112.217 60.9605 115.16 60.9605C117.344 60.9605 116.998 58.8615 114.716 58.2645C113.647 57.9855 112.635 56.7895 112.466 55.6085C111.904 51.6625 110.169 53.5895 109.386 59.0295C108.952 62.0475 107.964 64.7705 107.136 65.2335C104.959 66.4525 105.316 67.3205 108.592 68.7705C110.634 69.6735 111.732 71.0395 112.208 73.2645C112.584 75.0225 113.296 76.9655 113.792 77.5825C114.701 78.7145 113.285 79.4715 105.761 81.8745C100.411 83.5835 86.0434 83.1595 77.6604 81.0455C67.0284 78.3635 62.3284 76.5125 53.7174 71.6145C49.5614 69.2495 44.3604 66.5295 42.1604 65.5705C39.9604 64.6105 37.2604 63.4215 36.1604 62.9285C35.0604 62.4345 31.4604 61.0755 28.1604 59.9075C24.8604 58.7405 19.8094 56.9245 16.9354 55.8725C14.0614 54.8205 9.89043 53.9605 7.66643 53.9605C3.99043 53.9605 3.66843 53.7555 4.12443 51.7105C4.40043 50.4735 5.32043 46.3415 6.17043 42.5295C7.02043 38.7175 8.12043 35.1105 8.61643 34.5135C9.65443 33.2635 12.6604 12.7995 12.6604 6.98548C12.6604 3.15748 11.0274 0.55348 10.2554 3.14748ZM22.9014 11.7495C19.2384 14.7965 18.8464 16.3995 21.4104 17.8535C23.0584 18.7865 23.0484 18.9275 21.2444 20.2605C19.5424 21.5185 19.5064 21.7755 20.9154 22.5685C21.7874 23.0585 22.6494 25.0005 22.8304 26.8835C23.2574 31.3145 25.6604 32.2995 25.6604 28.0435C25.6604 25.2845 25.9754 24.9605 28.6604 24.9605C30.9934 24.9605 31.6604 24.5165 31.6604 22.9605C31.6604 20.8895 28.9374 17.5755 26.5354 16.7225C25.7794 16.4535 25.5034 15.8675 25.9234 15.4185C26.3424 14.9695 28.3104 15.3765 30.2964 16.3245C32.2834 17.2715 34.1324 17.8215 34.4074 17.5465C35.4774 16.4765 33.5814 13.8805 31.0174 12.9065C29.5354 12.3425 27.8364 11.2415 27.2414 10.4595C26.3364 9.26948 25.6304 9.47848 22.9014 11.7495ZM59.3134 29.5705C53.3864 35.6685 50.6574 41.6085 49.9594 49.9325C49.0414 60.8865 52.5214 63.9605 65.8414 63.9605C75.0364 63.9605 78.9224 62.1945 82.6464 56.3215C85.1134 52.4315 85.6604 50.5075 85.6604 45.7195C85.6604 40.8955 85.2444 39.4535 83.2864 37.4955C80.0474 34.2575 70.9634 29.7735 68.4064 30.1515C65.6714 30.5555 64.8754 32.9605 67.4754 32.9605C69.7844 32.9605 80.7764 38.5465 81.8794 40.2805C83.3714 42.6265 82.6364 49.8165 80.4934 53.8315C77.7224 59.0225 73.6454 60.9615 65.5094 60.9565C60.8584 60.9545 58.2544 60.4005 55.7724 58.8875L52.3844 56.8215L52.9764 50.4775C53.3024 46.9885 54.5334 42.0825 55.7114 39.5765C58.2044 34.2715 64.7444 27.9605 67.7464 27.9605C70.6984 27.9605 69.5764 25.5285 66.4534 25.1555C64.5114 24.9235 62.8014 25.9815 59.3134 29.5705ZM131.592 25.1275C131.555 25.3105 131.39 27.2605 131.225 29.4605C131.061 31.6605 130.228 37.9605 129.376 43.4605C125.497 68.4705 124.448 81.0335 126.188 81.6275C127.311 82.0115 129.039 72.3015 130.668 56.4605C131.234 50.9605 132.205 43.7605 132.826 40.4605C134.399 32.1075 134.434 25.7355 132.91 25.2185C132.223 24.9845 131.629 24.9435 131.592 25.1275ZM117.66 66.9605C117.66 67.5105 116.985 67.9605 116.16 67.9605C115.335 67.9605 114.66 67.5105 114.66 66.9605C114.66 66.4105 115.335 65.9605 116.16 65.9605C116.985 65.9605 117.66 66.4105 117.66 66.9605ZM175.727 114.107C173.839 115.401 170.4 119.231 168.085 122.617C162.812 130.328 160.575 140.336 162.587 147.206C164.153 152.551 169.463 160.511 172.356 161.851C173.564 162.41 176.334 164.478 178.512 166.445C180.69 168.413 183.019 169.896 183.688 169.741C184.356 169.587 185.941 171.381 187.208 173.728C189.316 177.631 192.541 182.105 196.027 185.96C196.773 186.785 197.967 188.585 198.68 189.96C199.393 191.335 202.718 196.012 206.068 200.353C215.836 213.009 218.238 216.347 218.962 218.27C219.578 219.906 219.189 220.021 214.902 219.466C206.567 218.387 196.282 215.741 192.16 213.617C189.96 212.483 187.822 211.647 187.41 211.758C186.998 211.869 186.66 210.596 186.66 208.929C186.66 205.323 184.222 203.969 181.905 206.287C180.438 207.753 180.445 207.94 181.982 208.53C185.004 209.69 184.109 216.707 179.88 225.026C171.573 241.365 166.486 245.96 156.7 245.96C152.879 245.96 151.66 245.596 151.66 244.455C151.66 242.46 155.553 234.537 159.218 229.076C164.624 221.019 165.139 220.351 169.573 215.644C172.872 212.142 174.722 210.96 176.906 210.96C180.915 210.96 179.961 208.554 175.789 208.143C172.986 207.867 171.868 208.576 167.116 213.642C164.115 216.841 161.66 219.763 161.66 220.137C161.66 220.511 161.055 221.422 160.316 222.161C158.363 224.114 153.633 231.726 150.968 237.205C147.441 244.456 147.841 247.033 153.073 250.79C155.501 252.534 157.828 253.96 158.245 253.96C158.662 253.96 159.782 254.665 160.734 255.527C163.392 257.933 179.17 263.465 188.66 265.319C198.203 267.184 222.369 269.716 239.545 270.651C249.069 271.169 250.855 271.041 250.468 269.865C250.213 269.089 248.473 268.359 246.583 268.235C232.044 267.28 203.379 264.544 195.16 263.328C184.648 261.772 167.52 256.384 162.89 253.177C161.389 252.136 159.26 250.921 158.16 250.475C156.516 249.809 156.922 249.521 160.44 248.859C168.964 247.256 174.055 242.636 180.713 230.46C181.615 228.81 183.102 226.11 184.016 224.46C184.931 222.81 185.948 219.831 186.276 217.84L186.874 214.22L191.017 216.472C195.506 218.912 205.759 221.518 214.91 222.545C218.072 222.9 220.66 223.386 220.66 223.625C220.66 223.864 219.95 225.433 219.081 227.112C215.029 234.949 213.603 244.545 215.78 249.325C216.981 251.959 224.111 254.492 227.1 253.345C227.971 253.011 231.04 253.653 233.922 254.772C236.803 255.891 240.828 257.083 242.867 257.42C245.27 257.819 247.284 258.988 248.595 260.747C249.707 262.239 251.239 264.135 252 264.96C252.761 265.785 253.929 267.507 254.597 268.786C255.265 270.065 256.565 271.909 257.486 272.885C263.326 279.069 275.265 294.727 277.625 299.296C279.294 302.527 282.213 305.63 286.091 308.294C287.559 309.303 289.793 312.465 291.056 315.321C292.319 318.176 295.179 322.927 297.413 325.878C299.646 328.828 302.066 332.416 302.79 333.851C305.772 339.761 311.718 347.762 316.618 352.46C324.888 360.387 325.355 360.764 329.66 362.96C331.906 364.106 334.563 365.863 335.565 366.865C336.566 367.866 339.135 368.999 341.273 369.382C343.411 369.765 347.635 370.935 350.66 371.981C353.685 373.027 358.635 374.555 361.66 375.375C369.634 377.539 375.941 379.923 377.66 381.425C378.485 382.146 381.86 384.143 385.16 385.864C388.46 387.585 393.86 390.558 397.16 392.47C400.46 394.382 405.635 397.15 408.66 398.622C411.685 400.093 415.51 402.295 417.16 403.514C420.022 405.63 433.579 411.943 435.328 411.975C435.785 411.984 436.758 412.37 437.488 412.833C438.558 413.511 438.411 414.431 436.738 417.553C433.786 423.061 433.999 424.96 437.57 424.96C440.279 424.96 448.66 420.417 448.66 418.949C448.66 417.048 446.89 417.221 442.995 419.504C439.777 421.39 438.66 421.679 438.66 420.625C438.66 419.844 439.335 418.645 440.16 417.96C440.985 417.275 441.66 416.095 441.66 415.338C441.66 414.434 442.845 413.96 445.101 413.96C446.994 413.96 448.82 413.51 449.16 412.96C450.422 410.918 451.548 412.07 451.85 415.71C452.131 419.104 452.458 419.489 455.302 419.765C457.802 420.008 458.859 419.49 460.467 417.232C461.579 415.67 462.786 412.803 463.151 410.861C463.745 407.691 464.097 407.37 466.573 407.734C468.734 408.051 469.931 407.426 472.101 404.847C474.598 401.881 474.829 400.97 474.442 395.623C474.163 391.77 473.46 389.287 472.435 388.537C471.396 387.778 471.033 386.461 471.372 384.686C472.543 378.559 470.929 375.53 461.329 365.837C456.22 360.68 451.059 355.046 449.859 353.317L447.676 350.174L450.918 350.908C455.755 352.001 470.288 357.426 487.16 364.435C495.41 367.863 504.531 371.5 507.429 372.518C510.366 373.55 513.371 375.397 514.22 376.691C515.596 378.793 515.574 379.297 513.985 381.987C511.783 385.714 510.262 385.827 510.976 382.21C512.128 376.373 512.122 375.662 510.916 375.236C509.291 374.663 507.66 379.064 507.66 384.025C507.66 387.839 507.765 387.96 511.086 387.96C514.247 387.96 514.722 387.533 517.204 382.46C519.241 378.295 520.425 376.96 522.077 376.96C525.118 376.96 526.66 375.101 526.66 371.433C526.66 368.492 526.848 368.334 529.823 368.771C534.106 369.399 535.668 367.044 535.628 360.019C535.594 354.112 534.051 350.96 531.193 350.96C529.939 350.96 529.636 350.466 530.12 349.21C532.094 344.089 533.632 334.519 533.645 327.283C533.659 319.548 533.511 318.987 530.91 316.929C527.698 314.388 504.629 302.96 502.711 302.96C500.179 302.96 459.918 283.196 456.066 280.063C455.464 279.573 453.531 278.427 451.769 277.516C448.794 275.978 446.1 274.027 443.278 271.368C442.64 270.767 441.117 269.74 439.893 269.085C437.682 267.901 437.692 267.872 441.413 264.683C443.474 262.917 447.41 259.381 450.16 256.826C456.673 250.774 461.287 246.96 462.097 246.96C462.962 246.96 472.938 239.565 475.914 236.718C477.212 235.476 480.723 232.202 483.717 229.443C489.174 224.413 496.66 215.827 496.66 214.598C496.66 214.238 497.948 212.165 499.522 209.992C501.096 207.819 502.945 204.561 503.632 202.751C504.318 200.941 505.953 196.76 507.266 193.46C513.172 178.609 517.444 155.181 514.57 153.404C513.054 152.467 501.633 160.584 492.66 168.974C488.535 172.831 482.49 177.894 479.227 180.224C475.964 182.554 472.364 185.393 471.227 186.532C462.591 195.19 439.601 207.029 422.16 211.8C402.434 217.196 397.323 218.188 385.66 218.887L374.16 219.576L364.66 214.628C359.435 211.906 354.485 209.139 353.66 208.477C350.7 206.105 336.974 200.131 327.16 196.944C316.35 193.434 308.925 189.683 295.66 181.029C290.985 177.979 285.386 174.674 283.217 173.685C279.765 172.109 272.822 167.061 268.839 163.231C267.613 162.053 266.81 161.838 262.604 161.562C261.749 161.506 259.691 159.885 258.032 157.96C254.652 154.039 244.348 138.411 243.362 135.71C243.01 134.747 242.259 133.96 241.691 133.96C241.124 133.96 240.65 133.398 240.637 132.71C240.608 131.168 232.929 123.021 229.202 120.579C225.016 117.837 215.824 114.96 211.247 114.96C208.992 114.96 205.655 114.532 203.831 114.009C202.008 113.486 195.711 112.765 189.838 112.406C179.714 111.788 178.982 111.876 175.727 114.107ZM196.101 115.868C199.369 116.275 202.219 117.137 202.435 117.784C202.65 118.431 203.957 118.96 205.339 118.96C206.721 118.96 209.155 119.888 210.749 121.023C214.237 123.507 216.616 122.674 214.07 119.861C213.124 118.815 212.757 117.967 213.255 117.975C215.33 118.008 225.324 121.576 227.333 123L229.506 124.54L226.833 125.633C225.363 126.235 223.373 126.99 222.41 127.312C221.201 127.716 220.676 128.912 220.712 131.179C220.753 133.783 221.6 135.131 224.82 137.71C228.141 140.371 229.754 140.96 233.718 140.96C237.081 140.96 238.829 140.48 239.44 139.389C240.138 138.142 241.129 139.08 244.24 143.93C248.977 151.317 255.781 160.703 258.443 163.523C259.513 164.658 260.916 166.57 261.56 167.773C263.126 170.698 264.66 170.543 264.66 167.46C264.66 164.267 265.503 164.314 269.24 167.71C273.424 171.514 292.849 183.779 305.66 190.706C308.135 192.044 311.51 193.943 313.16 194.925C314.81 195.907 321.305 198.407 327.594 200.48C338.006 203.911 344.254 206.774 357.899 214.364C360.506 215.814 364.556 218.048 366.899 219.33C369.243 220.611 375.885 224.57 381.66 228.126C387.435 231.683 396.271 236.93 401.296 239.786C406.32 242.642 410.988 245.65 411.668 246.47C413.474 248.646 414.847 248.291 414.48 245.742C414.233 244.03 409.981 241.122 395.832 232.992L377.504 222.46L386.832 221.878C416.944 220 455.376 205.383 473.16 189.045C475.36 187.024 480.085 183.165 483.66 180.47C487.235 177.775 493.535 172.591 497.66 168.949C501.785 165.308 506.848 161.068 508.91 159.526L512.66 156.723V159.774C512.66 163.872 507.237 184.99 504.266 192.46C502.953 195.76 501.318 199.941 500.632 201.751C499.945 203.561 498.096 206.819 496.522 208.992C494.948 211.165 493.66 213.456 493.66 214.083C493.66 216.528 463.82 243.96 461.16 243.96C460.28 243.96 448.919 252.736 448.496 253.743C448.02 254.874 435.712 264.96 434.808 264.96C434.397 264.96 433.52 264.42 432.86 263.76C431.927 262.827 431.66 263.015 431.66 264.605C431.66 266.6 443.398 276.474 450.78 280.689C468.851 291.008 498.963 305.96 501.673 305.96C503.608 305.96 523.726 315.858 527.41 318.623C530.514 320.952 530.659 321.363 530.645 327.761C530.627 336.012 528.27 346.55 525.634 350.17C524.548 351.66 523.66 353.564 523.66 354.401C523.66 355.239 521.863 359.814 519.666 364.569C516.663 371.069 515.36 372.97 514.416 372.228C513.725 371.685 510.91 370.428 508.16 369.434C505.41 368.439 496.41 364.83 488.16 361.413C473.123 355.185 458.377 349.799 447.16 346.437C443.86 345.448 440.111 344.002 438.829 343.224C437.547 342.445 435.846 342.058 435.05 342.364C433.542 342.943 424.133 341.094 414.66 338.358C411.635 337.484 407.585 336.415 405.66 335.982C398.539 334.38 381.949 326.471 375.201 321.46C373.719 320.36 371.847 318.208 371.041 316.677C369.481 313.717 367.66 313.855 367.66 316.934C367.66 320.881 379.061 328.739 394.16 335.2C400.928 338.095 403.352 338.837 412.392 340.777C414.719 341.276 417.194 342.123 417.892 342.659C418.589 343.194 422.985 344.189 427.66 344.869C432.335 345.549 437.202 346.778 438.476 347.599C441.47 349.53 444.61 352.108 446.033 353.804C449.919 358.436 460.646 370.024 463.847 373.05C469.295 378.199 469.537 381.038 465.227 389.283C463.265 393.035 461.66 396.925 461.66 397.928C461.66 400.909 453.228 408.122 447.553 409.995C444.419 411.03 442.842 411.035 439.413 410.024C433.513 408.284 421.49 403.017 419.564 401.328C418.687 400.559 414.637 398.198 410.564 396.081C401.003 391.111 379.585 379.143 378.208 378C376.811 376.84 369.315 374.099 363.66 372.68L359.16 371.551L366.258 370.871C370.162 370.497 374.325 369.884 375.508 369.508C380.52 367.917 376.789 367.253 363.41 367.353C347.815 367.47 344.165 366.761 333.858 361.61C324.101 356.734 306.66 338.61 306.66 333.348C306.66 332.585 306.312 331.96 305.887 331.96C305.462 331.96 304.312 330.47 303.332 328.649C302.351 326.828 300.39 324.016 298.973 322.399C297.557 320.783 295.297 316.985 293.951 313.96C292.377 310.421 289.393 306.457 285.582 302.843C282.325 299.754 279.66 296.748 279.66 296.164C279.66 295.581 279.076 294.508 278.362 293.781C277.649 293.055 275.535 290.21 273.666 287.46C271.796 284.71 269.744 282.01 269.105 281.46C267.722 280.269 258.328 268.715 254.336 263.295L251.512 259.46L264.836 258.883C278.671 258.284 296.852 255.771 304.019 253.468C310.898 251.257 327.952 245.001 328.445 244.508C328.699 244.254 328.633 243.332 328.298 242.46C327.851 241.295 327.221 241.122 325.925 241.808C324.954 242.321 319.21 244.61 313.16 246.894C299.988 251.866 277.858 255.93 263.853 255.948C253.623 255.961 241.265 254.418 238.192 252.743C237.109 252.153 235.157 251.385 233.854 251.037C231.491 250.405 231.495 250.391 235.173 246.431C240.327 240.882 241.972 238.216 241.308 236.485C240.994 235.666 241.408 233.092 242.229 230.765C243.05 228.438 244.002 223.218 244.344 219.165L244.967 211.796L257.564 212.474C267.344 213.001 272.172 212.781 279.16 211.491C284.11 210.578 291.422 209.341 295.41 208.742C300.094 208.039 302.66 207.198 302.66 206.366C302.66 204.114 301.406 204.145 289.66 206.683C280.253 208.716 275.111 209.195 261.41 209.314C252.198 209.394 244.661 209.167 244.66 208.809C244.66 208.451 243.057 207.212 241.099 206.056C236.695 203.458 235.748 203.895 228.465 211.887C224.297 216.462 222.715 217.615 221.826 216.726C221.185 216.085 220.66 215.204 220.66 214.769C220.66 214.064 215.893 207.446 212.776 203.821C211.418 202.243 201.729 188.992 198.417 184.184C197.176 182.383 195.329 179.908 194.312 178.684C193.296 177.461 191.652 174.885 190.659 172.96C187.86 167.536 184.671 164.558 178.284 161.406C175.053 159.811 171.683 157.37 170.797 155.983C169.911 154.595 168.629 152.877 167.949 152.165C161.12 145.012 167.508 122.258 178.034 116.245C180.402 114.893 187.133 114.752 196.101 115.868ZM184.324 126.71C182.735 129.337 180.66 139.237 180.66 144.191C180.66 153.648 184.22 158.226 192.615 159.569C195.793 160.077 197.154 159.823 198.686 158.437C202.697 154.807 200.293 137.911 194.848 131.46C191.377 127.346 185.534 124.71 184.324 126.71ZM227.207 131.583C228.784 132.616 230.737 132.995 232.584 132.625C235.875 131.967 238.054 133.769 237.07 136.333C235.623 140.104 223.66 135.711 223.66 131.409C223.66 129.564 224.164 129.589 227.207 131.583ZM196.078 148.567C198.053 149.325 198.173 154.289 196.256 155.881C194.432 157.394 189.818 156.295 186.91 153.654C183.994 151.007 184.065 149.96 187.16 149.96C188.535 149.96 189.66 149.51 189.66 148.96C189.66 147.856 193.598 147.615 196.078 148.567ZM241.337 218.174C240.707 225.533 237.152 237.96 235.677 237.96C235.237 237.96 234.618 238.972 234.302 240.21C233.986 241.448 232.33 244.148 230.621 246.21C228.253 249.068 226.777 249.96 224.416 249.96C217.661 249.96 216.11 244.903 219.635 234.365C220.722 231.117 221.622 227.657 221.635 226.675C221.672 224.011 224.427 220.278 231.496 213.313C237.807 207.094 237.859 207.067 239.903 208.972C241.744 210.687 241.894 211.652 241.337 218.174ZM532.053 355.542C532.983 357.965 532.774 364.771 531.75 365.404C530.347 366.272 527.927 365.02 526.381 362.626C525.2 360.798 525.191 359.953 526.323 357.21C527.768 353.712 530.991 352.774 532.053 355.542ZM522.82 373.2C520.628 375.392 519.743 372.854 521.444 369.255L523.16 365.626L523.483 368.92C523.66 370.732 523.362 372.658 522.82 373.2ZM471.053 392.542C473.099 397.874 469.733 405.97 466.057 404.559C463.069 403.412 465.844 390.96 469.088 390.96C469.835 390.96 470.719 391.672 471.053 392.542ZM460.187 409.71C459.506 413.375 457.192 416.96 455.505 416.96C455.04 416.96 454.66 415.418 454.66 413.533C454.66 411.021 455.364 409.551 457.295 408.033C460.821 405.259 460.994 405.36 460.187 409.71Z" clip-rule="evenodd"/></svg>