<?xml version="1.0" standalone="no"?>
<!DOCTYPE svg PUBLIC "-//W3C//DTD SVG 20010904//EN"
 "http://www.w3.org/TR/2001/REC-SVG-20010904/DTD/svg10.dtd">
<svg version="1.0" xmlns="http://www.w3.org/2000/svg"
 width="768.000000pt" height="768.000000pt" viewBox="0 0 768.000000 768.000000"
 preserveAspectRatio="xMidYMid meet">
<metadata>
Created by potrace 1.11, written by Peter Selinger 2001-2013
</metadata>
<g transform="translate(0.000000,768.000000) scale(0.100000,-0.100000)"
fill="#000000" stroke="none">
<path d="M3585 7674 c-16 -2 -77 -9 -135 -15 -151 -16 -155 -17 -265 -35 -136
-22 -361 -77 -514 -126 -1363 -435 -2381 -1608 -2616 -3013 -46 -279 -53 -377
-49 -695 2 -151 6 -286 8 -300 1 -14 6 -54 10 -90 6 -55 18 -129 42 -275 32
-190 117 -480 205 -702 460 -1155 1451 -2018 2656 -2313 161 -40 309 -65 523
-92 139 -16 644 -17 770 -1 52 7 115 15 140 18 433 51 970 233 1379 467 370
213 731 507 982 800 34 40 65 75 69 78 3 3 42 52 86 110 323 420 541 863 678
1370 25 95 70 310 81 385 33 239 37 303 40 550 3 300 -5 409 -45 660 -26 159
-26 161 -61 303 -271 1109 -1036 2049 -2072 2546 -381 183 -773 296 -1221 352
-110 14 -612 27 -691 18z"/>
</g>
</svg>
