<?xml version="1.0" standalone="no"?>
<!DOCTYPE svg PUBLIC "-//W3C//DTD SVG 20010904//EN"
 "http://www.w3.org/TR/2001/REC-SVG-20010904/DTD/svg10.dtd">
<svg version="1.0" xmlns="http://www.w3.org/2000/svg"
 width="700.000000pt" height="700.000000pt" viewBox="0 0 700.000000 700.000000"
 preserveAspectRatio="xMidYMid meet">
<metadata>
Created by potrace 1.11, written by Peter Selinger 2001-2013
</metadata>
<g transform="translate(0.000000,700.000000) scale(0.100000,-0.100000)"
fill="#000000" stroke="none">
<path d="M3058 6995 c-2 -1 -79 -6 -173 -9 -93 -4 -186 -9 -205 -10 -19 -2
-75 -7 -124 -11 -49 -4 -98 -8 -110 -10 -11 -2 -52 -6 -90 -10 -38 -4 -79 -8
-90 -10 -12 -2 -43 -6 -70 -10 -27 -3 -99 -15 -160 -25 -163 -29 -169 -30
-188 -36 -10 -3 -30 -7 -45 -10 -16 -3 -71 -16 -123 -30 -657 -176 -1072 -495
-1325 -1019 -121 -250 -210 -547 -261 -875 -3 -19 -7 -42 -9 -50 -2 -8 -7 -42
-10 -75 -4 -33 -8 -67 -10 -75 -2 -8 -7 -46 -11 -85 -3 -38 -8 -78 -10 -88 -2
-11 -6 -62 -9 -115 -4 -54 -8 -113 -10 -132 -27 -266 -27 -1334 0 -1624 2 -23
6 -77 10 -121 10 -143 30 -318 50 -435 2 -14 6 -41 9 -60 3 -19 8 -45 10 -56
2 -12 7 -37 10 -55 21 -124 71 -322 116 -459 267 -807 815 -1232 1805 -1399
110 -19 120 -20 170 -26 28 -3 57 -8 65 -10 13 -4 47 -7 185 -21 22 -2 74 -6
115 -9 41 -3 98 -7 125 -10 272 -26 1354 -26 1615 0 19 2 73 6 120 9 47 4 99
8 115 10 17 2 62 7 100 11 39 4 79 9 89 11 11 2 42 6 70 9 28 3 60 8 71 10 11
3 37 7 59 10 210 29 593 133 746 202 419 188 663 391 868 720 56 90 150 280
177 358 9 28 21 57 25 66 29 55 127 448 154 614 11 68 35 244 42 305 4 36 8
76 10 90 2 22 6 72 19 239 27 359 27 1279 0 1621 -2 25 -6 82 -9 128 -4 45 -8
97 -11 115 -2 18 -7 59 -10 92 -3 33 -8 74 -10 90 -3 17 -7 48 -10 70 -78 570
-236 1008 -479 1327 -285 375 -730 620 -1346 742 -69 14 -143 27 -165 30 -22
4 -51 8 -65 11 -52 10 -87 15 -140 20 -30 3 -66 8 -80 10 -14 3 -54 7 -90 10
-36 3 -87 8 -115 10 -69 6 -218 17 -290 21 -75 5 -1092 13 -1097 9z m817 -440
c143 -4 283 -8 310 -10 167 -10 253 -17 275 -20 14 -2 57 -7 95 -10 39 -3 81
-8 95 -10 14 -3 45 -7 70 -10 123 -16 299 -49 427 -81 702 -171 1048 -494
1239 -1157 40 -140 80 -332 100 -477 2 -19 6 -45 9 -58 2 -13 7 -53 11 -90 3
-37 8 -75 10 -85 1 -9 6 -54 9 -100 3 -45 8 -100 10 -122 22 -196 34 -962 20
-1265 -11 -258 -16 -347 -20 -385 -2 -22 -6 -67 -9 -100 -15 -165 -20 -213
-31 -290 -1 -11 -6 -44 -10 -74 -3 -30 -9 -63 -11 -75 -2 -12 -6 -34 -9 -51
-6 -32 -12 -64 -21 -105 -3 -14 -7 -36 -10 -50 -33 -164 -110 -395 -179 -536
-146 -301 -335 -492 -630 -638 -109 -54 -326 -138 -392 -151 -10 -1 -45 -10
-78 -19 -122 -31 -347 -71 -510 -91 -27 -3 -63 -8 -80 -10 -16 -2 -66 -6 -110
-10 -44 -3 -107 -8 -140 -10 -435 -34 -1199 -34 -1625 0 -25 2 -81 6 -125 9
-340 26 -694 93 -950 181 -419 142 -683 363 -860 720 -101 204 -170 429 -220
715 -25 148 -29 171 -40 275 -4 33 -8 71 -10 85 -2 14 -7 61 -10 105 -3 44 -8
99 -10 122 -5 46 -14 208 -20 368 -5 125 -5 781 0 895 9 217 17 364 20 384 2
11 6 64 10 116 3 52 8 109 10 125 2 17 9 68 15 115 34 263 90 520 156 712 19
57 64 162 99 233 205 414 534 651 1098 790 75 19 154 37 175 40 36 5 54 8 112
20 14 2 45 7 70 10 25 4 56 8 70 10 40 6 101 14 155 19 28 3 73 8 100 11 47 4
161 13 285 21 30 1 186 6 345 10 160 3 291 7 292 8 2 1 92 -1 418 -9z"/>
<path d="M3364 5660 c-220 -74 -588 -300 -1179 -723 -378 -271 -817 -622 -844
-675 -44 -88 -31 -186 33 -254 49 -52 97 -70 172 -66 75 5 57 -7 409 263 68
53 201 157 218 170 110 93 621 460 792 570 245 158 501 300 538 297 26 -1 194
-88 328 -170 172 -104 306 -193 615 -411 76 -54 357 -264 373 -279 7 -7 50
-40 95 -74 44 -34 83 -65 86 -68 3 -3 88 -69 190 -145 161 -122 191 -141 240
-150 177 -36 316 151 231 312 -25 47 -19 41 -286 254 -309 246 -548 422 -870
644 -55 38 -135 92 -178 122 -42 29 -79 53 -81 53 -3 0 -31 17 -63 38 -107 71
-264 163 -373 217 -213 107 -306 123 -446 75z"/>
<path d="M2351 4149 c-78 -23 -140 -86 -156 -158 -4 -19 -7 -392 -7 -830 0
-720 1 -800 16 -836 74 -176 318 -180 402 -7 17 35 18 88 19 832 2 849 1 859
-48 923 -47 61 -153 97 -226 76z"/>
<path d="M3436 4145 c-67 -23 -115 -68 -144 -137 -17 -41 -15 -1620 3 -1671
31 -89 111 -147 204 -147 85 0 156 43 197 120 18 33 19 72 21 840 2 539 -1
819 -8 846 -29 114 -163 187 -273 149z"/>
<path d="M4519 4141 c-57 -22 -84 -45 -117 -101 l-27 -45 0 -820 c1 -771 2
-822 19 -857 84 -173 328 -169 402 7 15 36 16 117 16 851 0 807 0 812 -21 853
-54 105 -167 152 -272 112z"/>
<path d="M1664 1951 c-74 -34 -134 -121 -134 -195 0 -79 52 -164 124 -204 29
-16 168 -17 1825 -20 1176 -1 1806 1 1830 8 51 13 105 56 132 105 18 30 23 56
23 105 0 73 -14 109 -65 158 -68 66 63 62 -1908 62 -1719 -1 -1788 -1 -1827
-19z"/>
</g>
</svg>
