<?xml version="1.0" standalone="no"?>
<!DOCTYPE svg PUBLIC "-//W3C//DTD SVG 20010904//EN"
 "http://www.w3.org/TR/2001/REC-SVG-20010904/DTD/svg10.dtd">
<svg version="1.0" xmlns="http://www.w3.org/2000/svg"
 width="512.000000pt" height="512.000000pt" viewBox="0 0 512.000000 512.000000"
 preserveAspectRatio="xMidYMid meet">
<metadata>
Created by potrace 1.11, written by Peter Selinger 2001-2013
</metadata>
<g transform="translate(0.000000,512.000000) scale(0.100000,-0.100000)"
fill="#000000" stroke="none">
<path d="M0 2560 l0 -2560 2560 0 2560 0 0 2560 0 2560 -2560 0 -2560 0 0
-2560z m3240 1362 l755 -399 3 -161 2 -162 -1520 0 -1520 0 2 163 3 162 755
397 c415 219 757 398 760 398 3 0 345 -180 760 -398z m-1480 -1602 l0 -560
-240 0 -240 0 0 560 0 560 240 0 240 0 0 -560z m960 0 l0 -560 -240 0 -240 0
0 560 0 560 240 0 240 0 0 -560z m960 0 l0 -560 -240 0 -240 0 0 560 0 560
240 0 240 0 0 -560z m320 -1120 l0 -240 -1520 0 -1520 0 0 240 0 240 1520 0
1520 0 0 -240z"/>
</g>
</svg>
