<svg width="300" height="56" fill="none" xmlns="http://www.w3.org/2000/svg"><path fill-rule="evenodd" clip-rule="evenodd" d="M296.097 40.315L296.095 0h-12.266l-.671 4.995 3.356 1.172.084.03c.49.2.709.619.709 1.203v9.373l-.166-.122c-2.284-1.663-4.983-2.838-8.438-2.838-6.774 0-12.937 4.687-12.937 17.081 0 11.778 4.638 16.403 11.838 16.403 4.455 0 7.445-1.726 10.008-4.255l.427.062.611 3.453H300v-4.871l-3.097-.456c-.629-.099-.771-.23-.801-.77l-.005-.145zm-30.156-26.268c-1.202-.299-3.947-.534-5.343-.534-4.017 0-6.78 2.449-8.851 5.65h-.377l-.753-5.022h-11.048l-.683 5.034.027.062 3.355 1.182.083.027c.561.201.733.632.733 1.291v18.482c-.009.865-.154 1.045-1.004 1.166l-2.825.377v5.085h20.527v-5.022l-6.3-.509c-.827-.066-.913-.26-.919-1.14V23.431l.176-.15c.993-.824 2.808-2.047 4.344-2.047.502 0 .69.125.816.69l.628 3.327 7.533.252V14.077l-.119-.03zm-136.534-.083c3.874 0 7.667.697 9.951 1.327l.196.055.184-.932h15.796v5.182l-3.497.375 4.995 17.544h.437l5.557-22.289h9.427l5.369 22.289h.375l4.682-17.544-3.558-.375.811-5.182h13.111v3.495c-.284.56-.547 1.132-.789 1.716l-1.458.284c-.841.12-1.219.413-1.469 1.157l-.03.091-7.679 25.785h-9.864l-4.87-20.915h-.375l-4.932 20.915h-11.238l-7.867-25.847c-.239-.718-.536-.863-1.219-1.038l-.092-.024-.55-.118.035.142v4.733l-6.652-.435-.622-3.236c-.061-.498-.186-.746-.621-.87l-.198-.058c-.841-.228-2.231-.44-3.781-.44-3.108 0-4.849 1.181-4.849 3.172 0 2.176 2.487 2.904 5.572 3.611l2.083.474.288.069c4.712 1.134 9.713 3.05 9.713 9.97 0 7.59-6.154 10.7-14.05 10.7-5.508 0-10.897-1.414-12.212-2.178l-.098-.06v-9.022l6.652.497.623 3.547.019.151c.069.455.22.67.727.782l.145.046.166.049.186.05.214.052c.897.212 2.291.425 4.076.425 3.294 0 5.159-.933 5.159-3.235 0-2.448-2.406-3.21-5.502-3.768l-1.416-.255-.603-.114c-4.848-.944-10.196-2.654-10.196-9.861 0-7.715 6.589-10.889 13.738-10.889zm-57.333 0h-.171c-5.669.024-13.123 1.267-13.123 9.581l8.718.748.001-.158c.04-3.324 1.369-3.932 3.89-4.003l.244-.005.379-.003c3.25 0 3.967 1.431 4.11 3.65l.012.22.012.34.005.233.003.352v3.542l-7.34.513c-7.574.54-11.332 3.406-11.332 9.566 0 3.858 1.238 9.208 9.027 9.208 4.947 0 8.038-1.867 10.387-4.169l.309.062.619 3.36H89.2v-1.257l.086.038c1.808.787 6.701 1.966 11.704 1.966 7.853 0 13.973-3.111 13.973-10.702 0-7.279-5.503-9.021-10.388-10.14l-1.47-.335c-3.141-.72-5.702-1.434-5.702-3.648 0-1.99 1.732-3.173 4.824-3.173 1.669 0 3.153.25 3.957.498.432.125.556.373.617.871l.619 3.236 6.615.435v-9.022l-.184-.07c-1.867-.687-6.472-1.734-11.193-1.734-7.11 0-13.663 3.174-13.663 10.888 0 6.774 4.697 8.691 9.265 9.681l.423.09.435.087.599.114 1.733.316c2.93.553 5.166 1.344 5.166 3.71 0 2.303-1.855 3.236-5.131 3.236-1.775 0-3.162-.213-4.053-.425l-.213-.052-.185-.05-.165-.049-.145-.046c-.556-.124-.681-.374-.742-.933l-.619-3.547-6.616-.497v5.523l-2.515-.422-.167-.024c-.586-.091-.757-.211-.805-.678l-.01-.136-.005-.148-.002-.167v-15.21l-.002-.259c-.074-8.5-3.864-11.002-13.168-11.002zM43.586 1.802c11.538 0 15.03 6.098 15.03 13.252 0 10.717-6.417 15.093-16.773 15.18h-4.867v10.132l.004.158.008.145c.04.52.2.646.82.742l.166.023 8.918.498v4.915H22.445v-.015l-.028.015H.724v-4.894l5.315-.434c.808-.058.969-.277.987-1.061l.002-.177V18.889c0-.888-.667-.741-5.314.833L0 14.642 10.619 8.56h5.741V40.37l.003.168.005.15c.032.614.187.767.898.824l.084.006 5.068.434.027.014v-.035l3.93-.436c.814-.116.977-.286.995-1.067l.002-.177V8.459c0-.902-.117-1.165-.913-1.238l-.085-.006-3.928-.436V1.802h21.14zM75.98 33.299v5.119l-.132.095c-1.416 1.022-3.455 2.125-5.493 2.125-2.04 0-3.523-.925-3.523-3.392 0-2.467 1.298-3.392 4.944-3.638l4.204-.309zm205.422-12.328c-4.478 0-6.261 4.193-6.299 9.633l-.001.178c0 6.023 1.713 9.376 5.566 9.376 2.02 0 4.213-1.172 5.851-2.548l.143-.122V22.834c-1.529-1.055-3.487-1.863-5.26-1.863zM36.847 8.634h3.647c4.387 0 8.035 1.047 8.035 6.967 0 6.234-3.611 7.631-7.293 7.856l-.342.018-.232.008-.359.008-.243.003h-3.213V8.634z" fill="#fff"/><path fill-rule="evenodd" clip-rule="evenodd" d="M215.764 4.505c13.932 0 25.226 11.293 25.226 25.225 0 13.932-11.294 25.225-25.226 25.225-13.931 0-25.225-11.293-25.225-25.225 0-13.932 11.294-25.225 25.225-25.225zm-3.604 14.414V40.54h7.207V18.919h-7.207z" fill="#fff"/><path fill-rule="evenodd" clip-rule="evenodd" d="M215.764 9.46c11.195 0 20.271 9.075 20.271 20.27S226.959 50 215.764 50c-11.194 0-20.27-9.075-20.27-20.27s9.076-20.27 20.27-20.27zm-3.603 9.459V40.54h7.207V18.919h-7.207z" fill="#1A8CFF"/><path opacity=".5" fill-rule="evenodd" clip-rule="evenodd" d="M215.765 55.856c-14.429 0-26.126-11.697-26.126-26.126 0-14.43 11.697-26.126 26.126-26.126 14.429 0 26.126 11.697 26.126 26.126 0 14.43-11.697 26.126-26.126 26.126zm0-51.352c-13.933 0-25.225 11.296-25.225 25.226s11.292 25.225 25.225 25.225c13.933 0 25.225-11.295 25.225-25.225 0-13.93-11.292-25.226-25.225-25.226z" fill="#000"/><path fill-rule="evenodd" clip-rule="evenodd" d="M237.836 29.28c0-12.19-9.882-22.073-22.072-22.073s-22.072 9.882-22.072 22.072c0 6.815 3.089 12.909 7.942 16.958a20.664 20.664 0 01-6.59-15.156c0-11.444 9.277-20.72 20.72-20.72 11.444 0 20.721 9.276 20.721 20.72a20.665 20.665 0 01-6.591 15.156c4.854-4.05 7.942-10.143 7.942-16.958zm3.154.45c0-.454-.012-.904-.036-1.352l-.018.308c-.854 13.158-11.797 23.566-25.172 23.566-13.478 0-24.487-10.57-25.189-23.874-.024.448-.036.898-.036 1.352 0 13.931 11.294 25.225 25.225 25.225 13.932 0 25.226-11.294 25.226-25.225z" fill="#000" fill-opacity=".052"/><path opacity=".256" fill-rule="evenodd" clip-rule="evenodd" d="M215.764 9.46c-11.196 0-20.27 9.076-20.27 20.27 0 11.193 9.074 20.27 20.27 20.27 11.197 0 20.271-9.077 20.271-20.27 0-11.194-9.074-20.27-20.271-20.27zm.001 39.64c-10.698 0-19.37-8.672-19.37-19.37s8.672-19.37 19.37-19.37c10.697 0 19.369 8.672 19.369 19.37s-8.672 19.37-19.369 19.37z" fill="#000"/><path fill-rule="evenodd" clip-rule="evenodd" d="M200 29.83a15.81 15.81 0 0115.866-15.866c8.639 0 15.666 7.091 15.666 15.866 0 8.607-7.059 15.666-15.666 15.666-8.775 0-15.866-7.026-15.866-15.666zm30.631 0c0-8.31-6.656-14.965-14.765-14.965a14.908 14.908 0 00-14.965 14.964c0 8.11 6.655 14.766 14.965 14.766 8.109 0 14.765-6.655 14.765-14.765z" fill="#000" fill-opacity=".25"/><path fill-rule="evenodd" clip-rule="evenodd" d="M215.865 14.865c8.11 0 14.765 6.655 14.765 14.964 0 8.11-6.655 14.766-14.765 14.766-8.309 0-14.965-6.655-14.965-14.765 0-8.31 6.656-14.965 14.965-14.965zm2.355 3.603h-4.91c-.611 0-1.111.542-1.147 1.225l-.002.08v5.282c0 .201.062.396.174.55l.05.064.718.815c.282.32.299.826.05 1.167l-.05.062-.718.815a.923.923 0 00-.22.529l-.004.085v10.545c0 .694.477 1.26 1.079 1.302l.07.002h4.91c.611 0 1.11-.541 1.146-1.224l.002-.08v-5.282a.94.94 0 00-.173-.551l-.051-.064-.718-.815a.958.958 0 01-.05-1.167l.05-.062.718-.814a.924.924 0 00.221-.53l.003-.085V19.772c0-.693-.477-1.26-1.078-1.301l-.07-.003z" fill="#F7F7F7"/><path fill-rule="evenodd" clip-rule="evenodd" d="M212.161 24.013v1.042c0 .201.062.396.173.55l.051.064.718.815c.282.32.298.826.05 1.167l-.05.062-.718.815a.923.923 0 00-.22.529l-.004.085v6.304a6.751 6.751 0 01-3.153-5.716 6.751 6.751 0 013.153-5.717zm10.361 5.717a6.753 6.753 0 01-3.153 5.716l-.001-1.041a.94.94 0 00-.173-.551l-.051-.064-.718-.815a.958.958 0 01-.05-1.167l.05-.062.718-.814a.924.924 0 00.221-.53l.003-.085.001-6.304a6.753 6.753 0 013.153 5.717z" fill="#000" fill-opacity=".05"/><path fill-rule="evenodd" clip-rule="evenodd" d="M212.161 24.013v-1.042l-.138.076a7.655 7.655 0 00-3.916 6.683 7.658 7.658 0 004.054 6.758v-1.042a6.753 6.753 0 01-3.153-5.716 6.753 6.753 0 013.153-5.717zm7.208 12.475a7.657 7.657 0 004.053-6.758 7.656 7.656 0 00-4.053-6.759v1.042a6.753 6.753 0 013.153 5.717 6.753 6.753 0 01-3.153 5.716v1.042z" fill="#fff"/><path fill-rule="evenodd" clip-rule="evenodd" d="M212.161 25.055v-1.042a6.751 6.751 0 00-3.153 5.717 6.751 6.751 0 003.153 5.716v-1.1a5.846 5.846 0 01-2.252-4.616c0-1.876.882-3.546 2.254-4.618a1.1 1.1 0 01-.002-.057zm7.208 10.391a6.752 6.752 0 003.152-5.716 6.753 6.753 0 00-3.152-5.717v1.101a5.845 5.845 0 012.252 4.616 5.848 5.848 0 01-2.254 4.617l.001.058.001 1.041z" fill="#000" fill-opacity=".15"/><path fill-rule="evenodd" clip-rule="evenodd" d="M213.252 18.018h5.024c1.114 0 1.993.975 1.993 2.15V30.32c0 .442-.16.87-.449 1.19l-.738.82c-.017.019-.017.072 0 .091l.738.82c.289.32.449.747.449 1.19v4.86c0 1.175-.879 2.15-1.993 2.15h-5.024c-1.113 0-1.992-.975-1.992-2.15V29.14c0-.442.159-.869.448-1.19l.739-.819c.017-.02.017-.073 0-.092l-.739-.82a1.779 1.779 0 01-.448-1.19v-4.86c0-1.175.879-2.15 1.992-2.15zm6.115 2.22c0-.72-.514-1.302-1.148-1.302h-4.91c-.634 0-1.149.583-1.149 1.302v4.824c0 .23.081.45.225.613l.718.814a.952.952 0 010 1.227l-.718.814a.928.928 0 00-.225.613v10.079c0 .719.515 1.301 1.149 1.301h4.91c.634 0 1.148-.582 1.148-1.301v-4.824c0-.23-.08-.451-.224-.614l-.718-.813a.952.952 0 010-1.228l.718-.813a.928.928 0 00.224-.614V20.238z" fill="#fff"/><path fill-rule="evenodd" clip-rule="evenodd" d="M219.367 20.223c0-.72-.514-1.304-1.148-1.304h-4.91c-.635 0-1.149.584-1.149 1.304v4.832c0 .23.081.451.224.614l.718.815c.3.34.3.89 0 1.23l-.718.814a.935.935 0 00-.224.614v10.095c0 .72.514 1.303 1.149 1.303h4.91c.634 0 1.148-.583 1.148-1.303v-4.832a.93.93 0 00-.224-.615l-.718-.815a.954.954 0 010-1.229l.718-.814a.93.93 0 00.224-.615V20.223zm-5.928-.385l4.65.006.039.003c.18.024.339.211.339.463v10.008l-.002.02a.055.055 0 01-.012.025l-.752.809-.061.069a1.738 1.738 0 00.061 2.278l.752.808.007.01a.087.087 0 01.007.036v4.789l-.003.053c-.022.241-.193.412-.375.412l-4.65-.006-.039-.002c-.18-.024-.339-.212-.339-.463V29.147l.002-.02a.069.069 0 01.011-.025l.752-.808.061-.07a1.736 1.736 0 00-.061-2.278l-.752-.808-.006-.01a.087.087 0 01-.007-.035v-4.79l.002-.052c.022-.242.194-.413.376-.413z" fill="#000" fill-opacity=".4"/></svg>