<svg width="831" height="251" fill="none" xmlns="http://www.w3.org/2000/svg"><path fill-rule="evenodd" clip-rule="evenodd" d="M483.2 151.1c-35.3 0-42.8-27.4-42.8-50.4V41.3h21v60.2c0 19.4 9.7 31 25.9 31 18.8 0 29.7-15.2 30.7-21V41.3h20.5v106.9h-13.2L522 133l-3.7 3.3c-.2.2-.5.5-.9.8-3.4 3.5-14.4 14-34.2 14zm-206.9-2.8V88.1c0-19.5-9.6-30.7-26.2-30.7-16.4 0-26.7 10.3-30 13.7l-.8.8L218 73l.4 1.7c.5 2.2.8 7.1.8 12.9v60.8h-19.9V88.1c0-19.8-9.5-30.7-26.8-30.7-17.8 0-28.6 13.7-30.5 18.7l-.2.5v71.7H121V46.9l12.5-7.1 2.9 18.5 4.8-4.8c9.6-9.7 22.1-14.9 35.1-14.9 14.9 0 26 5.5 34 16.8l2 2.8 2.4-2.4c1.8-1.8 17.8-17.2 38.8-17.2 36 0 43.6 27.5 43.6 50.6v59.1h-20.8zm284 0V46.9l12.5-7.1 2.9 18.5 4.8-4.8c9.6-9.7 22.1-14.9 35.1-14.9 5.8 0 11.1.9 15.8 2.6l-8.1 18.3c-3.4-1.4-7.3-2.1-11.7-2.1-17.8 0-28.6 13.7-30.5 18.7l-.2.5v71.7h-20.6zm-506.6 2.8C22.6 151.1 0 127.4 0 94.8c0-32.1 23-56.3 53.4-56.3 27.9 0 48.9 21.2 48.9 49.2 0 4.1-1 7.6-1.6 9.5H46.3l35.6-15.1c-1-15.3-13.9-27.7-28.7-27.7-8.1 0-16.4 4-22.6 10.9-8.1 9-11.8 21.8-10.3 35.9 2 19 16.1 31.8 35.1 31.8 14 0 25-6.9 29.7-10.4l10.1 13.2c-5 4.4-20 15.3-41.5 15.3zm728.5 0c-31.1 0-53.7-23.7-53.7-56.3 0-32.1 23-56.3 53.4-56.3 27.9 0 48.9 21.2 48.9 49.2 0 5.5-1.6 10.7-2.1 12.4l-80.1.2c.9 15.8 14.6 32.8 35.2 32.8 13 0 24.8-7.1 29.6-10.5l10.2 13.3c-4.6 4.3-19.2 15.2-41.4 15.2zm-.6-96.6c-16.4 0-30.4 12.5-32.3 28.5l61.6.2c-.9-15.3-14.4-28.7-29.3-28.7zm-104.5 96.6c-19 0-32.4-8.8-36.9-12.3l7.3-13.6c5 3.1 16.5 9.1 29.8 9.1 10.3 0 16.6-4.8 16.6-12.4 0-9.8-8.4-14.1-23.3-20.9-21.1-9.2-30.4-19.7-30.4-34.3 0-13.5 11.2-28.1 35.7-28.1 16.4 0 29.5 7.2 34.3 10.2L702.7 63c-4.7-2.5-15.1-7.3-26.8-7.3-14.4 0-15.5 8.6-15.5 11.3 0 9.2 8.3 12.8 19.7 17.8 20.9 9.2 35.7 17.1 35.7 36.2.1 17.1-16.6 30.1-38.7 30.1zm-304.4 0c-20.7 0-33.5-14.6-33.6-14.8l-3.9-4.5-3.1 16.5h-13.4V9.9L340 0v45.8l3.8-1.3c.4-.1 1.1-.4 2-.8 4.1-1.7 12.7-5.3 24.2-5.3 29.5 0 52.6 24.7 52.6 56.3-.1 31.7-21.9 56.4-49.9 56.4zm-5.6-93.8c-15.3 0-25.6 6.7-26.1 6.9l-1.3.8v48.3l.3.6c.3.8 8.7 18.6 29.3 18.6 18.6 0 32.7-16.2 32.7-37.8.1-21.3-15-37.4-34.9-37.4z" fill="#fff"/><path d="M387.062 233v-45.5h14c4 0 7.573.906 10.719 2.719 3.167 1.791 5.636 4.354 7.407 7.687 1.77 3.313 2.656 7.084 2.656 11.313v2.093c0 4.23-.875 7.99-2.625 11.282-1.729 3.291-4.177 5.844-7.344 7.656-3.167 1.812-6.74 2.729-10.719 2.75h-14.094zm9.376-37.906v30.375h4.531c3.666 0 6.469-1.198 8.406-3.594 1.937-2.396 2.927-5.823 2.969-10.281v-2.406c0-4.626-.959-8.126-2.875-10.5-1.917-2.396-4.719-3.594-8.407-3.594h-4.624zM437.625 233h-9.063v-33.812h9.063V233zm-9.594-42.562c0-1.355.448-2.469 1.344-3.344.917-.875 2.156-1.313 3.719-1.313 1.541 0 2.771.438 3.687 1.313.917.875 1.375 1.989 1.375 3.344 0 1.374-.468 2.5-1.406 3.374-.917.876-2.135 1.313-3.656 1.313-1.521 0-2.75-.437-3.688-1.313-.916-.874-1.375-2-1.375-3.374zm15.75 25.406c0-5.188 1.229-9.365 3.688-12.532 2.479-3.166 5.812-4.75 10-4.75 3.708 0 6.593 1.271 8.656 3.813l.375-3.187h8.188v32.687c0 2.958-.678 5.531-2.032 7.719-1.333 2.187-3.218 3.854-5.656 5-2.438 1.146-5.292 1.718-8.562 1.718-2.48 0-4.896-.5-7.25-1.5-2.355-.979-4.136-2.25-5.344-3.812l4-5.5c2.25 2.521 4.979 3.781 8.187 3.781 2.396 0 4.261-.646 5.594-1.937 1.333-1.271 2-3.084 2-5.438v-1.812c-2.083 2.354-4.823 3.531-8.219 3.531-4.062 0-7.354-1.583-9.875-4.75-2.5-3.187-3.75-7.406-3.75-12.656v-.375zm9.031.656c0 3.062.615 5.469 1.844 7.219 1.229 1.729 2.917 2.593 5.063 2.593 2.75 0 4.719-1.031 5.906-3.093V209c-1.208-2.062-3.156-3.094-5.844-3.094-2.166 0-3.875.886-5.125 2.656-1.229 1.771-1.844 4.417-1.844 7.938zm38.376 16.5h-9.063v-33.812h9.063V233zm-9.594-42.562c0-1.355.448-2.469 1.344-3.344.916-.875 2.156-1.313 3.718-1.313 1.542 0 2.771.438 3.688 1.313.916.875 1.375 1.989 1.375 3.344 0 1.374-.469 2.5-1.407 3.374-.916.876-2.135 1.313-3.656 1.313-1.521 0-2.75-.437-3.687-1.313-.917-.874-1.375-2-1.375-3.374zm27.875.437v8.313h5.781v6.624h-5.781v16.876c0 1.25.239 2.145.719 2.687.479.542 1.395.813 2.75.813 1 0 1.885-.073 2.656-.219v6.843a18.584 18.584 0 01-5.469.813c-6.333 0-9.563-3.198-9.687-9.594v-18.219H495.5v-6.624h4.938v-8.313h9.031zM539.875 233c-.417-.812-.719-1.823-.906-3.031-2.188 2.437-5.031 3.656-8.531 3.656-3.313 0-6.063-.958-8.25-2.875-2.167-1.917-3.25-4.333-3.25-7.25 0-3.583 1.322-6.333 3.968-8.25 2.667-1.917 6.511-2.885 11.532-2.906h4.156v-1.938c0-1.562-.406-2.812-1.219-3.75-.792-.937-2.052-1.406-3.781-1.406-1.521 0-2.719.365-3.594 1.094-.854.729-1.281 1.729-1.281 3h-9.031c0-1.959.604-3.771 1.812-5.438 1.208-1.666 2.917-2.968 5.125-3.906 2.208-.958 4.687-1.438 7.437-1.438 4.167 0 7.469 1.053 9.907 3.157 2.458 2.083 3.687 5.021 3.687 8.812v14.657c.021 3.208.469 5.635 1.344 7.281V233h-9.125zm-7.469-6.281c1.334 0 2.563-.292 3.688-.875 1.125-.604 1.958-1.406 2.5-2.406v-5.813h-3.375c-4.521 0-6.927 1.563-7.219 4.687l-.031.532c0 1.125.396 2.052 1.187 2.781.792.729 1.875 1.094 3.25 1.094zM564.125 233h-9.063v-48h9.063v48zm59.719-15.156c-.354 4.896-2.167 8.75-5.438 11.562-3.25 2.813-7.541 4.219-12.875 4.219-5.833 0-10.427-1.958-13.781-5.875-3.333-3.938-5-9.333-5-16.188v-2.781c0-4.375.771-8.229 2.312-11.562 1.542-3.334 3.74-5.886 6.594-7.657 2.875-1.791 6.209-2.687 10-2.687 5.25 0 9.479 1.406 12.688 4.219 3.208 2.812 5.062 6.76 5.562 11.844h-9.375c-.229-2.938-1.052-5.063-2.469-6.376-1.395-1.333-3.531-2-6.406-2-3.125 0-5.468 1.126-7.031 3.376-1.542 2.229-2.333 5.697-2.375 10.406v3.437c0 4.917.74 8.511 2.219 10.781 1.5 2.271 3.854 3.407 7.062 3.407 2.896 0 5.052-.657 6.469-1.969 1.438-1.333 2.26-3.385 2.469-6.156h9.375zM649 233c-.417-.812-.719-1.823-.906-3.031-2.188 2.437-5.032 3.656-8.532 3.656-3.312 0-6.062-.958-8.25-2.875-2.166-1.917-3.25-4.333-3.25-7.25 0-3.583 1.323-6.333 3.969-8.25 2.667-1.917 6.511-2.885 11.531-2.906h4.157v-1.938c0-1.562-.407-2.812-1.219-3.75-.792-.937-2.052-1.406-3.781-1.406-1.521 0-2.719.365-3.594 1.094-.854.729-1.281 1.729-1.281 3h-9.032c0-1.959.605-3.771 1.813-5.438 1.208-1.666 2.917-2.968 5.125-3.906 2.208-.958 4.688-1.438 7.438-1.438 4.166 0 7.468 1.053 9.906 3.157 2.458 2.083 3.687 5.021 3.687 8.812v14.657c.021 3.208.469 5.635 1.344 7.281V233H649zm-7.469-6.281c1.334 0 2.563-.292 3.688-.875 1.125-.604 1.958-1.406 2.5-2.406v-5.813h-3.375c-4.521 0-6.927 1.563-7.219 4.687l-.031.532c0 1.125.396 2.052 1.187 2.781.792.729 1.875 1.094 3.25 1.094zm41.188-19.063c-1.229-.166-2.313-.25-3.25-.25-3.417 0-5.657 1.156-6.719 3.469V233h-9.031v-33.812h8.531l.25 4.031c1.812-3.104 4.323-4.657 7.531-4.657 1 0 1.938.136 2.813.407l-.125 8.687zm2.343 8.188c0-5.271 1.178-9.469 3.532-12.594 2.375-3.125 5.614-4.688 9.718-4.688 3.292 0 6.011 1.23 8.157 3.688V185h9.062v48h-8.156l-.437-3.594c-2.25 2.813-5.146 4.219-8.688 4.219-3.979 0-7.177-1.563-9.594-4.687-2.396-3.146-3.594-7.511-3.594-13.094zm9.032.656c0 3.167.552 5.594 1.656 7.281 1.104 1.688 2.708 2.531 4.812 2.531 2.792 0 4.761-1.177 5.907-3.531v-13.343c-1.125-2.355-3.073-3.532-5.844-3.532-4.354 0-6.531 3.532-6.531 10.594z" fill="#fff"/></svg>