<svg xmlns="http://www.w3.org/2000/svg" preserveAspectRatio="xMidYMid" width="838" height="200"><path d="M483.2 154.1c-35.3 0-42.8-27.4-42.8-50.4V44.3h21v60.2c0 19.4 9.7 31 25.9 31 18.8 0 29.7-15.2 30.7-21V44.3h20.5v106.9h-13.2L522 136l-3.7 3.3c-.2.2-.5.5-.9.8-3.4 3.5-14.4 14-34.2 14zm-206.9-2.8V91.1c0-19.5-9.6-30.7-26.2-30.7-16.4 0-26.7 10.3-30 13.7l-.8.8L218 76l.4 1.7c.5 2.2.8 7.1.8 12.9v60.8h-19.9V91.1c0-19.8-9.5-30.7-26.8-30.7-17.8 0-28.6 13.7-30.5 18.7l-.2.5v71.7H121V49.9l12.5-7.1 2.9 18.5 4.8-4.8c9.6-9.7 22.1-14.9 35.1-14.9 14.9 0 26 5.5 34 16.8l2 2.8 2.4-2.4c1.8-1.8 17.8-17.2 38.8-17.2 36 0 43.6 27.5 43.6 50.6v59.1h-20.8zm284 0V49.9l12.5-7.1 2.9 18.5 4.8-4.8c9.6-9.7 22.1-14.9 35.1-14.9 5.8 0 11.1.9 15.8 2.6l-8.1 18.3c-3.4-1.4-7.3-2.1-11.7-2.1-17.8 0-28.6 13.7-30.5 18.7l-.2.5v71.7h-20.6zm-506.6 2.8C22.6 154.1 0 130.4 0 97.8c0-32.1 23-56.3 53.4-56.3 27.9 0 48.9 21.2 48.9 49.2 0 4.1-1 7.6-1.6 9.5H46.3l35.6-15.1c-1-15.3-13.9-27.7-28.7-27.7-8.1 0-16.4 4-22.6 10.9-8.1 9-11.8 21.8-10.3 35.9 2 19 16.1 31.8 35.1 31.8 14 0 25-6.9 29.7-10.4l10.1 13.2c-5 4.4-20 15.3-41.5 15.3zm728.5 0c-31.1 0-53.7-23.7-53.7-56.3 0-32.1 23-56.3 53.4-56.3 27.9 0 48.9 21.2 48.9 49.2 0 5.5-1.6 10.7-2.1 12.4l-80.1.2c.9 15.8 14.6 32.8 35.2 32.8 13 0 24.8-7.1 29.6-10.5l10.2 13.3c-4.6 4.3-19.2 15.2-41.4 15.2zm-.6-96.6c-16.4 0-30.4 12.5-32.3 28.5l61.6.2c-.9-15.3-14.4-28.7-29.3-28.7zm-104.5 96.6c-19 0-32.4-8.8-36.9-12.3l7.3-13.6c5 3.1 16.5 9.1 29.8 9.1 10.3 0 16.6-4.8 16.6-12.4 0-9.8-8.4-14.1-23.3-20.9-21.1-9.2-30.4-19.7-30.4-34.3 0-13.5 11.2-28.1 35.7-28.1 16.4 0 29.5 7.2 34.3 10.2L702.7 66c-4.7-2.5-15.1-7.3-26.8-7.3-14.4 0-15.5 8.6-15.5 11.3 0 9.2 8.3 12.8 19.7 17.8 20.9 9.2 35.7 17.1 35.7 36.2.1 17.1-16.6 30.1-38.7 30.1zm-304.4 0c-20.7 0-33.5-14.6-33.6-14.8l-3.9-4.5-3.1 16.5h-13.4V12.9L340 3v45.8l3.8-1.3c.4-.1 1.1-.4 2-.8 4.1-1.7 12.7-5.3 24.2-5.3 29.5 0 52.6 24.7 52.6 56.3-.1 31.7-21.9 56.4-49.9 56.4zm-5.6-93.8c-15.3 0-25.6 6.7-26.1 6.9l-1.3.8v48.3l.3.6c.3.8 8.7 18.6 29.3 18.6 18.6 0 32.7-16.2 32.7-37.8.1-21.3-15-37.4-34.9-37.4z" fill="#fff" fill-rule="evenodd"/></svg>