<svg xmlns="http://www.w3.org/2000/svg" width="383" height="222" fill="none" viewBox="0 0 383 222"><g opacity=".5"><mask id="mask0" width="383" height="222" x="0" y="0" mask-type="alpha" maskUnits="userSpaceOnUse"><rect width="383" height="222" fill="#43279B" transform="matrix(-1 0 0 1 383 0)"/></mask><g mask="url(#mask0)"><g style="mix-blend-mode:soft-light"><rect width="31" height="31" fill="#F4F2FB" transform="matrix(-1 0 0 1 31 -2)"/><rect width="30" height="30" x="-.5" y=".5" stroke="#8C8C8C" stroke-opacity=".32" transform="matrix(-1 0 0 1 30 -2)"/></g><g style="mix-blend-mode:soft-light"><rect width="31" height="31" fill="#F4F2FB" transform="matrix(-1 0 0 1 31 29)"/><rect width="30" height="30" x="-.5" y=".5" stroke="#8C8C8C" stroke-opacity=".32" transform="matrix(-1 0 0 1 30 29)"/></g><g opacity=".65"><g style="mix-blend-mode:soft-light"><rect width="31" height="31" fill="#F4F2FB" transform="matrix(-1 0 0 1 62 60)"/><rect width="30" height="30" x="-.5" y=".5" stroke="#8C8C8C" stroke-opacity=".32" transform="matrix(-1 0 0 1 61 60)"/></g></g><g opacity=".65"><g style="mix-blend-mode:soft-light"><rect width="31" height="31" fill="#F4F2FB" transform="matrix(-1 0 0 1 31 91)"/><rect width="30" height="30" x="-.5" y=".5" stroke="#8C8C8C" stroke-opacity=".32" transform="matrix(-1 0 0 1 30 91)"/></g></g><g opacity=".75"><g style="mix-blend-mode:soft-light"><rect width="31" height="31" fill="#F4F2FB" transform="matrix(-1 0 0 1 31 60)"/><rect width="30" height="30" x="-.5" y=".5" stroke="#8C8C8C" stroke-opacity=".32" transform="matrix(-1 0 0 1 30 60)"/></g></g><g opacity=".75"><g style="mix-blend-mode:soft-light"><rect width="31" height="31" fill="#F4F2FB" transform="matrix(-1 0 0 1 62 29)"/><rect width="30" height="30" x="-.5" y=".5" stroke="#8C8C8C" stroke-opacity=".32" transform="matrix(-1 0 0 1 61 29)"/></g></g><g opacity=".55"><g style="mix-blend-mode:soft-light"><rect width="31" height="31" fill="#F4F2FB" transform="matrix(-1 0 0 1 93 60)"/><rect width="30" height="30" x="-.5" y=".5" stroke="#8C8C8C" stroke-opacity=".32" transform="matrix(-1 0 0 1 92 60)"/></g></g><g opacity=".55"><g style="mix-blend-mode:soft-light"><rect width="31" height="31" fill="#F4F2FB" transform="matrix(-1 0 0 1 62 91)"/><rect width="30" height="30" x="-.5" y=".5" stroke="#8C8C8C" stroke-opacity=".32" transform="matrix(-1 0 0 1 61 91)"/></g></g><g opacity=".55"><g style="mix-blend-mode:soft-light"><rect width="31" height="31" fill="#F4F2FB" transform="matrix(-1 0 0 1 31 122)"/><rect width="30" height="30" x="-.5" y=".5" stroke="#8C8C8C" stroke-opacity=".32" transform="matrix(-1 0 0 1 30 122)"/></g></g><g style="mix-blend-mode:soft-light"><rect width="31" height="31" fill="#F4F2FB" transform="matrix(-1 0 0 1 62 -2)"/><rect width="30" height="30" x="-.5" y=".5" stroke="#8C8C8C" stroke-opacity=".32" transform="matrix(-1 0 0 1 61 -2)"/></g><g opacity=".65"><g style="mix-blend-mode:soft-light"><rect width="31" height="31" fill="#F4F2FB" transform="matrix(-1 0 0 1 93 29)"/><rect width="30" height="30" x="-.5" y=".5" stroke="#8C8C8C" stroke-opacity=".32" transform="matrix(-1 0 0 1 92 29)"/></g></g><g opacity=".55"><g style="mix-blend-mode:soft-light"><rect width="31" height="31" fill="#F4F2FB" transform="matrix(-1 0 0 1 124 29)"/><rect width="30" height="30" x="-.5" y=".5" stroke="#8C8C8C" stroke-opacity=".32" transform="matrix(-1 0 0 1 123 29)"/></g></g><g opacity=".55"><g style="mix-blend-mode:soft-light"><rect width="31" height="31" fill="#F4F2FB" transform="matrix(-1 0 0 1 155 -2)"/><rect width="30" height="30" x="-.5" y=".5" stroke="#8C8C8C" stroke-opacity=".32" transform="matrix(-1 0 0 1 154 -2)"/></g></g><g opacity=".35"><g style="mix-blend-mode:soft-light"><rect width="31" height="31" fill="#F4F2FB" transform="matrix(-1 0 0 1 186 -2)"/><rect width="30" height="30" x="-.5" y=".5" stroke="#8C8C8C" stroke-opacity=".32" transform="matrix(-1 0 0 1 185 -2)"/></g></g><g opacity=".35"><g style="mix-blend-mode:soft-light"><rect width="31" height="31" fill="#F4F2FB" transform="matrix(-1 0 0 1 155 29)"/><rect width="30" height="30" x="-.5" y=".5" stroke="#8C8C8C" stroke-opacity=".32" transform="matrix(-1 0 0 1 154 29)"/></g></g><g opacity=".35"><g style="mix-blend-mode:soft-light"><rect width="31" height="31" fill="#F4F2FB" transform="matrix(-1 0 0 1 124 60)"/><rect width="30" height="30" x="-.5" y=".5" stroke="#8C8C8C" stroke-opacity=".32" transform="matrix(-1 0 0 1 123 60)"/></g></g><g opacity=".35"><g style="mix-blend-mode:soft-light"><rect width="31" height="31" fill="#F4F2FB" transform="matrix(-1 0 0 1 93 91)"/><rect width="30" height="30" x="-.5" y=".5" stroke="#8C8C8C" stroke-opacity=".32" transform="matrix(-1 0 0 1 92 91)"/></g></g><g opacity=".35"><g style="mix-blend-mode:soft-light"><rect width="31" height="31" fill="#F4F2FB" transform="matrix(-1 0 0 1 62 122)"/><rect width="30" height="30" x="-.5" y=".5" stroke="#8C8C8C" stroke-opacity=".32" transform="matrix(-1 0 0 1 61 122)"/></g></g><g opacity=".35"><g style="mix-blend-mode:soft-light"><rect width="31" height="31" fill="#F4F2FB" transform="matrix(-1 0 0 1 31 153)"/><rect width="30" height="30" x="-.5" y=".5" stroke="#8C8C8C" stroke-opacity=".32" transform="matrix(-1 0 0 1 30 153)"/></g></g><g opacity=".35"><g style="mix-blend-mode:soft-light"><rect width="31" height="31" fill="#F4F2FB" transform="matrix(-1 0 0 1 217 -2)"/><rect width="30" height="30" x="-.5" y=".5" stroke="#8C8C8C" stroke-opacity=".32" transform="matrix(-1 0 0 1 216 -2)"/></g></g><g style="mix-blend-mode:soft-light"><rect width="31" height="31" fill="#F4F2FB" fill-opacity=".35" transform="matrix(-1 0 0 1 248 -2)"/><rect width="30" height="30" x="-.5" y=".5" stroke="#8C8C8C" stroke-opacity=".32" transform="matrix(-1 0 0 1 247 -2)"/></g><g style="mix-blend-mode:soft-light"><rect width="31" height="31" fill="#F4F2FB" fill-opacity=".3" transform="matrix(-1 0 0 1 279 -2)"/><rect width="30" height="30" x="-.5" y=".5" stroke="#8C8C8C" stroke-opacity=".32" transform="matrix(-1 0 0 1 278 -2)"/></g><g style="mix-blend-mode:soft-light"><rect width="31" height="31" fill="#F4F2FB" fill-opacity=".15" transform="matrix(-1 0 0 1 310 -2)"/><rect width="30" height="30" x="-.5" y=".5" stroke="#8C8C8C" stroke-opacity=".32" transform="matrix(-1 0 0 1 309 -2)"/></g><g style="mix-blend-mode:soft-light"><rect width="31" height="31" fill="#F4F2FB" fill-opacity=".05" transform="matrix(-1 0 0 1 341 -2)"/><rect width="30" height="30" x="-.5" y=".5" stroke="#8C8C8C" stroke-opacity=".32" transform="matrix(-1 0 0 1 340 -2)"/></g><g opacity=".35"><g style="mix-blend-mode:soft-light"><rect width="31" height="31" fill="#F4F2FB" transform="matrix(-1 0 0 1 186 29)"/><rect width="30" height="30" x="-.5" y=".5" stroke="#8C8C8C" stroke-opacity=".32" transform="matrix(-1 0 0 1 185 29)"/></g></g><g style="mix-blend-mode:soft-light"><rect width="31" height="31" fill="#F4F2FB" fill-opacity=".35" transform="matrix(-1 0 0 1 217 29)"/><rect width="30" height="30" x="-.5" y=".5" stroke="#8C8C8C" stroke-opacity=".32" transform="matrix(-1 0 0 1 216 29)"/></g><g style="mix-blend-mode:soft-light"><rect width="31" height="31" fill="#F4F2FB" fill-opacity=".3" transform="matrix(-1 0 0 1 248 29)"/><rect width="30" height="30" x="-.5" y=".5" stroke="#8C8C8C" stroke-opacity=".32" transform="matrix(-1 0 0 1 247 29)"/></g><g style="mix-blend-mode:soft-light"><rect width="31" height="31" fill="#F4F2FB" fill-opacity=".15" transform="matrix(-1 0 0 1 279 29)"/><rect width="30" height="30" x="-.5" y=".5" stroke="#8C8C8C" stroke-opacity=".32" transform="matrix(-1 0 0 1 278 29)"/></g><g style="mix-blend-mode:soft-light"><rect width="31" height="31" fill="#F4F2FB" fill-opacity=".05" transform="matrix(-1 0 0 1 310 29)"/><rect width="30" height="30" x="-.5" y=".5" stroke="#8C8C8C" stroke-opacity=".32" transform="matrix(-1 0 0 1 309 29)"/></g><g style="mix-blend-mode:soft-light"><rect width="31" height="31" fill="#F4F2FB" fill-opacity=".05" transform="matrix(-1 0 0 1 341 29)"/><rect width="30" height="30" x="-.5" y=".5" stroke="#8C8C8C" stroke-opacity=".32" transform="matrix(-1 0 0 1 340 29)"/></g><g opacity=".35"><g style="mix-blend-mode:soft-light"><rect width="31" height="31" fill="#F4F2FB" transform="matrix(-1 0 0 1 155 60)"/><rect width="30" height="30" x="-.5" y=".5" stroke="#8C8C8C" stroke-opacity=".32" transform="matrix(-1 0 0 1 154 60)"/></g></g><g style="mix-blend-mode:soft-light"><rect width="31" height="31" fill="#F4F2FB" fill-opacity=".35" transform="matrix(-1 0 0 1 186 60)"/><rect width="30" height="30" x="-.5" y=".5" stroke="#8C8C8C" stroke-opacity=".32" transform="matrix(-1 0 0 1 185 60)"/></g><g style="mix-blend-mode:soft-light"><rect width="31" height="31" fill="#F4F2FB" fill-opacity=".3" transform="matrix(-1 0 0 1 217 60)"/><rect width="30" height="30" x="-.5" y=".5" stroke="#8C8C8C" stroke-opacity=".32" transform="matrix(-1 0 0 1 216 60)"/></g><g style="mix-blend-mode:soft-light"><rect width="31" height="31" fill="#F4F2FB" fill-opacity=".15" transform="matrix(-1 0 0 1 248 60)"/><rect width="30" height="30" x="-.5" y=".5" stroke="#8C8C8C" stroke-opacity=".32" transform="matrix(-1 0 0 1 247 60)"/></g><g style="mix-blend-mode:soft-light"><rect width="31" height="31" fill="#F4F2FB" fill-opacity=".05" transform="matrix(-1 0 0 1 279 60)"/><rect width="30" height="30" x="-.5" y=".5" stroke="#8C8C8C" stroke-opacity=".32" transform="matrix(-1 0 0 1 278 60)"/></g><g style="mix-blend-mode:soft-light"><rect width="31" height="31" fill="#F4F2FB" fill-opacity=".05" transform="matrix(-1 0 0 1 310 60)"/><rect width="30" height="30" x="-.5" y=".5" stroke="#8C8C8C" stroke-opacity=".32" transform="matrix(-1 0 0 1 309 60)"/></g><g opacity=".35"><g style="mix-blend-mode:soft-light"><rect width="31" height="31" fill="#F4F2FB" transform="matrix(-1 0 0 1 124 91)"/><rect width="30" height="30" x="-.5" y=".5" stroke="#8C8C8C" stroke-opacity=".32" transform="matrix(-1 0 0 1 123 91)"/></g></g><g style="mix-blend-mode:soft-light"><rect width="31" height="31" fill="#F4F2FB" fill-opacity=".35" transform="matrix(-1 0 0 1 155 91)"/><rect width="30" height="30" x="-.5" y=".5" stroke="#8C8C8C" stroke-opacity=".32" transform="matrix(-1 0 0 1 154 91)"/></g><g style="mix-blend-mode:soft-light"><rect width="31" height="31" fill="#F4F2FB" fill-opacity=".3" transform="matrix(-1 0 0 1 186 91)"/><rect width="30" height="30" x="-.5" y=".5" stroke="#8C8C8C" stroke-opacity=".32" transform="matrix(-1 0 0 1 185 91)"/></g><g style="mix-blend-mode:soft-light"><rect width="31" height="31" fill="#F4F2FB" fill-opacity=".15" transform="matrix(-1 0 0 1 217 91)"/><rect width="30" height="30" x="-.5" y=".5" stroke="#8C8C8C" stroke-opacity=".32" transform="matrix(-1 0 0 1 216 91)"/></g><g style="mix-blend-mode:soft-light"><rect width="31" height="31" fill="#F4F2FB" fill-opacity=".05" transform="matrix(-1 0 0 1 248 91)"/><rect width="30" height="30" x="-.5" y=".5" stroke="#8C8C8C" stroke-opacity=".32" transform="matrix(-1 0 0 1 247 91)"/></g><g opacity=".35"><g style="mix-blend-mode:soft-light"><rect width="31" height="31" fill="#F4F2FB" transform="matrix(-1 0 0 1 93 122)"/><rect width="30" height="30" x="-.5" y=".5" stroke="#8C8C8C" stroke-opacity=".32" transform="matrix(-1 0 0 1 92 122)"/></g></g><g opacity=".35"><g style="mix-blend-mode:soft-light"><rect width="31" height="31" fill="#F4F2FB" transform="matrix(-1 0 0 1 62 153)"/><rect width="30" height="30" x="-.5" y=".5" stroke="#8C8C8C" stroke-opacity=".32" transform="matrix(-1 0 0 1 61 153)"/></g></g><g style="mix-blend-mode:soft-light"><rect width="31" height="31" fill="#F4F2FB" fill-opacity=".35" transform="matrix(-1 0 0 1 124 122)"/><rect width="30" height="30" x="-.5" y=".5" stroke="#8C8C8C" stroke-opacity=".32" transform="matrix(-1 0 0 1 123 122)"/></g><g style="mix-blend-mode:soft-light"><rect width="31" height="31" fill="#F4F2FB" fill-opacity=".3" transform="matrix(-1 0 0 1 155 122)"/><rect width="30" height="30" x="-.5" y=".5" stroke="#8C8C8C" stroke-opacity=".32" transform="matrix(-1 0 0 1 154 122)"/></g><g opacity=".65"><g style="mix-blend-mode:soft-light"><rect width="31" height="31" fill="#F4F2FB" transform="matrix(-1 0 0 1 124 -2)"/><rect width="30" height="30" x="-.5" y=".5" stroke="#8C8C8C" stroke-opacity=".32" transform="matrix(-1 0 0 1 123 -2)"/></g></g><g opacity=".75"><g style="mix-blend-mode:soft-light"><rect width="31" height="31" fill="#F4F2FB" transform="matrix(-1 0 0 1 93 -2)"/><rect width="30" height="30" x="-.5" y=".5" stroke="#8C8C8C" stroke-opacity=".32" transform="matrix(-1 0 0 1 92 -2)"/></g></g></g></g></svg>