<svg width="383" height="222" viewBox="0 0 383 222" fill="none" xmlns="http://www.w3.org/2000/svg">
<g opacity="0.5">
<mask id="mask0" mask-type="alpha" maskUnits="userSpaceOnUse" x="0" y="0" width="383" height="222">
<rect width="383" height="222" fill="#43279B"/>
</mask>
<g mask="url(#mask0)">
<g style="mix-blend-mode:soft-light">
<rect x="291.4" y="-1.92258" width="28.6" height="28.6" fill="#F4F2FB"/>
<rect x="291.9" y="-1.42258" width="27.6" height="27.6" stroke="#8C8C8C" stroke-opacity="0.32"/>
</g>
<g style="mix-blend-mode:soft-light">
<rect x="291.4" y="26.6774" width="28.6" height="28.6" fill="#F4F2FB"/>
<rect x="291.9" y="27.1774" width="27.6" height="27.6" stroke="#8C8C8C" stroke-opacity="0.32"/>
</g>
<g opacity="0.65">
<g style="mix-blend-mode:soft-light">
<rect x="262.8" y="55.2774" width="28.6" height="28.6" fill="#F4F2FB"/>
<rect x="263.3" y="55.7774" width="27.6" height="27.6" stroke="#8C8C8C" stroke-opacity="0.32"/>
</g>
</g>
<g opacity="0.65">
<g style="mix-blend-mode:soft-light">
<rect x="291.4" y="83.8774" width="28.6" height="28.6" fill="#F4F2FB"/>
<rect x="291.9" y="84.3774" width="27.6" height="27.6" stroke="#8C8C8C" stroke-opacity="0.32"/>
</g>
</g>
<g opacity="0.75">
<g style="mix-blend-mode:soft-light">
<rect x="291.4" y="55.2774" width="28.6" height="28.6" fill="#F4F2FB"/>
<rect x="291.9" y="55.7774" width="27.6" height="27.6" stroke="#8C8C8C" stroke-opacity="0.32"/>
</g>
</g>
<g opacity="0.75">
<g style="mix-blend-mode:soft-light">
<rect x="262.8" y="26.6774" width="28.6" height="28.6" fill="#F4F2FB"/>
<rect x="263.3" y="27.1774" width="27.6" height="27.6" stroke="#8C8C8C" stroke-opacity="0.32"/>
</g>
</g>
<g opacity="0.55">
<g style="mix-blend-mode:soft-light">
<rect x="234.2" y="55.2774" width="28.6" height="28.6" fill="#F4F2FB"/>
<rect x="234.7" y="55.7774" width="27.6" height="27.6" stroke="#8C8C8C" stroke-opacity="0.32"/>
</g>
</g>
<g opacity="0.55">
<g style="mix-blend-mode:soft-light">
<rect x="262.8" y="83.8774" width="28.6" height="28.6" fill="#F4F2FB"/>
<rect x="263.3" y="84.3774" width="27.6" height="27.6" stroke="#8C8C8C" stroke-opacity="0.32"/>
</g>
</g>
<g opacity="0.55">
<g style="mix-blend-mode:soft-light">
<rect x="291.4" y="112.477" width="28.6" height="28.6" fill="#F4F2FB"/>
<rect x="291.9" y="112.977" width="27.6" height="27.6" stroke="#8C8C8C" stroke-opacity="0.32"/>
</g>
</g>
<g style="mix-blend-mode:soft-light">
<rect x="262.8" y="-1.92258" width="28.6" height="28.6" fill="#F4F2FB"/>
<rect x="263.3" y="-1.42258" width="27.6" height="27.6" stroke="#8C8C8C" stroke-opacity="0.32"/>
</g>
<g opacity="0.65">
<g style="mix-blend-mode:soft-light">
<rect x="234.2" y="26.6774" width="28.6" height="28.6" fill="#F4F2FB"/>
<rect x="234.7" y="27.1774" width="27.6" height="27.6" stroke="#8C8C8C" stroke-opacity="0.32"/>
</g>
</g>
<g opacity="0.55">
<g style="mix-blend-mode:soft-light">
<rect x="205.6" y="26.6774" width="28.6" height="28.6" fill="#F4F2FB"/>
<rect x="206.1" y="27.1774" width="27.6" height="27.6" stroke="#8C8C8C" stroke-opacity="0.32"/>
</g>
</g>
<g opacity="0.55">
<g style="mix-blend-mode:soft-light">
<rect x="177" y="-1.92258" width="28.6" height="28.6" fill="#F4F2FB"/>
<rect x="177.5" y="-1.42258" width="27.6" height="27.6" stroke="#8C8C8C" stroke-opacity="0.32"/>
</g>
</g>
<g opacity="0.35">
<g style="mix-blend-mode:soft-light">
<rect x="148.4" y="-1.92258" width="28.6" height="28.6" fill="#F4F2FB"/>
<rect x="148.9" y="-1.42258" width="27.6" height="27.6" stroke="#8C8C8C" stroke-opacity="0.32"/>
</g>
</g>
<g opacity="0.35">
<g style="mix-blend-mode:soft-light">
<rect x="177" y="26.6774" width="28.6" height="28.6" fill="#F4F2FB"/>
<rect x="177.5" y="27.1774" width="27.6" height="27.6" stroke="#8C8C8C" stroke-opacity="0.32"/>
</g>
</g>
<g opacity="0.35">
<g style="mix-blend-mode:soft-light">
<rect x="205.6" y="55.2774" width="28.6" height="28.6" fill="#F4F2FB"/>
<rect x="206.1" y="55.7774" width="27.6" height="27.6" stroke="#8C8C8C" stroke-opacity="0.32"/>
</g>
</g>
<g opacity="0.35">
<g style="mix-blend-mode:soft-light">
<rect x="234.2" y="83.8774" width="28.6" height="28.6" fill="#F4F2FB"/>
<rect x="234.7" y="84.3774" width="27.6" height="27.6" stroke="#8C8C8C" stroke-opacity="0.32"/>
</g>
</g>
<g opacity="0.35">
<g style="mix-blend-mode:soft-light">
<rect x="262.8" y="112.477" width="28.6" height="28.6" fill="#F4F2FB"/>
<rect x="263.3" y="112.977" width="27.6" height="27.6" stroke="#8C8C8C" stroke-opacity="0.32"/>
</g>
</g>
<g opacity="0.35">
<g style="mix-blend-mode:soft-light">
<rect x="119.8" y="-1.92258" width="28.6" height="28.6" fill="#F4F2FB"/>
<rect x="120.3" y="-1.42258" width="27.6" height="27.6" stroke="#8C8C8C" stroke-opacity="0.32"/>
</g>
</g>
<g opacity="0.35">
<g style="mix-blend-mode:soft-light">
<rect x="148.4" y="26.6774" width="28.6" height="28.6" fill="#F4F2FB"/>
<rect x="148.9" y="27.1774" width="27.6" height="27.6" stroke="#8C8C8C" stroke-opacity="0.32"/>
</g>
</g>
<g opacity="0.35">
<g style="mix-blend-mode:soft-light">
<rect x="177" y="55.2774" width="28.6" height="28.6" fill="#F4F2FB"/>
<rect x="177.5" y="55.7774" width="27.6" height="27.6" stroke="#8C8C8C" stroke-opacity="0.32"/>
</g>
</g>
<g opacity="0.35">
<g style="mix-blend-mode:soft-light">
<rect x="205.6" y="83.8774" width="28.6" height="28.6" fill="#F4F2FB"/>
<rect x="206.1" y="84.3774" width="27.6" height="27.6" stroke="#8C8C8C" stroke-opacity="0.32"/>
</g>
</g>
<g opacity="0.35">
<g style="mix-blend-mode:soft-light">
<rect x="234.2" y="112.477" width="28.6" height="28.6" fill="#F4F2FB"/>
<rect x="234.7" y="112.977" width="27.6" height="27.6" stroke="#8C8C8C" stroke-opacity="0.32"/>
</g>
</g>
<g opacity="0.65">
<g style="mix-blend-mode:soft-light">
<rect x="205.6" y="-1.92258" width="28.6" height="28.6" fill="#F4F2FB"/>
<rect x="206.1" y="-1.42258" width="27.6" height="27.6" stroke="#8C8C8C" stroke-opacity="0.32"/>
</g>
</g>
<g opacity="0.75">
<g style="mix-blend-mode:soft-light">
<rect x="234.2" y="-1.92258" width="28.6" height="28.6" fill="#F4F2FB"/>
<rect x="234.7" y="-1.42258" width="27.6" height="27.6" stroke="#8C8C8C" stroke-opacity="0.32"/>
</g>
</g>
</g>
</g>
</svg>
