<svg width="383" height="222" viewBox="0 0 383 222" fill="none" xmlns="http://www.w3.org/2000/svg">
<g opacity="0.5">
<mask id="mask0" mask-type="alpha" maskUnits="userSpaceOnUse" x="0" y="0" width="383" height="222">
<rect width="383" height="222" transform="matrix(-1 0 0 1 383 0)" fill="#43279B"/>
</mask>
<g mask="url(#mask0)">
<g style="mix-blend-mode:soft-light">
<rect width="31" height="31" transform="matrix(-1 0 0 1 31 -2)" fill="#F4F2FB"/>
<rect x="-0.5" y="0.5" width="30" height="30" transform="matrix(-1 0 0 1 30 -2)" stroke="#8C8C8C" stroke-opacity="0.32"/>
</g>
<g style="mix-blend-mode:soft-light">
<rect width="31" height="31" transform="matrix(-1 0 0 1 31 29)" fill="#F4F2FB"/>
<rect x="-0.5" y="0.5" width="30" height="30" transform="matrix(-1 0 0 1 30 29)" stroke="#8C8C8C" stroke-opacity="0.32"/>
</g>
<g opacity="0.65">
<g style="mix-blend-mode:soft-light">
<rect width="31" height="31" transform="matrix(-1 0 0 1 62 60)" fill="#F4F2FB"/>
<rect x="-0.5" y="0.5" width="30" height="30" transform="matrix(-1 0 0 1 61 60)" stroke="#8C8C8C" stroke-opacity="0.32"/>
</g>
</g>
<g opacity="0.65">
<g style="mix-blend-mode:soft-light">
<rect width="31" height="31" transform="matrix(-1 0 0 1 31 91)" fill="#F4F2FB"/>
<rect x="-0.5" y="0.5" width="30" height="30" transform="matrix(-1 0 0 1 30 91)" stroke="#8C8C8C" stroke-opacity="0.32"/>
</g>
</g>
<g opacity="0.75">
<g style="mix-blend-mode:soft-light">
<rect width="31" height="31" transform="matrix(-1 0 0 1 31 60)" fill="#F4F2FB"/>
<rect x="-0.5" y="0.5" width="30" height="30" transform="matrix(-1 0 0 1 30 60)" stroke="#8C8C8C" stroke-opacity="0.32"/>
</g>
</g>
<g opacity="0.75">
<g style="mix-blend-mode:soft-light">
<rect width="31" height="31" transform="matrix(-1 0 0 1 62 29)" fill="#F4F2FB"/>
<rect x="-0.5" y="0.5" width="30" height="30" transform="matrix(-1 0 0 1 61 29)" stroke="#8C8C8C" stroke-opacity="0.32"/>
</g>
</g>
<g opacity="0.55">
<g style="mix-blend-mode:soft-light">
<rect width="31" height="31" transform="matrix(-1 0 0 1 93 60)" fill="#F4F2FB"/>
<rect x="-0.5" y="0.5" width="30" height="30" transform="matrix(-1 0 0 1 92 60)" stroke="#8C8C8C" stroke-opacity="0.32"/>
</g>
</g>
<g opacity="0.55">
<g style="mix-blend-mode:soft-light">
<rect width="31" height="31" transform="matrix(-1 0 0 1 62 91)" fill="#F4F2FB"/>
<rect x="-0.5" y="0.5" width="30" height="30" transform="matrix(-1 0 0 1 61 91)" stroke="#8C8C8C" stroke-opacity="0.32"/>
</g>
</g>
<g opacity="0.55">
<g style="mix-blend-mode:soft-light">
<rect width="31" height="31" transform="matrix(-1 0 0 1 31 122)" fill="#F4F2FB"/>
<rect x="-0.5" y="0.5" width="30" height="30" transform="matrix(-1 0 0 1 30 122)" stroke="#8C8C8C" stroke-opacity="0.32"/>
</g>
</g>
<g style="mix-blend-mode:soft-light">
<rect width="31" height="31" transform="matrix(-1 0 0 1 62 -2)" fill="#F4F2FB"/>
<rect x="-0.5" y="0.5" width="30" height="30" transform="matrix(-1 0 0 1 61 -2)" stroke="#8C8C8C" stroke-opacity="0.32"/>
</g>
<g opacity="0.65">
<g style="mix-blend-mode:soft-light">
<rect width="31" height="31" transform="matrix(-1 0 0 1 93 29)" fill="#F4F2FB"/>
<rect x="-0.5" y="0.5" width="30" height="30" transform="matrix(-1 0 0 1 92 29)" stroke="#8C8C8C" stroke-opacity="0.32"/>
</g>
</g>
<g opacity="0.55">
<g style="mix-blend-mode:soft-light">
<rect width="31" height="31" transform="matrix(-1 0 0 1 124 29)" fill="#F4F2FB"/>
<rect x="-0.5" y="0.5" width="30" height="30" transform="matrix(-1 0 0 1 123 29)" stroke="#8C8C8C" stroke-opacity="0.32"/>
</g>
</g>
<g opacity="0.55">
<g style="mix-blend-mode:soft-light">
<rect width="31" height="31" transform="matrix(-1 0 0 1 155 -2)" fill="#F4F2FB"/>
<rect x="-0.5" y="0.5" width="30" height="30" transform="matrix(-1 0 0 1 154 -2)" stroke="#8C8C8C" stroke-opacity="0.32"/>
</g>
</g>
<g opacity="0.35">
<g style="mix-blend-mode:soft-light">
<rect width="31" height="31" transform="matrix(-1 0 0 1 186 -2)" fill="#F4F2FB"/>
<rect x="-0.5" y="0.5" width="30" height="30" transform="matrix(-1 0 0 1 185 -2)" stroke="#8C8C8C" stroke-opacity="0.32"/>
</g>
</g>
<g opacity="0.35">
<g style="mix-blend-mode:soft-light">
<rect width="31" height="31" transform="matrix(-1 0 0 1 155 29)" fill="#F4F2FB"/>
<rect x="-0.5" y="0.5" width="30" height="30" transform="matrix(-1 0 0 1 154 29)" stroke="#8C8C8C" stroke-opacity="0.32"/>
</g>
</g>
<g opacity="0.35">
<g style="mix-blend-mode:soft-light">
<rect width="31" height="31" transform="matrix(-1 0 0 1 124 60)" fill="#F4F2FB"/>
<rect x="-0.5" y="0.5" width="30" height="30" transform="matrix(-1 0 0 1 123 60)" stroke="#8C8C8C" stroke-opacity="0.32"/>
</g>
</g>
<g opacity="0.35">
<g style="mix-blend-mode:soft-light">
<rect width="31" height="31" transform="matrix(-1 0 0 1 93 91)" fill="#F4F2FB"/>
<rect x="-0.5" y="0.5" width="30" height="30" transform="matrix(-1 0 0 1 92 91)" stroke="#8C8C8C" stroke-opacity="0.32"/>
</g>
</g>
<g opacity="0.35">
<g style="mix-blend-mode:soft-light">
<rect width="31" height="31" transform="matrix(-1 0 0 1 62 122)" fill="#F4F2FB"/>
<rect x="-0.5" y="0.5" width="30" height="30" transform="matrix(-1 0 0 1 61 122)" stroke="#8C8C8C" stroke-opacity="0.32"/>
</g>
</g>
<g opacity="0.35">
<g style="mix-blend-mode:soft-light">
<rect width="31" height="31" transform="matrix(-1 0 0 1 31 153)" fill="#F4F2FB"/>
<rect x="-0.5" y="0.5" width="30" height="30" transform="matrix(-1 0 0 1 30 153)" stroke="#8C8C8C" stroke-opacity="0.32"/>
</g>
</g>
<g opacity="0.35">
<g style="mix-blend-mode:soft-light">
<rect width="31" height="31" transform="matrix(-1 0 0 1 217 -2)" fill="#F4F2FB"/>
<rect x="-0.5" y="0.5" width="30" height="30" transform="matrix(-1 0 0 1 216 -2)" stroke="#8C8C8C" stroke-opacity="0.32"/>
</g>
</g>
<g style="mix-blend-mode:soft-light">
<rect width="31" height="31" transform="matrix(-1 0 0 1 248 -2)" fill="#F4F2FB" fill-opacity="0.35"/>
<rect x="-0.5" y="0.5" width="30" height="30" transform="matrix(-1 0 0 1 247 -2)" stroke="#8C8C8C" stroke-opacity="0.32"/>
</g>
<g style="mix-blend-mode:soft-light">
<rect width="31" height="31" transform="matrix(-1 0 0 1 279 -2)" fill="#F4F2FB" fill-opacity="0.3"/>
<rect x="-0.5" y="0.5" width="30" height="30" transform="matrix(-1 0 0 1 278 -2)" stroke="#8C8C8C" stroke-opacity="0.32"/>
</g>
<g style="mix-blend-mode:soft-light">
<rect width="31" height="31" transform="matrix(-1 0 0 1 310 -2)" fill="#F4F2FB" fill-opacity="0.15"/>
<rect x="-0.5" y="0.5" width="30" height="30" transform="matrix(-1 0 0 1 309 -2)" stroke="#8C8C8C" stroke-opacity="0.32"/>
</g>
<g style="mix-blend-mode:soft-light">
<rect width="31" height="31" transform="matrix(-1 0 0 1 341 -2)" fill="#F4F2FB" fill-opacity="0.05"/>
<rect x="-0.5" y="0.5" width="30" height="30" transform="matrix(-1 0 0 1 340 -2)" stroke="#8C8C8C" stroke-opacity="0.32"/>
</g>
<g opacity="0.35">
<g style="mix-blend-mode:soft-light">
<rect width="31" height="31" transform="matrix(-1 0 0 1 186 29)" fill="#F4F2FB"/>
<rect x="-0.5" y="0.5" width="30" height="30" transform="matrix(-1 0 0 1 185 29)" stroke="#8C8C8C" stroke-opacity="0.32"/>
</g>
</g>
<g style="mix-blend-mode:soft-light">
<rect width="31" height="31" transform="matrix(-1 0 0 1 217 29)" fill="#F4F2FB" fill-opacity="0.35"/>
<rect x="-0.5" y="0.5" width="30" height="30" transform="matrix(-1 0 0 1 216 29)" stroke="#8C8C8C" stroke-opacity="0.32"/>
</g>
<g style="mix-blend-mode:soft-light">
<rect width="31" height="31" transform="matrix(-1 0 0 1 248 29)" fill="#F4F2FB" fill-opacity="0.3"/>
<rect x="-0.5" y="0.5" width="30" height="30" transform="matrix(-1 0 0 1 247 29)" stroke="#8C8C8C" stroke-opacity="0.32"/>
</g>
<g style="mix-blend-mode:soft-light">
<rect width="31" height="31" transform="matrix(-1 0 0 1 279 29)" fill="#F4F2FB" fill-opacity="0.15"/>
<rect x="-0.5" y="0.5" width="30" height="30" transform="matrix(-1 0 0 1 278 29)" stroke="#8C8C8C" stroke-opacity="0.32"/>
</g>
<g style="mix-blend-mode:soft-light">
<rect width="31" height="31" transform="matrix(-1 0 0 1 310 29)" fill="#F4F2FB" fill-opacity="0.05"/>
<rect x="-0.5" y="0.5" width="30" height="30" transform="matrix(-1 0 0 1 309 29)" stroke="#8C8C8C" stroke-opacity="0.32"/>
</g>
<g style="mix-blend-mode:soft-light">
<rect width="31" height="31" transform="matrix(-1 0 0 1 341 29)" fill="#F4F2FB" fill-opacity="0.05"/>
<rect x="-0.5" y="0.5" width="30" height="30" transform="matrix(-1 0 0 1 340 29)" stroke="#8C8C8C" stroke-opacity="0.32"/>
</g>
<g opacity="0.35">
<g style="mix-blend-mode:soft-light">
<rect width="31" height="31" transform="matrix(-1 0 0 1 155 60)" fill="#F4F2FB"/>
<rect x="-0.5" y="0.5" width="30" height="30" transform="matrix(-1 0 0 1 154 60)" stroke="#8C8C8C" stroke-opacity="0.32"/>
</g>
</g>
<g style="mix-blend-mode:soft-light">
<rect width="31" height="31" transform="matrix(-1 0 0 1 186 60)" fill="#F4F2FB" fill-opacity="0.35"/>
<rect x="-0.5" y="0.5" width="30" height="30" transform="matrix(-1 0 0 1 185 60)" stroke="#8C8C8C" stroke-opacity="0.32"/>
</g>
<g style="mix-blend-mode:soft-light">
<rect width="31" height="31" transform="matrix(-1 0 0 1 217 60)" fill="#F4F2FB" fill-opacity="0.3"/>
<rect x="-0.5" y="0.5" width="30" height="30" transform="matrix(-1 0 0 1 216 60)" stroke="#8C8C8C" stroke-opacity="0.32"/>
</g>
<g style="mix-blend-mode:soft-light">
<rect width="31" height="31" transform="matrix(-1 0 0 1 248 60)" fill="#F4F2FB" fill-opacity="0.15"/>
<rect x="-0.5" y="0.5" width="30" height="30" transform="matrix(-1 0 0 1 247 60)" stroke="#8C8C8C" stroke-opacity="0.32"/>
</g>
<g style="mix-blend-mode:soft-light">
<rect width="31" height="31" transform="matrix(-1 0 0 1 279 60)" fill="#F4F2FB" fill-opacity="0.05"/>
<rect x="-0.5" y="0.5" width="30" height="30" transform="matrix(-1 0 0 1 278 60)" stroke="#8C8C8C" stroke-opacity="0.32"/>
</g>
<g style="mix-blend-mode:soft-light">
<rect width="31" height="31" transform="matrix(-1 0 0 1 310 60)" fill="#F4F2FB" fill-opacity="0.05"/>
<rect x="-0.5" y="0.5" width="30" height="30" transform="matrix(-1 0 0 1 309 60)" stroke="#8C8C8C" stroke-opacity="0.32"/>
</g>
<g opacity="0.35">
<g style="mix-blend-mode:soft-light">
<rect width="31" height="31" transform="matrix(-1 0 0 1 124 91)" fill="#F4F2FB"/>
<rect x="-0.5" y="0.5" width="30" height="30" transform="matrix(-1 0 0 1 123 91)" stroke="#8C8C8C" stroke-opacity="0.32"/>
</g>
</g>
<g style="mix-blend-mode:soft-light">
<rect width="31" height="31" transform="matrix(-1 0 0 1 155 91)" fill="#F4F2FB" fill-opacity="0.35"/>
<rect x="-0.5" y="0.5" width="30" height="30" transform="matrix(-1 0 0 1 154 91)" stroke="#8C8C8C" stroke-opacity="0.32"/>
</g>
<g style="mix-blend-mode:soft-light">
<rect width="31" height="31" transform="matrix(-1 0 0 1 186 91)" fill="#F4F2FB" fill-opacity="0.3"/>
<rect x="-0.5" y="0.5" width="30" height="30" transform="matrix(-1 0 0 1 185 91)" stroke="#8C8C8C" stroke-opacity="0.32"/>
</g>
<g style="mix-blend-mode:soft-light">
<rect width="31" height="31" transform="matrix(-1 0 0 1 217 91)" fill="#F4F2FB" fill-opacity="0.15"/>
<rect x="-0.5" y="0.5" width="30" height="30" transform="matrix(-1 0 0 1 216 91)" stroke="#8C8C8C" stroke-opacity="0.32"/>
</g>
<g style="mix-blend-mode:soft-light">
<rect width="31" height="31" transform="matrix(-1 0 0 1 248 91)" fill="#F4F2FB" fill-opacity="0.05"/>
<rect x="-0.5" y="0.5" width="30" height="30" transform="matrix(-1 0 0 1 247 91)" stroke="#8C8C8C" stroke-opacity="0.32"/>
</g>
<g opacity="0.35">
<g style="mix-blend-mode:soft-light">
<rect width="31" height="31" transform="matrix(-1 0 0 1 93 122)" fill="#F4F2FB"/>
<rect x="-0.5" y="0.5" width="30" height="30" transform="matrix(-1 0 0 1 92 122)" stroke="#8C8C8C" stroke-opacity="0.32"/>
</g>
</g>
<g opacity="0.35">
<g style="mix-blend-mode:soft-light">
<rect width="31" height="31" transform="matrix(-1 0 0 1 62 153)" fill="#F4F2FB"/>
<rect x="-0.5" y="0.5" width="30" height="30" transform="matrix(-1 0 0 1 61 153)" stroke="#8C8C8C" stroke-opacity="0.32"/>
</g>
</g>
<g style="mix-blend-mode:soft-light">
<rect width="31" height="31" transform="matrix(-1 0 0 1 124 122)" fill="#F4F2FB" fill-opacity="0.35"/>
<rect x="-0.5" y="0.5" width="30" height="30" transform="matrix(-1 0 0 1 123 122)" stroke="#8C8C8C" stroke-opacity="0.32"/>
</g>
<g style="mix-blend-mode:soft-light">
<rect width="31" height="31" transform="matrix(-1 0 0 1 155 122)" fill="#F4F2FB" fill-opacity="0.3"/>
<rect x="-0.5" y="0.5" width="30" height="30" transform="matrix(-1 0 0 1 154 122)" stroke="#8C8C8C" stroke-opacity="0.32"/>
</g>
<g opacity="0.65">
<g style="mix-blend-mode:soft-light">
<rect width="31" height="31" transform="matrix(-1 0 0 1 124 -2)" fill="#F4F2FB"/>
<rect x="-0.5" y="0.5" width="30" height="30" transform="matrix(-1 0 0 1 123 -2)" stroke="#8C8C8C" stroke-opacity="0.32"/>
</g>
</g>
<g opacity="0.75">
<g style="mix-blend-mode:soft-light">
<rect width="31" height="31" transform="matrix(-1 0 0 1 93 -2)" fill="#F4F2FB"/>
<rect x="-0.5" y="0.5" width="30" height="30" transform="matrix(-1 0 0 1 92 -2)" stroke="#8C8C8C" stroke-opacity="0.32"/>
</g>
</g>
</g>
</g>
</svg>
