<svg xmlns="http://www.w3.org/2000/svg" width="831" height="251" fill="none" viewBox="0 0 831 251"><path fill="#fff" fill-rule="evenodd" d="M483.2 151.1C447.9 151.1 440.4 123.7 440.4 100.7V41.3H461.4V101.5C461.4 120.9 471.1 132.5 487.3 132.5C506.1 132.5 517 117.3 518 111.5V111.3V41.3H538.5V148.2H525.3L522 133L518.3 136.3C518.1 136.5 517.8 136.8 517.4 137.1C514 140.6 503 151.1 483.2 151.1V151.1ZM276.3 148.3V88.1C276.3 68.6 266.7 57.4 250.1 57.4C233.7 57.4 223.4 67.7 220.1 71.1C219.7 71.5 219.5 71.7 219.3 71.9L218 73L218.4 74.7C218.9 76.9 219.2 81.8 219.2 87.6V148.4H199.3V88.1C199.3 68.3 189.8 57.4 172.5 57.4C154.7 57.4 143.9 71.1 142 76.1L141.8 76.6V148.3H121V46.9L133.5 39.8L136.4 58.3L141.2 53.5C150.8 43.8 163.3 38.6 176.3 38.6C191.2 38.6 202.3 44.1 210.3 55.4L212.3 58.2L214.7 55.8C216.5 54 232.5 38.6 253.5 38.6C289.5 38.6 297.1 66.1 297.1 89.2V148.3H276.3V148.3ZM560.3 148.3V46.9L572.8 39.8L575.7 58.3L580.5 53.5C590.1 43.8 602.6 38.6 615.6 38.6C621.4 38.6 626.7 39.5 631.4 41.2L623.3 59.5C619.9 58.1 616 57.4 611.6 57.4C593.8 57.4 583 71.1 581.1 76.1L580.9 76.6V148.3H560.3V148.3ZM53.7 151.1C22.6 151.1 0 127.4 0 94.8C0 62.7 23 38.5 53.4 38.5C81.3 38.5 102.3 59.7 102.3 87.7C102.3 91.8 101.3 95.3 100.7 97.2H46.3L81.9 82.1C80.9 66.8 68 54.4 53.2 54.4C45.1 54.4 36.8 58.4 30.6 65.3C22.5 74.3 18.8 87.1 20.3 101.2C22.3 120.2 36.4 133 55.4 133C69.4 133 80.4 126.1 85.1 122.6L95.2 135.8C90.2 140.2 75.2 151.1 53.7 151.1ZM782.2 151.1C751.1 151.1 728.5 127.4 728.5 94.8C728.5 62.7 751.5 38.5 781.9 38.5C809.8 38.5 830.8 59.7 830.8 87.7C830.8 93.2 829.2 98.4 828.7 100.1L748.6 100.3C749.5 116.1 763.2 133.1 783.8 133.1C796.8 133.1 808.6 126 813.4 122.6L823.6 135.9C819 140.2 804.4 151.1 782.2 151.1V151.1ZM781.6 54.5C765.2 54.5 751.2 67 749.3 83L810.9 83.2C810 67.9 796.5 54.5 781.6 54.5V54.5ZM677.1 151.1C658.1 151.1 644.7 142.3 640.2 138.8L647.5 125.2C652.5 128.3 664 134.3 677.3 134.3C687.6 134.3 693.9 129.5 693.9 121.9C693.9 112.1 685.5 107.8 670.6 101C649.5 91.8 640.2 81.3 640.2 66.7C640.2 53.2 651.4 38.6 675.9 38.6C692.3 38.6 705.4 45.8 710.2 48.8L702.7 63C698 60.5 687.6 55.7 675.9 55.7C661.5 55.7 660.4 64.3 660.4 67C660.4 76.2 668.7 79.8 680.1 84.8C701 94 715.8 101.9 715.8 121C715.9 138.1 699.2 151.1 677.1 151.1V151.1ZM372.7 151.1C352 151.1 339.2 136.5 339.1 136.3L335.2 131.8L332.1 148.3H318.7V9.9L340 0V45.8L343.8 44.5C344.2 44.4 344.9 44.1 345.8 43.7C349.9 42 358.5 38.4 370 38.4C399.5 38.4 422.6 63.1 422.6 94.7C422.5 126.4 400.7 151.1 372.7 151.1V151.1ZM367.1 57.3C351.8 57.3 341.5 64 341 64.2L339.7 65V113.3L340 113.9C340.3 114.7 348.7 132.5 369.3 132.5C387.9 132.5 402 116.3 402 94.7C402.1 73.4 387 57.3 367.1 57.3V57.3Z" clip-rule="evenodd"/></svg>