<svg width="352" height="192" viewBox="0 0 352 192" fill="none" xmlns="http://www.w3.org/2000/svg">
<mask id="mask0" mask-type="alpha" maskUnits="userSpaceOnUse" x="0" y="0" width="352" height="192">
<rect width="352" height="192" fill="#43279B"/>
</mask>
<g mask="url(#mask0)">
<rect x="298" width="54" height="54" fill="#9C8FDA"/>
<rect x="298.5" y="0.5" width="53" height="53" stroke="#ECE9F3" stroke-opacity="0.32"/>
<rect x="298" y="54" width="54" height="54" fill="#9C8FDA"/>
<rect x="298.5" y="54.5" width="53" height="53" stroke="#ECE9F3" stroke-opacity="0.32"/>
<rect x="244" width="54" height="54" fill="#9C8FDA"/>
<rect x="244.5" y="0.5" width="53" height="53" stroke="#ECE9F3" stroke-opacity="0.32"/>
<rect x="244" y="54" width="54" height="54" fill="#977EDE"/>
<rect x="244.5" y="54.5" width="53" height="53" stroke="#ECE9F3" stroke-opacity="0.32"/>
<rect x="298" y="108" width="54" height="54" fill="#977EDE"/>
<rect x="298.5" y="108.5" width="53" height="53" stroke="#ECE9F3" stroke-opacity="0.32"/>
<rect x="190" y="54" width="54" height="54" fill="#977EDE"/>
<rect x="190.5" y="54.5" width="53" height="53" stroke="#ECE9F3" stroke-opacity="0.32"/>
<rect x="244" y="108" width="54" height="54" fill="#977EDE"/>
<rect x="244.5" y="108.5" width="53" height="53" stroke="#ECE9F3" stroke-opacity="0.32"/>
<rect x="190" width="54" height="54" fill="#977EDE"/>
<rect x="190.5" y="0.5" width="53" height="53" stroke="#ECE9F3" stroke-opacity="0.32"/>
<rect x="136" width="54" height="54" fill="#977EDE"/>
<rect x="136.5" y="0.5" width="53" height="53" stroke="#ECE9F3" stroke-opacity="0.32"/>
<rect x="82" width="54" height="54" fill="#6C55CE"/>
<rect x="82.5" y="0.5" width="53" height="53" stroke="#ECE9F3" stroke-opacity="0.32"/>
<rect x="136" y="54" width="54" height="54" fill="#6C55CE"/>
<rect x="136.5" y="54.5" width="53" height="53" stroke="#ECE9F3" stroke-opacity="0.32"/>
<rect x="190" y="108" width="54" height="54" fill="#6C55CE"/>
<rect x="190.5" y="108.5" width="53" height="53" stroke="#ECE9F3" stroke-opacity="0.32"/>
<rect x="82" y="54" width="54" height="54" fill="#6C55CE"/>
<rect x="82.5" y="54.5" width="53" height="53" stroke="#ECE9F3" stroke-opacity="0.32"/>
<rect x="136" y="108" width="54" height="54" fill="#6C55CE"/>
<rect x="136.5" y="108.5" width="53" height="53" stroke="#ECE9F3" stroke-opacity="0.32"/>
<rect x="28" width="54" height="54" fill="#6C55CE"/>
<rect x="28.5" y="0.5" width="53" height="53" stroke="#ECE9F3" stroke-opacity="0.32"/>
</g>
</svg>
