<svg width="130" height="113" viewBox="0 0 130 113" fill="none" xmlns="http://www.w3.org/2000/svg">
<path fill-rule="evenodd" clip-rule="evenodd" d="M75.6778 100.453L77.4374 98.3921C78.5579 97.0793 80.1587 95.2033 82.0797 92.9504C85.922 88.4442 91.0442 82.4319 96.1657 76.4048C101.289 70.3756 106.405 64.3397 110.237 59.7835C111.256 58.571 112.181 57.4677 112.989 56.5C112.181 55.5323 111.256 54.429 110.237 53.2165C106.405 48.6603 101.289 42.6244 96.1657 36.5952C91.0442 30.5681 85.922 24.5558 82.0797 20.0497C80.1587 17.7968 78.5579 15.9207 77.4374 14.6079L75.6778 12.5469C73.1669 9.60733 73.514 5.1883 76.4536 2.67739C79.3932 0.166487 83.8122 0.514586 86.3231 3.45419C86.3231 3.45419 86.3226 3.4536 81 8L86.3231 3.45419L88.086 5.51904C89.2077 6.83325 90.81 8.71108 92.7328 10.966C96.578 15.4755 101.706 21.4944 106.834 27.5298C111.961 33.5631 117.095 39.621 120.951 44.2054C122.876 46.4948 124.496 48.4324 125.64 49.8206C126.208 50.5095 126.683 51.0926 127.026 51.526C127.191 51.7337 127.368 51.9611 127.522 52.1697C127.589 52.2612 127.72 52.4409 127.858 52.6557C127.919 52.7507 128.064 52.9789 128.218 53.2791C128.293 53.4255 128.433 53.7091 128.57 54.0809L128.571 54.0851C128.658 54.3218 129 55.2532 129 56.5C129 57.7467 128.658 58.6782 128.571 58.9149L128.57 58.9191C128.433 59.2909 128.293 59.5745 128.218 59.7209C128.064 60.0212 127.919 60.2494 127.858 60.3443C127.72 60.5591 127.589 60.7388 127.522 60.8303C127.368 61.0389 127.191 61.2663 127.026 61.474C126.683 61.9074 126.208 62.4905 125.64 63.1794C124.496 64.5676 122.876 66.5053 120.951 68.7946C117.095 73.379 111.961 79.4369 106.834 85.4702C101.706 91.5056 96.578 97.5245 92.7327 102.034C90.81 104.289 89.2077 106.167 88.086 107.481L86.3231 109.546L81 105L75.6778 100.453ZM81 8C75.6774 12.5464 75.6778 12.5469 75.6778 12.5469L81 8Z" fill="#9CB4CF" fill-opacity="0.33"/>
<path d="M75.6778 100.453C73.1669 103.393 73.514 107.812 76.4536 110.323C79.3932 112.834 83.8122 112.485 86.3231 109.546C86.3231 109.546 86.3226 109.546 81 105C75.6774 100.454 75.6778 100.453 75.6778 100.453Z" fill="#9CB4CF" fill-opacity="0.33"/>
<path d="M14 56C14 59.866 10.866 63 7 63C3.13401 63 0 59.866 0 56C0 52.134 3.13401 49 7 49C10.866 49 14 52.134 14 56Z" fill="#9CB4CF" fill-opacity="0.33"/>
<path d="M40 56C40 59.866 36.866 63 33 63C29.134 63 26 59.866 26 56C26 52.134 29.134 49 33 49C36.866 49 40 52.134 40 56Z" fill="#9CB4CF" fill-opacity="0.33"/>
<path d="M59 63C62.866 63 66 59.866 66 56C66 52.134 62.866 49 59 49C55.134 49 52 52.134 52 56C52 59.866 55.134 63 59 63Z" fill="#9CB4CF" fill-opacity="0.33"/>
<path d="M92 56C92 59.866 88.866 63 85 63C81.134 63 78 59.866 78 56C78 52.134 81.134 49 85 49C88.866 49 92 52.134 92 56Z" fill="#9CB4CF" fill-opacity="0.33"/>
</svg>
