<svg xmlns="http://www.w3.org/2000/svg" xmlns:xlink="http://www.w3.org/1999/xlink" width="343" height="125" version="1.1" viewBox="0 0 343 125"><title>mlh-logo-grayscale</title><desc>Created with Sketch.</desc><g id="Page-1" fill="none" fill-rule="evenodd" stroke="none" stroke-width="1"><g id="mlh-logo-grayscale" fill="#798b96"><g id="Layer_1_1_"><g><path id="Shape" d="M109.8,1.5 C112.1,2.5 114.1,3.9 115.8,5.6 C117.5,7.3 118.8,9.3 119.9,11.6 C120.9,13.9 121.4,16.4 121.4,19 L121.4,113.8 C121.4,114.7 121.1,115.4 120.5,116 C119.9,116.6 119.2,116.9 118.3,116.9 L95.6,116.9 C94.7,116.9 94,116.6 93.5,116 C93,115.4 92.7,114.7 92.7,113.8 L92.7,27.6 L74.4,27.6 L74.4,113.8 C74.4,114.7 74.1,115.4 73.6,116 C73.1,116.6 72.3,116.9 71.5,116.9 L50.9,116.9 C50,116.9 49.3,116.6 48.7,116 C48.1,115.4 47.8,114.7 47.8,113.8 L47.8,27.6 L29.5,27.6 L29.5,113.8 C29.5,115.9 28.5,116.9 26.4,116.9 L3.9,116.9 C1.8,116.9 0.8,115.9 0.8,113.8 L0.8,3.1 C0.8,1 1.8,0 3.9,0 L102.3,0 C105,0 107.4,0.5 109.8,1.5 L109.8,1.5 Z"/><path id="Shape" d="M220.3,88.5 C221.2,88.5 222,88.8 222.5,89.4 C223.1,90 223.4,90.8 223.4,91.7 L223.4,113.8 C223.4,114.7 223.1,115.4 222.5,116.1 C221.9,116.7 221.2,117 220.3,117 L142.6,117 C140.4,117 139.3,115.9 139.3,113.8 L139.3,3.2 C139.3,1.1 140.4,0 142.6,0 L166.4,0 C168.6,0 169.7,1.1 169.7,3.2 L169.7,85.6 C169.7,86.5 170,87.2 170.7,87.8 C171.3,88.4 172.1,88.6 173,88.6 L220.3,88.6 L220.3,88.5 L220.3,88.5 L220.3,88.5 Z"/><path id="Shape" d="M339.7,0 C340.6,0 341.4,0.3 342,0.9 C342.6,1.5 343,2.3 343,3.2 L343,114.1 C343,115 342.7,115.7 342,116.4 C341.4,117 340.6,117.3 339.7,117.3 L315.5,117.3 C314.6,117.3 313.8,117 313.2,116.4 C312.6,115.8 312.2,115 312.2,114.1 L312.2,75.4 C312.2,74.5 311.9,73.8 311.3,73.2 C310.7,72.6 310,72.4 309,72.4 L275.1,72.4 C274.2,72.4 273.4,72.7 272.8,73.2 C272.2,73.8 271.8,74.5 271.8,75.4 L271.8,114.1 C271.8,116.2 270.7,117.3 268.5,117.3 L244.5,117.3 C242.3,117.3 241.2,116.2 241.2,114.1 L241.2,3.2 C241.2,1.1 242.3,0 244.5,0 L268.5,0 C270.7,0 271.8,1.1 271.8,3.2 L271.8,40.7 C271.8,42.8 272.9,43.9 275.1,43.9 L309,43.9 C309.9,43.9 310.7,43.6 311.3,43 C311.9,42.4 312.2,41.6 312.2,40.7 L312.2,3.2 C312.2,2.3 312.5,1.6 313.2,0.9 C313.8,0.3 314.6,0 315.5,0 L339.7,0 L339.7,0 Z"/></g></g></g></g></svg>