<svg xmlns="http://www.w3.org/2000/svg" width="283" height="283" fill="#8492a6" viewBox="0 0 283 283"><path fill-rule="evenodd" d="M78.7976 32.324C71.4616 35.342 66.6316 39.127 62.8706 44.806C56.6506 54.196 56.8176 51.331 57.1106 143.567L57.3776 227.524L60.6696 234.211C64.2496 241.483 69.3666 246.562 76.8016 250.226L81.3776 252.481H142.878H204.378L209.662 249.697C216.387 246.153 221.871 240.669 224.955 234.404L227.378 229.481L227.648 160.933L227.918 92.384L224.719 87.433C219.745 79.732 176.418 36.818 169.878 33.115L164.378 30L124.378 30.014C84.9656 30.028 84.2956 30.062 78.7976 32.324ZM156.677 48.009C159.573 50.707 159.672 51.42 160.268 73.981C160.95 99.778 159.077 97.981 185.286 97.981C203.74 97.981 204.731 98.081 207.98 100.271L211.378 102.56L211.651 162.021C211.892 214.457 211.736 221.98 210.329 225.703C208.445 230.689 204.259 234.503 199.097 235.937C194.042 237.341 91.7136 237.341 86.6586 235.937C81.8556 234.603 77.5666 230.952 75.3736 226.332C73.7926 222.999 73.5896 217.006 73.1816 161.57C72.9346 127.971 73.1066 90.766 73.5646 78.891C74.3926 57.387 74.4066 57.287 77.1776 53.655C82.7276 46.377 83.7466 46.207 122.439 46.083C153.339 45.985 154.58 46.054 156.677 48.009ZM94.3326 118.436C91.0846 121.683 91.0206 126.828 94.1916 129.807C96.4996 131.975 96.6396 131.981 143.018 131.981H189.529L191.704 129.667C194.685 126.493 194.562 121.574 191.423 118.436L188.969 115.981H142.878H96.7866L94.3326 118.436ZM94.0516 153.295C90.8806 156.671 91.1006 162.225 94.5126 164.908C97.0696 166.92 98.2326 166.981 133.931 166.981C154.162 166.981 171.443 166.701 172.333 166.36C174.895 165.377 177.091 160.226 176.362 156.909C175.06 150.981 175.063 150.981 133.83 150.981H96.2266L94.0516 153.295ZM94.3326 187.436C91.2386 190.529 91.0486 195.714 93.9166 198.792L95.9556 200.981H142.743H189.529L191.704 198.667C193.846 196.386 194.473 192.695 193.257 189.526C191.588 185.178 189.36 184.981 141.882 184.981H96.7866L94.3326 187.436Z" clip-rule="evenodd"/></svg>