<svg xmlns="http://www.w3.org/2000/svg" width="1011" height="598" fill="none" viewBox="0 0 1011 598"><rect width="1011" height="597.409" fill="#17171D" rx="25"/><path fill="#EC3750" d="M217.913 460.783H235.546V432.218H263.529V460.783H281.161V388.219H263.529V416.669H235.546V388.219H217.913V460.783Z"/><path fill="#EC3750" d="M289.066 435.443C289.066 452.835 298.962 462.51 310.679 462.51C317.391 462.51 323.42 459.746 327.06 454.102V460.783H344.578V410.104H327.06V416.784C323.42 411.14 317.391 408.376 310.679 408.376C298.962 408.376 289.066 418.051 289.066 435.443ZM316.936 422.773C323.192 422.773 327.288 427.381 327.288 435.443C327.288 443.506 323.079 448.113 316.936 448.113C310.338 448.113 306.584 442.699 306.584 435.443C306.584 428.187 310.338 422.773 316.936 422.773Z"/><path fill="#EC3750" d="M369.677 435.443C369.677 426.574 374 422.197 379.233 422.197C383.328 422.197 387.082 424.847 387.537 430.49H405.51C403.122 413.789 389.926 408.376 379.233 408.376C365.81 408.376 352.159 416.784 352.159 435.443C352.159 454.102 365.81 462.51 379.233 462.51C390.04 462.51 403.235 457.097 405.51 440.396H387.537C386.968 445.924 383.328 448.689 379.233 448.689C374 448.689 369.677 444.312 369.677 435.443Z"/><path fill="#EC3750" d="M412.653 460.783H430.171V438.898L446.438 460.783H467.824L446.666 434.061L466.232 410.104H447.121L430.171 430.03V382.46H412.653V460.783Z"/><path fill="#EC3750" d="M543.454 432.218C541.52 441.663 535.946 446.385 526.618 446.385C515.925 446.385 508.645 437.171 508.645 424.501C508.645 411.831 515.811 402.617 526.618 402.617C535.719 402.617 541.406 407.57 543.226 416.784H561.314C556.877 392.942 540.838 386.492 526.618 386.492C505.118 386.492 491.013 402.502 491.013 424.501C491.013 446.5 505.801 462.51 526.618 462.51C540.838 462.51 556.763 456.751 561.314 432.218H543.454Z"/><path fill="#EC3750" d="M568.845 460.783H586.363V382.46H568.845V460.783Z"/><path fill="#EC3750" d="M613.339 410.104H595.821V442.354C595.821 455.254 602.987 462.51 613.68 462.51C619.14 462.51 624.487 459.746 627.786 454.217V460.783H645.304V410.104H627.786V435.789C627.786 443.966 624.601 447.537 620.505 447.537C616.183 447.537 613.339 444.197 613.339 437.286V410.104Z"/><path fill="#EC3750" d="M711.007 435.443C711.007 418.051 701.11 408.376 689.393 408.376C682.682 408.376 676.653 411.14 673.012 416.784V382.46H655.494V460.783H673.012V454.102C676.653 459.746 682.682 462.51 689.393 462.51C701.11 462.51 711.007 452.835 711.007 435.443ZM683.137 422.773C689.735 422.773 693.488 428.187 693.488 435.443C693.488 442.699 689.735 448.113 683.137 448.113C676.994 448.113 672.785 443.39 672.785 435.443C672.785 427.496 676.88 422.773 683.137 422.773Z"/><path fill="#EC3750" d="M739.255 460.783H770.083C787.374 460.783 795.678 451.683 795.678 439.014C795.678 433.255 793.289 426.229 781.914 422.773C789.99 419.433 792.834 413.329 792.834 407.454C792.834 396.973 786.009 388.219 767.922 388.219H739.255V460.783ZM766.102 401.465C771.79 401.465 775.088 403.769 775.088 409.182C775.088 415.171 772.245 417.59 765.419 417.59H756.888V401.465H766.102ZM768.036 430.26C774.292 430.26 777.932 433.139 777.932 439.014C777.932 444.657 774.178 447.537 767.808 447.537H756.888V430.26H768.036Z"/><path fill="#EC3750" d="M801.298 435.443C801.298 452.835 811.195 462.51 822.912 462.51C829.623 462.51 835.653 459.746 839.293 454.102V460.783H856.811V410.104H839.293V416.784C835.653 411.14 829.623 408.376 822.912 408.376C811.195 408.376 801.298 418.051 801.298 435.443ZM829.169 422.773C835.425 422.773 839.52 427.381 839.52 435.443C839.52 443.506 835.311 448.113 829.169 448.113C822.571 448.113 818.817 442.699 818.817 435.443C818.817 428.187 822.571 422.773 829.169 422.773Z"/><path fill="#EC3750" d="M867.008 460.783H884.526V433.024C884.526 425.883 887.825 422.773 893.172 422.773C898.063 422.773 900.68 426.114 900.68 433.024V460.783H918.198V431.297C918.198 416.899 910.918 408.376 899.201 408.376C892.831 408.376 887.712 411.371 884.526 416.784V410.104H867.008V460.783Z"/><path fill="#EC3750" d="M927.663 460.783H945.181V438.898L961.448 460.783H982.834L961.676 434.061L981.242 410.104H962.131L945.181 430.03V382.46H927.663V460.783Z"/><rect width="385.425" height="84.722" x="600.374" y="487.711" fill="#8492A6" fill-opacity=".125" rx="35.5"/><path fill="#8492A6" d="M642.121 543.795H648.478V524.593L657.8 543.795H667.723V516.732H661.366V536.363L651.829 516.732H642.121V543.795Z"/><path fill="#8492A6" d="M684.844 544.439C692.49 544.439 699.278 538.812 699.278 530.263C699.278 521.715 692.447 516.087 684.844 516.087C677.24 516.087 670.453 521.715 670.453 530.263C670.453 538.812 677.198 544.439 684.844 544.439ZM684.844 538.425C680.634 538.425 677.112 535.203 677.112 530.263C677.112 525.323 680.634 522.101 684.844 522.101C689.054 522.101 692.619 525.323 692.619 530.263C692.619 535.203 689.054 538.425 684.844 538.425Z"/><path fill="#8492A6" d="M706.52 516.732H699.432L706.219 543.795H714.424L718.505 527.815L722.586 543.795H730.791L737.578 516.732H730.49L726.624 536.062L721.813 516.732H715.198L710.386 536.062L706.52 516.732Z"/><path fill="#8492A6" d="M766.699 543.795H773.916L764.293 516.732H755.702L746.165 543.795H753.21L754.886 538.554H765.024L766.699 543.795ZM756.604 533.184L759.955 522.746L763.305 533.184H756.604Z"/><path fill="#8492A6" d="M776.279 543.795H784.742C794.321 543.795 801.066 538.984 801.066 530.263C801.066 521.543 794.321 516.732 784.742 516.732H776.279V543.795ZM785.558 537.996H782.938V522.531H785.558C790.885 522.531 794.407 525.581 794.407 530.263C794.407 534.946 790.885 537.996 785.558 537.996Z"/><path fill="#8492A6" d="M803.841 543.795H810.499V533.141H821.067V543.795H827.725V516.732H821.067V527.342H810.499V516.732H803.841V543.795Z"/><path fill="#8492A6" d="M831.612 543.795H850.084V538.21H838.271V532.841H849.44V527.256H838.271V522.316H850.084V516.732H831.612V543.795Z"/><path fill="#8492A6" d="M872.547 525.28C872.547 519.395 868.595 516.13 862.71 516.13C857.039 516.13 853.173 519.309 853.173 524.077C853.173 533.485 866.49 531.853 866.49 536.535C866.49 538.038 865.201 538.941 863.053 538.941C860.605 538.941 859.316 537.609 859.144 534.946H852.4C852.4 541.046 857.039 544.439 863.096 544.439C868.938 544.439 873.062 541.174 873.062 536.019C873.062 526.354 859.703 528.33 859.703 523.777C859.703 522.531 860.819 521.629 862.753 521.629C864.428 521.629 865.974 522.445 866.017 525.28H872.547Z"/><path fill="#8492A6" d="M876.505 543.795H883.163V516.732H876.505V543.795Z"/><path fill="#8492A6" d="M892.824 516.732H885.521L894.456 543.795H902.876L911.768 516.732H904.723L898.795 537.05L892.824 516.732Z"/><path fill="#8492A6" d="M913.92 543.795H932.392V538.21H920.578V532.841H931.747V527.256H920.578V522.316H932.392V516.732H913.92V543.795Z"/><path fill="#8492A6" d="M937.328 535.762H941.194L942.483 521.886V516.732H936.039V521.886L937.328 535.762ZM939.218 544.439C941.237 544.439 942.869 542.807 942.869 540.788C942.869 538.726 941.237 537.136 939.218 537.136C937.199 537.136 935.566 538.726 935.566 540.788C935.566 542.807 937.199 544.439 939.218 544.439Z"/><mask id="mask0_202_58" width="121" height="122" x="850" y="42" maskUnits="userSpaceOnUse" style="mask-type:alpha"><path fill="#000" fill-rule="evenodd" d="M910.938 163.065C958.968 163.065 970.975 151.057 970.975 103.027C970.975 54.9972 958.968 42.9897 910.938 42.9897C862.908 42.9897 850.9 54.9972 850.9 103.027C850.9 151.057 862.908 163.065 910.938 163.065Z" clip-rule="evenodd"/></mask><g mask="url(#mask0_202_58)"><rect width="120.075" height="120.075" x="850.9" y="42.99" fill="url(#paint0_radial_202_58)"/><path fill="url(#paint1_radial_202_58)" fill-rule="evenodd" d="M954.324 146.414C961.242 139.496 964.408 127.089 964.408 103.027C964.408 78.9653 961.242 66.5579 954.324 59.6405C947.407 52.7231 935 49.5563 910.938 49.5563C886.876 49.5563 874.468 52.7231 867.551 59.6405C860.634 66.5579 857.467 78.9653 857.467 103.027C857.467 127.089 860.634 139.496 867.551 146.414C874.468 153.331 886.876 156.498 910.938 156.498C935 156.498 947.407 153.331 954.324 146.414ZM970.975 103.027C970.975 151.057 958.968 163.065 910.938 163.065C862.908 163.065 850.9 151.057 850.9 103.027C850.9 54.9972 862.908 42.9897 910.938 42.9897C958.968 42.9897 970.975 54.9972 970.975 103.027Z" clip-rule="evenodd"/><path fill="#EF4B61" fill-rule="evenodd" d="M910.939 73.0759C910.785 73.1284 910.549 73.2185 910.211 73.3686C909.314 73.7551 908.248 74.3104 906.879 75.0946C904.095 76.6856 900.609 78.9333 896.687 81.7025C892.159 84.8968 890.107 86.5051 887.55 88.5095L887.549 88.5096L887.549 88.5097L887.549 88.5097C885.655 89.9947 883.483 91.6971 879.821 94.4229C878.357 95.8901 875.978 95.8901 874.515 94.4229C873.048 92.9595 873.048 90.5805 874.515 89.1171C882.797 82.3892 884.294 81.2672 892.357 75.5712C896.41 72.7119 900.196 70.2691 903.157 68.5768C904.661 67.7175 906.083 66.9821 907.198 66.4943C908.181 66.0628 909.596 65.5037 910.939 65.5037C912.282 65.5037 913.697 66.0628 914.68 66.4943C915.794 66.9821 917.217 67.7175 918.721 68.5768C921.682 70.2691 925.468 72.7119 929.52 75.5712C937.584 81.2672 939.08 82.3892 947.363 89.1171C948.83 90.5805 948.83 92.9595 947.363 94.4229C945.899 95.8901 943.52 95.8901 942.057 94.4229C938.395 91.6971 936.223 89.9947 934.328 88.5097L934.328 88.5097L934.328 88.5097C931.771 86.5052 929.719 84.8969 925.19 81.7025C921.269 78.9333 917.783 76.6856 914.999 75.0946C913.629 74.3104 912.564 73.7551 911.667 73.3686C911.329 73.2185 911.093 73.1284 910.939 73.0759ZM877.166 133.046C877.166 130.974 878.847 129.293 880.919 129.293H940.956C943.027 129.293 944.708 130.974 944.708 133.046C944.708 135.117 943.027 136.798 940.956 136.798H880.919C878.847 136.798 877.166 135.117 877.166 133.046ZM907.185 121.789C907.185 123.86 908.866 125.541 910.937 125.541C913.009 125.541 914.69 123.86 914.69 121.789V95.5224C914.69 93.4511 913.009 91.77 910.937 91.77C908.866 91.77 907.185 93.4511 907.185 95.5224V121.789ZM929.699 125.541C927.628 125.541 925.947 123.86 925.947 121.789V95.5224C925.947 93.4511 927.628 91.77 929.699 91.77C931.77 91.77 933.451 93.4511 933.451 95.5224V121.789C933.451 123.86 931.77 125.541 929.699 125.541ZM888.423 121.789C888.423 123.86 890.104 125.541 892.176 125.541C894.247 125.541 895.928 123.86 895.928 121.789V95.5224C895.928 93.4511 894.247 91.77 892.176 91.77C890.104 91.77 888.423 93.4511 888.423 95.5224V121.789Z" clip-rule="evenodd"/></g><g clip-path="url(#clip0_202_58)"><mask id="mask1_202_58" width="157" height="104" x="96" y="180" maskUnits="userSpaceOnUse" style="mask-type:alpha"><path fill="#D1CAB9" d="M231.466 180.853H116.899C105.554 180.853 96.3563 189.942 96.3563 201.154V262.838C96.3563 274.05 105.554 283.139 116.899 283.139H231.466C242.811 283.139 252.009 274.05 252.009 262.838V201.154C252.009 189.942 242.811 180.853 231.466 180.853Z"/></mask><g mask="url(#mask1_202_58)"><path fill="#D1CAB9" d="M231.466 180.853H116.899C105.554 180.853 96.3565 189.942 96.3565 201.154V262.838C96.3565 274.05 105.554 283.139 116.899 283.139H231.466C242.812 283.139 252.009 274.05 252.009 262.838V201.154C252.009 189.942 242.812 180.853 231.466 180.853Z"/><path fill="#D1CAB9" d="M133.655 201.154H70.2827C59.8099 201.154 51.32 209.544 51.32 219.894V240.976C51.32 251.325 59.8099 259.715 70.2827 259.715H133.655C144.127 259.715 152.617 251.325 152.617 240.976V219.894C152.617 209.544 144.127 201.154 133.655 201.154Z"/><path fill="#D1CAB9" d="M213.293 262.058H276.665C287.138 262.058 295.628 253.668 295.628 243.318V222.236C295.628 211.887 287.138 203.497 276.665 203.497H213.293C202.821 203.497 194.331 211.887 194.331 222.236V243.318C194.331 253.668 202.821 262.058 213.293 262.058Z"/><path fill="#D1CAB9" d="M133.655 178.511H110.579C100.106 178.511 91.6158 186.901 91.6158 197.25V198.812C91.6158 209.161 100.106 217.551 110.579 217.551H133.655C144.127 217.551 152.617 209.161 152.617 198.812V197.25C152.617 186.901 144.127 178.511 133.655 178.511Z"/><path fill="#D1CAB9" d="M213.293 284.701H236.369C246.842 284.701 255.332 276.311 255.332 265.962V264.4C255.332 254.05 246.842 245.661 236.369 245.661H213.293C202.821 245.661 194.331 254.05 194.331 264.4V265.962C194.331 276.311 202.821 284.701 213.293 284.701Z"/><path fill="#D1CAB9" d="M133.655 245.661H110.579C100.106 245.661 91.6158 254.05 91.6158 264.4V265.962C91.6158 276.311 100.106 284.701 110.579 284.701H133.655C144.127 284.701 152.617 276.311 152.617 265.962V264.4C152.617 254.05 144.127 245.661 133.655 245.661Z"/><path fill="#D1CAB9" d="M213.293 217.551H236.369C246.842 217.551 255.332 209.161 255.332 198.812V197.25C255.332 186.901 246.842 178.511 236.369 178.511H213.293C202.821 178.511 194.331 186.901 194.331 197.25V198.812C194.331 209.161 202.821 217.551 213.293 217.551Z"/><path fill="#6F6666" fill-rule="evenodd" d="M110.578 180.072C100.978 180.072 93.1958 187.763 93.1958 197.25V198.812C93.1958 199.074 93.2017 199.334 93.2134 199.593H94.8316C95.5007 190.224 102.143 182.485 111.019 180.072H110.578ZM143.243 179.292C140.38 177.796 137.117 176.949 133.654 176.949H110.578C99.2327 176.949 90.0353 186.038 90.0353 197.25V198.812C90.0353 199.073 90.0403 199.334 90.0502 199.593H70.2825C58.9369 199.593 49.7395 208.682 49.7395 219.894V240.976C49.7395 252.187 58.9369 261.277 70.2825 261.277H90.2769C90.1179 262.295 90.0353 263.338 90.0353 264.4V265.961C90.0353 277.173 99.2327 286.262 110.578 286.262H133.654C136.46 286.262 139.133 285.707 141.569 284.701H205.378C207.814 285.707 210.488 286.262 213.293 286.262H236.369C247.715 286.262 256.912 277.173 256.912 265.961V264.4C256.912 264.138 256.907 263.878 256.897 263.619H276.665C288.011 263.619 297.208 254.53 297.208 243.318V222.236C297.208 211.024 288.011 201.935 276.665 201.935H256.671C256.83 200.917 256.912 199.874 256.912 198.812V197.25C256.912 186.038 247.715 176.949 236.369 176.949H213.293C209.83 176.949 206.567 177.796 203.705 179.292H143.243ZM142.423 182.415H116.899C106.959 182.415 98.8044 189.974 98.0014 199.593H133.654C139.845 199.593 145.396 202.299 149.162 206.579C150.361 204.247 151.037 201.607 151.037 198.812V197.25C151.037 190.924 147.576 185.396 142.423 182.415ZM151.215 209.353C153.107 206.28 154.197 202.672 154.197 198.812V197.25C154.197 191.396 151.69 186.12 147.678 182.415H199.27C195.258 186.12 192.75 191.396 192.75 197.25V198.812C192.75 203.174 194.142 207.215 196.512 210.524C194.142 213.833 192.75 217.874 192.75 222.236V243.318C192.75 247.178 193.84 250.786 195.733 253.859C193.84 256.931 192.75 260.54 192.75 264.4V265.961C192.75 272.24 195.635 277.854 200.166 281.578H146.782C151.313 277.854 154.197 272.24 154.197 265.961V264.4C154.197 260.038 152.805 255.997 150.436 252.688C152.805 249.378 154.197 245.338 154.197 240.976V219.894C154.197 216.034 153.107 212.425 151.215 209.353ZM147.38 209.353C144.2 205.314 139.234 202.716 133.654 202.716H97.9365V210.602C101.106 213.919 105.597 215.99 110.578 215.99H133.654C139.234 215.99 144.2 213.392 147.38 209.353ZM97.9365 214.815C101.422 217.508 105.811 219.113 110.578 219.113H133.654C139.845 219.113 145.396 216.407 149.162 212.126C150.361 214.459 151.037 217.098 151.037 219.894V240.976C151.037 244.366 150.043 247.528 148.327 250.191C144.598 246.431 139.402 244.099 133.654 244.099H110.578C105.811 244.099 101.422 245.704 97.9365 248.397V214.815ZM94.776 205.978V202.716H93.6467C93.9135 203.851 94.2941 204.942 94.776 205.978ZM90.4148 202.716C91.0857 206.119 92.6171 209.219 94.776 211.784V251.427C93.1236 253.391 91.8388 255.667 91.0261 258.153H70.2825C60.6824 258.153 52.9 250.463 52.9 240.976V219.894C52.9 210.407 60.6824 202.716 70.2825 202.716H90.4148ZM93.4824 261.277C93.2941 262.289 93.1958 263.333 93.1958 264.4V265.961C93.1958 274.691 99.7857 281.9 108.318 282.995C100.362 279.683 94.776 271.905 94.776 262.838V261.277H93.4824ZM94.776 258.153H94.3808C94.5037 257.842 94.6356 257.536 94.776 257.234V258.153ZM97.9365 261.277V262.838C97.9365 273.188 106.426 281.578 116.899 281.578H140.906C146.885 278.862 151.037 272.891 151.037 265.961V264.4C151.037 261.009 150.043 257.847 148.327 255.185C144.598 258.944 139.402 261.277 133.654 261.277H97.9365ZM146.37 252.688C143.197 256.051 138.674 258.153 133.654 258.153H97.9365V252.61C101.106 249.292 105.597 247.222 110.578 247.222H133.654C138.674 247.222 143.197 249.325 146.37 252.688ZM241.246 282.454C248.472 280.371 253.752 273.775 253.752 265.961V264.4C253.752 264.138 253.746 263.878 253.734 263.619H253.575C253.281 271.892 248.337 278.995 241.246 282.454ZM250.412 263.619C249.998 273.606 241.674 281.578 231.466 281.578H206.041C200.062 278.862 195.911 272.891 195.911 265.961V264.4C195.911 261.604 196.586 258.965 197.785 256.632C201.551 260.913 207.102 263.619 213.293 263.619H250.412ZM250.428 254.296V260.496H213.293C207.713 260.496 202.748 257.898 199.567 253.859C202.748 249.82 207.713 247.222 213.293 247.222H236.369C242.148 247.222 247.268 250.009 250.428 254.296ZM256.533 260.496C256.02 257.894 255.004 255.469 253.589 253.325V209.887C254.57 208.401 255.359 206.78 255.921 205.058H276.665C286.265 205.058 294.048 212.749 294.048 222.236V243.318C294.048 252.805 286.265 260.496 276.665 260.496H256.533ZM253.589 201.172C253.696 200.401 253.752 199.613 253.752 198.812V197.25C253.752 188.128 246.557 180.667 237.47 180.106C246.771 182.692 253.589 191.136 253.589 201.154V201.172ZM204.525 182.415C199.372 185.396 195.911 190.924 195.911 197.25V198.812C195.911 202.203 196.905 205.364 198.621 208.027C202.349 204.268 207.546 201.935 213.293 201.935H250.428V201.154C250.428 190.805 241.939 182.415 231.466 182.415H204.525ZM250.428 205.058H213.293C208.273 205.058 203.75 207.161 200.577 210.524C203.75 213.887 208.273 215.99 213.293 215.99H236.369C242.148 215.99 247.268 213.203 250.428 208.915V205.058ZM250.428 213.614V249.598C246.754 246.188 241.808 244.099 236.369 244.099H213.293C207.102 244.099 201.551 246.805 197.785 251.085C196.586 248.753 195.911 246.113 195.911 243.318V222.236C195.911 218.845 196.905 215.684 198.621 213.021C202.349 216.78 207.546 219.113 213.293 219.113H236.369C241.808 219.113 246.754 217.024 250.428 213.614Z" clip-rule="evenodd"/></g></g><defs><radialGradient id="paint0_radial_202_58" cx="0" cy="0" r="1" gradientTransform="translate(910.938 42.9897) rotate(90) scale(52.5327)" gradientUnits="userSpaceOnUse"><stop offset="1" stop-color="#202E3E"/></radialGradient><radialGradient id="paint1_radial_202_58" cx="0" cy="0" r="1" gradientTransform="translate(910.938 42.9897) rotate(90) scale(60.0374)" gradientUnits="userSpaceOnUse"><stop stop-color="#863347"/></radialGradient><clipPath id="clip0_202_58"><rect width="155.652" height="102.286" fill="#fff" transform="translate(96.3563 180.853)"/></clipPath></defs></svg>