<svg xmlns="http://www.w3.org/2000/svg" width="600" height="600" fill="none" viewBox="0 0 600 600"><mask id="mask0_202_46" width="600" height="600" x="0" y="0" maskUnits="userSpaceOnUse" style="mask-type:alpha"><path fill="#000" fill-rule="evenodd" d="M300 600C540 600 600 540 600 300C600 60 540 0 300 0C60 0 0 60 0 300C0 540 60 600 300 600Z" clip-rule="evenodd"/></mask><g mask="url(#mask0_202_46)"><rect width="600" height="600" fill="url(#paint0_radial_202_46)"/><path fill="url(#paint1_radial_202_46)" fill-rule="evenodd" d="M516.798 516.798C551.363 482.233 567.188 420.234 567.188 300C567.188 179.765 551.363 117.767 516.798 83.2019C482.233 48.6366 420.234 32.8125 300 32.8125C179.765 32.8125 117.767 48.6366 83.2019 83.2019C48.6366 117.767 32.8125 179.765 32.8125 300C32.8125 420.234 48.6366 482.233 83.2019 516.798C117.767 551.363 179.765 567.188 300 567.188C420.234 567.188 482.233 551.363 516.798 516.798ZM600 300C600 540 540 600 300 600C60 600 0 540 0 300C0 60 60 0 300 0C540 0 600 60 600 300Z" clip-rule="evenodd"/><path fill="#EF4B61" fill-rule="evenodd" d="M300.004 150.338C299.236 150.6 298.054 151.05 296.367 151.8C291.886 153.731 286.561 156.506 279.717 160.425C265.804 168.375 248.386 179.606 228.792 193.444C206.163 209.406 195.909 217.442 183.13 227.458L183.13 227.459L183.13 227.459C173.662 234.879 162.809 243.386 144.511 257.006C137.198 264.337 125.311 264.337 117.998 257.006C110.667 249.694 110.667 237.806 117.998 230.494C159.384 196.875 166.861 191.269 207.154 162.806C227.404 148.519 246.323 136.312 261.117 127.856C268.636 123.562 275.742 119.887 281.311 117.45C286.223 115.294 293.292 112.5 300.004 112.5C306.717 112.5 313.786 115.294 318.698 117.45C324.267 119.887 331.373 123.562 338.892 127.856C353.686 136.312 372.604 148.519 392.854 162.806C433.148 191.269 440.625 196.875 482.011 230.494C489.342 237.806 489.342 249.694 482.011 257.006C474.698 264.337 462.811 264.337 455.498 257.006C437.2 243.386 426.346 234.879 416.879 227.459C404.1 217.442 393.846 209.406 371.217 193.444C351.623 179.606 334.204 168.375 320.292 160.425C313.448 156.506 308.123 153.731 303.642 151.8C301.954 151.05 300.773 150.6 300.004 150.338ZM131.25 450C131.25 439.65 139.65 431.25 150 431.25H450C460.35 431.25 468.75 439.65 468.75 450C468.75 460.35 460.35 468.75 450 468.75H150C139.65 468.75 131.25 460.35 131.25 450ZM281.25 393.75C281.25 404.1 289.65 412.5 300 412.5C310.35 412.5 318.75 404.1 318.75 393.75V262.5C318.75 252.15 310.35 243.75 300 243.75C289.65 243.75 281.25 252.15 281.25 262.5V393.75ZM393.75 412.5C383.4 412.5 375 404.1 375 393.75V262.5C375 252.15 383.4 243.75 393.75 243.75C404.1 243.75 412.5 252.15 412.5 262.5V393.75C412.5 404.1 404.1 412.5 393.75 412.5ZM187.5 393.75C187.5 404.1 195.9 412.5 206.25 412.5C216.6 412.5 225 404.1 225 393.75V262.5C225 252.15 216.6 243.75 206.25 243.75C195.9 243.75 187.5 252.15 187.5 262.5V393.75Z" clip-rule="evenodd"/></g><defs><radialGradient id="paint0_radial_202_46" cx="0" cy="0" r="1" gradientTransform="translate(300) rotate(90) scale(262.5)" gradientUnits="userSpaceOnUse"><stop offset="1" stop-color="#202E3E"/></radialGradient><radialGradient id="paint1_radial_202_46" cx="0" cy="0" r="1" gradientTransform="translate(300) rotate(90) scale(300)" gradientUnits="userSpaceOnUse"><stop stop-color="#863347"/></radialGradient></defs></svg>