<svg xmlns="http://www.w3.org/2000/svg" width="600" height="101" fill="none" viewBox="0 0 600 101"><rect width="600" height="100.322" fill="#17171D" rx="50.161"/><path fill="#EC3750" d="M32.0646 72.3086H42.8298V55.0842H59.9154V72.3086H70.6807V28.553H59.9154V45.708H42.8298V28.553H32.0646V72.3086Z"/><path fill="#EC3750" d="M75.5066 57.0289C75.5066 67.5163 81.549 73.3504 88.7027 73.3504C92.8005 73.3504 96.4815 71.6835 98.704 68.2803V72.3086H109.4V41.7491H98.704V45.7774C96.4815 42.3742 92.8005 40.7073 88.7027 40.7073C81.549 40.7073 75.5066 46.5414 75.5066 57.0289ZM92.5227 49.389C96.3426 49.389 98.8429 52.1671 98.8429 57.0289C98.8429 61.8906 96.2731 64.6687 92.5227 64.6687C88.4944 64.6687 86.2024 61.4044 86.2024 57.0289C86.2024 52.6533 88.4944 49.389 92.5227 49.389Z"/><path fill="#EC3750" d="M124.724 57.0289C124.724 51.681 127.363 49.0417 130.558 49.0417C133.058 49.0417 135.35 50.6392 135.628 54.0424H146.602C145.143 43.9716 137.087 40.7073 130.558 40.7073C122.363 40.7073 114.028 45.7774 114.028 57.0289C114.028 68.2803 122.363 73.3504 130.558 73.3504C137.156 73.3504 145.213 70.0861 146.602 60.0154H135.628C135.281 63.3491 133.058 65.016 130.558 65.016C127.363 65.016 124.724 62.3768 124.724 57.0289Z"/><path fill="#EC3750" d="M150.963 72.3086H161.659V59.1125L171.59 72.3086H184.648L171.729 56.1954L183.675 41.7491H172.007L161.659 53.7646V25.0803H150.963V72.3086Z"/><path fill="#EC3750" d="M230.823 55.0842C229.643 60.7794 226.239 63.6269 220.544 63.6269C214.016 63.6269 209.571 58.0707 209.571 50.4308C209.571 42.7909 213.946 37.2347 220.544 37.2347C226.1 37.2347 229.573 40.2212 230.684 45.7774H241.728C239.019 31.4006 229.226 27.5112 220.544 27.5112C207.418 27.5112 198.805 37.1652 198.805 50.4308C198.805 63.6964 207.834 73.3504 220.544 73.3504C229.226 73.3504 238.949 69.8778 241.728 55.0842H230.823Z"/><path fill="#EC3750" d="M246.326 72.3086H257.021V25.0803H246.326V72.3086Z"/><path fill="#EC3750" d="M273.492 41.7491H262.796V61.1961C262.796 68.9749 267.171 73.3504 273.7 73.3504C277.034 73.3504 280.298 71.6835 282.312 68.3498V72.3086H293.008V41.7491H282.312V57.2372C282.312 62.1684 280.367 64.3215 277.867 64.3215C275.228 64.3215 273.492 62.3073 273.492 58.1401V41.7491Z"/><path fill="#EC3750" d="M333.123 57.0289C333.123 46.5414 327.08 40.7073 319.927 40.7073C315.829 40.7073 312.148 42.3742 309.925 45.7774V25.0803H299.229V72.3086H309.925V68.2803C312.148 71.6835 315.829 73.3504 319.927 73.3504C327.08 73.3504 333.123 67.5163 333.123 57.0289ZM316.107 49.389C320.135 49.389 322.427 52.6533 322.427 57.0289C322.427 61.4044 320.135 64.6687 316.107 64.6687C312.356 64.6687 309.786 61.8212 309.786 57.0289C309.786 52.2366 312.287 49.389 316.107 49.389Z"/><path fill="#EC3750" d="M350.37 72.3086H369.192C379.749 72.3086 384.819 66.8218 384.819 59.1819C384.819 55.7093 383.36 51.4726 376.415 49.389C381.346 47.3749 383.082 43.6938 383.082 40.1517C383.082 33.8314 378.915 28.553 367.872 28.553H350.37V72.3086ZM366.761 36.5401C370.234 36.5401 372.248 37.9292 372.248 41.1935C372.248 44.8051 370.511 46.2636 366.344 46.2636H361.135V36.5401H366.761ZM367.942 53.9035C371.762 53.9035 373.984 55.6398 373.984 59.1819C373.984 62.5851 371.692 64.3215 367.803 64.3215H361.135V53.9035H367.942Z"/><path fill="#EC3750" d="M388.25 57.0289C388.25 67.5163 394.293 73.3504 401.446 73.3504C405.544 73.3504 409.225 71.6835 411.448 68.2803V72.3086H422.143V41.7491H411.448V45.7774C409.225 42.3742 405.544 40.7073 401.446 40.7073C394.293 40.7073 388.25 46.5414 388.25 57.0289ZM405.266 49.389C409.086 49.389 411.587 52.1671 411.587 57.0289C411.587 61.8906 409.017 64.6687 405.266 64.6687C401.238 64.6687 398.946 61.4044 398.946 57.0289C398.946 52.6533 401.238 49.389 405.266 49.389Z"/><path fill="#EC3750" d="M428.369 72.3086H439.065V55.5704C439.065 51.2642 441.079 49.389 444.344 49.389C447.33 49.389 448.928 51.4031 448.928 55.5704V72.3086H459.623V54.5286C459.623 45.8469 455.178 40.7073 448.025 40.7073C444.135 40.7073 441.01 42.5131 439.065 45.7774V41.7491H428.369V72.3086Z"/><path fill="#EC3750" d="M465.402 72.3086H476.098V59.1125L486.03 72.3086H499.087L486.169 56.1954L498.115 41.7491H486.446L476.098 53.7646V25.0803H465.402V72.3086Z"/><mask id="mask0_202_4" width="62" height="63" x="513" y="19" maskUnits="userSpaceOnUse" style="mask-type:alpha"><path fill="#000" fill-rule="evenodd" d="M544.052 81.0291C568.746 81.0291 574.92 74.8554 574.92 50.1609C574.92 25.4664 568.746 19.2927 544.052 19.2927C519.357 19.2927 513.183 25.4664 513.183 50.1609C513.183 74.8554 519.357 81.0291 544.052 81.0291Z" clip-rule="evenodd"/></mask><g mask="url(#mask0_202_4)"><rect width="61.736" height="61.736" x="513.183" y="19.293" fill="url(#paint0_radial_202_4)"/><path fill="#ED3952" fill-opacity=".5" fill-rule="evenodd" d="M566.359 72.4681C569.915 68.9115 571.543 62.5323 571.543 50.1609C571.543 37.7895 569.915 31.4103 566.359 27.8537C562.802 24.2971 556.423 22.6689 544.052 22.6689C531.68 22.6689 525.301 24.2971 521.744 27.8537C518.188 31.4103 516.56 37.7895 516.56 50.1609C516.56 62.5323 518.188 68.9115 521.744 72.4681C525.301 76.0247 531.68 77.6529 544.052 77.6529C556.423 77.6529 562.802 76.0247 566.359 72.4681ZM574.92 50.1609C574.92 74.8554 568.746 81.0291 544.052 81.0291C519.357 81.0291 513.183 74.8554 513.183 50.1609C513.183 25.4664 519.357 19.2927 544.052 19.2927C568.746 19.2927 574.92 25.4664 574.92 50.1609Z" clip-rule="evenodd"/><path fill="#EC3750" fill-rule="evenodd" d="M544.053 34.7614C543.974 34.7884 543.852 34.8347 543.678 34.9119C543.217 35.1106 542.669 35.3961 541.965 35.7994C540.534 36.6174 538.741 37.773 536.725 39.1968C534.397 40.8392 533.342 41.6661 532.027 42.6967L532.027 42.6967C531.053 43.4602 529.936 44.3355 528.053 45.737C527.301 46.4913 526.078 46.4913 525.325 45.737C524.571 44.9846 524.571 43.7614 525.325 43.009C529.584 39.5498 530.353 38.973 534.499 36.0444C536.583 34.5743 538.529 33.3183 540.051 32.4482C540.825 32.0064 541.556 31.6283 542.129 31.3775C542.635 31.1556 543.362 30.8682 544.053 30.8682C544.743 30.8682 545.471 31.1556 545.976 31.3775C546.549 31.6283 547.28 32.0064 548.054 32.4482C549.576 33.3183 551.523 34.5743 553.606 36.0444C557.752 38.973 558.522 39.5498 562.78 43.009C563.534 43.7614 563.534 44.9846 562.78 45.737C562.028 46.4913 560.804 46.4913 560.052 45.737C558.169 44.3355 557.052 43.4602 556.078 42.6967L556.078 42.6967C554.763 41.6661 553.708 40.8392 551.38 39.1968C549.364 37.773 547.572 36.6174 546.14 35.7994C545.436 35.3961 544.888 35.1106 544.427 34.9119C544.253 34.8347 544.132 34.7884 544.053 34.7614ZM526.688 65.5949C526.688 64.5299 527.553 63.6656 528.618 63.6656H559.486C560.551 63.6656 561.415 64.5299 561.415 65.5949C561.415 66.6598 560.551 67.5241 559.486 67.5241H528.618C527.553 67.5241 526.688 66.6598 526.688 65.5949ZM542.122 59.8071C542.122 60.872 542.987 61.7363 544.052 61.7363C545.117 61.7363 545.981 60.872 545.981 59.8071V46.3022C545.981 45.2373 545.117 44.373 544.052 44.373C542.987 44.373 542.122 45.2373 542.122 46.3022V59.8071ZM553.698 61.7363C552.633 61.7363 551.769 60.872 551.769 59.8071V46.3022C551.769 45.2373 552.633 44.373 553.698 44.373C554.763 44.373 555.627 45.2373 555.627 46.3022V59.8071C555.627 60.872 554.763 61.7363 553.698 61.7363ZM532.476 59.8071C532.476 60.872 533.34 61.7363 534.405 61.7363C535.47 61.7363 536.335 60.872 536.335 59.8071V46.3022C536.335 45.2373 535.47 44.373 534.405 44.373C533.34 44.373 532.476 45.2373 532.476 46.3022V59.8071Z" clip-rule="evenodd"/></g><defs><radialGradient id="paint0_radial_202_4" cx="0" cy="0" r="1" gradientTransform="translate(544.052 81.0291) rotate(-90) scale(40.9999 30.8682)" gradientUnits="userSpaceOnUse"><stop offset="1" stop-color="#1F2D3D"/></radialGradient></defs></svg>