<svg width="600" height="101" viewBox="0 0 600 101" fill="none" xmlns="http://www.w3.org/2000/svg">
<rect width="600" height="100.322" rx="50.1608" fill="#F9FAFC"/>
<path d="M32.0645 72.3089H42.8298V55.0844H59.9153V72.3089H70.6806V28.5532H59.9153V45.7082H42.8298V28.5532H32.0645V72.3089Z" fill="#EC3750"/>
<path d="M75.5065 57.0291C75.5065 67.5166 81.549 73.3507 88.7027 73.3507C92.8004 73.3507 96.4814 71.6838 98.7039 68.2806V72.3089H109.4V41.7494H98.7039V45.7777C96.4814 42.3745 92.8004 40.7076 88.7027 40.7076C81.549 40.7076 75.5065 46.5417 75.5065 57.0291ZM92.5226 49.3892C96.3425 49.3892 98.8428 52.1674 98.8428 57.0291C98.8428 61.8909 96.2731 64.669 92.5226 64.669C88.4943 64.669 86.2023 61.4047 86.2023 57.0291C86.2023 52.6536 88.4943 49.3892 92.5226 49.3892Z" fill="#EC3750"/>
<path d="M124.724 57.0291C124.724 51.6812 127.363 49.042 130.558 49.042C133.058 49.042 135.35 50.6394 135.628 54.0426H146.602C145.143 43.9719 137.087 40.7076 130.558 40.7076C122.363 40.7076 114.028 45.7777 114.028 57.0291C114.028 68.2806 122.363 73.3507 130.558 73.3507C137.156 73.3507 145.213 70.0864 146.602 60.0156H135.628C135.281 63.3494 133.058 65.0163 130.558 65.0163C127.363 65.0163 124.724 62.377 124.724 57.0291Z" fill="#EC3750"/>
<path d="M150.963 72.3089H161.659V59.1127L171.59 72.3089H184.648L171.729 56.1957L183.675 41.7494H172.007L161.659 53.7648V25.0806H150.963V72.3089Z" fill="#EC3750"/>
<path d="M230.823 55.0844C229.643 60.7796 226.239 63.6272 220.544 63.6272C214.016 63.6272 209.571 58.0709 209.571 50.431C209.571 42.7912 213.946 37.2349 220.544 37.2349C226.1 37.2349 229.573 40.2214 230.684 45.7777H241.727C239.019 31.4008 229.226 27.5114 220.544 27.5114C207.417 27.5114 198.805 37.1655 198.805 50.431C198.805 63.6966 207.834 73.3507 220.544 73.3507C229.226 73.3507 238.949 69.878 241.727 55.0844H230.823Z" fill="#EC3750"/>
<path d="M246.325 72.3089H257.021V25.0806H246.325V72.3089Z" fill="#EC3750"/>
<path d="M273.492 41.7494H262.796V61.1963C262.796 68.9751 267.171 73.3507 273.7 73.3507C277.034 73.3507 280.298 71.6838 282.312 68.35V72.3089H293.008V41.7494H282.312V57.2375C282.312 62.1687 280.367 64.3217 277.867 64.3217C275.228 64.3217 273.492 62.3076 273.492 58.1404V41.7494Z" fill="#EC3750"/>
<path d="M333.123 57.0291C333.123 46.5417 327.08 40.7076 319.927 40.7076C315.829 40.7076 312.148 42.3745 309.925 45.7777V25.0806H299.229V72.3089H309.925V68.2806C312.148 71.6838 315.829 73.3507 319.927 73.3507C327.08 73.3507 333.123 67.5166 333.123 57.0291ZM316.107 49.3892C320.135 49.3892 322.427 52.6536 322.427 57.0291C322.427 61.4047 320.135 64.669 316.107 64.669C312.356 64.669 309.786 61.8214 309.786 57.0291C309.786 52.2368 312.287 49.3892 316.107 49.3892Z" fill="#EC3750"/>
<path d="M350.37 72.3089H369.192C379.749 72.3089 384.819 66.822 384.819 59.1822C384.819 55.7095 383.36 51.4728 376.415 49.3892C381.346 47.3751 383.082 43.6941 383.082 40.1519C383.082 33.8317 378.915 28.5532 367.872 28.5532H350.37V72.3089ZM366.761 36.5404C370.234 36.5404 372.248 37.9294 372.248 41.1937C372.248 44.8053 370.511 46.2638 366.344 46.2638H361.135V36.5404H366.761ZM367.942 53.9037C371.762 53.9037 373.984 55.6401 373.984 59.1822C373.984 62.5854 371.692 64.3217 367.803 64.3217H361.135V53.9037H367.942Z" fill="#EC3750"/>
<path d="M388.25 57.0291C388.25 67.5166 394.293 73.3507 401.446 73.3507C405.544 73.3507 409.225 71.6838 411.448 68.2806V72.3089H422.143V41.7494H411.448V45.7777C409.225 42.3745 405.544 40.7076 401.446 40.7076C394.293 40.7076 388.25 46.5417 388.25 57.0291ZM405.266 49.3892C409.086 49.3892 411.587 52.1674 411.587 57.0291C411.587 61.8909 409.017 64.669 405.266 64.669C401.238 64.669 398.946 61.4047 398.946 57.0291C398.946 52.6536 401.238 49.3892 405.266 49.3892Z" fill="#EC3750"/>
<path d="M428.369 72.3089H439.065V55.5706C439.065 51.2645 441.079 49.3892 444.344 49.3892C447.33 49.3892 448.927 51.4034 448.927 55.5706V72.3089H459.623V54.5288C459.623 45.8471 455.178 40.7076 448.025 40.7076C444.135 40.7076 441.01 42.5134 439.065 45.7777V41.7494H428.369V72.3089Z" fill="#EC3750"/>
<path d="M465.402 72.3089H476.098V59.1127L486.03 72.3089H499.087L486.169 56.1957L498.115 41.7494H486.446L476.098 53.7648V25.0806H465.402V72.3089Z" fill="#EC3750"/>
<mask id="mask0_202_19" style="mask-type:alpha" maskUnits="userSpaceOnUse" x="513" y="19" width="62" height="63">
<path fill-rule="evenodd" clip-rule="evenodd" d="M544.052 81.0288C568.746 81.0288 574.92 74.8552 574.92 50.1606C574.92 25.4661 568.746 19.2925 544.052 19.2925C519.357 19.2925 513.183 25.4661 513.183 50.1606C513.183 74.8552 519.357 81.0288 544.052 81.0288Z" fill="black"/>
</mask>
<g mask="url(#mask0_202_19)">
<rect x="513.183" y="19.2925" width="61.7363" height="61.7363" fill="url(#paint0_radial_202_19)"/>
<path fill-rule="evenodd" clip-rule="evenodd" d="M566.359 72.4678C569.915 68.9113 571.543 62.532 571.543 50.1606C571.543 37.7893 569.915 31.41 566.359 27.8535C562.802 24.2969 556.423 22.6687 544.052 22.6687C531.68 22.6687 525.301 24.2969 521.744 27.8535C518.188 31.41 516.56 37.7893 516.56 50.1606C516.56 62.532 518.188 68.9113 521.744 72.4678C525.301 76.0244 531.68 77.6526 544.052 77.6526C556.423 77.6526 562.802 76.0244 566.359 72.4678ZM574.92 50.1606C574.92 74.8552 568.746 81.0288 544.052 81.0288C519.357 81.0288 513.183 74.8552 513.183 50.1606C513.183 25.4661 519.357 19.2925 544.052 19.2925C568.746 19.2925 574.92 25.4661 574.92 50.1606Z" fill="url(#paint1_radial_202_19)"/>
<path fill-rule="evenodd" clip-rule="evenodd" d="M544.053 34.7614C543.974 34.7884 543.852 34.8347 543.678 34.9119C543.217 35.1106 542.669 35.3961 541.965 35.7994C540.534 36.6174 538.741 37.773 536.725 39.1968C534.397 40.8392 533.342 41.6661 532.027 42.6967L532.027 42.6967C531.053 43.4602 529.936 44.3355 528.053 45.737C527.301 46.4913 526.078 46.4913 525.325 45.737C524.571 44.9846 524.571 43.7614 525.325 43.009C529.584 39.5498 530.353 38.973 534.499 36.0444C536.583 34.5743 538.529 33.3183 540.051 32.4482C540.825 32.0064 541.556 31.6283 542.129 31.3775C542.635 31.1556 543.362 30.8682 544.053 30.8682C544.743 30.8682 545.471 31.1556 545.976 31.3775C546.549 31.6283 547.28 32.0064 548.054 32.4482C549.576 33.3183 551.523 34.5743 553.606 36.0444C557.752 38.973 558.522 39.5498 562.78 43.009C563.534 43.7614 563.534 44.9846 562.78 45.737C562.028 46.4913 560.805 46.4913 560.052 45.737C558.169 44.3355 557.053 43.4602 556.078 42.6967L556.078 42.6967C554.763 41.6661 553.708 40.8392 551.38 39.1968C549.364 37.773 547.572 36.6174 546.14 35.7994C545.436 35.3961 544.888 35.1106 544.427 34.9119C544.253 34.8347 544.132 34.7884 544.053 34.7614ZM526.688 65.5949C526.688 64.5299 527.553 63.6656 528.618 63.6656H559.486C560.551 63.6656 561.415 64.5299 561.415 65.5949C561.415 66.6598 560.551 67.5241 559.486 67.5241H528.618C527.553 67.5241 526.688 66.6598 526.688 65.5949ZM542.123 59.8071C542.123 60.872 542.987 61.7363 544.052 61.7363C545.117 61.7363 545.981 60.872 545.981 59.8071V46.3022C545.981 45.2373 545.117 44.373 544.052 44.373C542.987 44.373 542.123 45.2373 542.123 46.3022V59.8071ZM553.698 61.7363C552.633 61.7363 551.769 60.872 551.769 59.8071V46.3022C551.769 45.2373 552.633 44.373 553.698 44.373C554.763 44.373 555.627 45.2373 555.627 46.3022V59.8071C555.627 60.872 554.763 61.7363 553.698 61.7363ZM532.476 59.8071C532.476 60.872 533.341 61.7363 534.405 61.7363C535.47 61.7363 536.335 60.872 536.335 59.8071V46.3022C536.335 45.2373 535.47 44.373 534.405 44.373C533.341 44.373 532.476 45.2373 532.476 46.3022V59.8071Z" fill="white"/>
</g>
<defs>
<radialGradient id="paint0_radial_202_19" cx="0" cy="0" r="1" gradientUnits="userSpaceOnUse" gradientTransform="translate(544.052 19.2925) rotate(90) scale(27.0096)">
<stop offset="1" stop-color="#EC3750"/>
</radialGradient>
<radialGradient id="paint1_radial_202_19" cx="0" cy="0" r="1" gradientUnits="userSpaceOnUse" gradientTransform="translate(544.052 19.2925) rotate(90) scale(30.8682)">
<stop stop-color="#FFE4E8"/>
<stop offset="1" stop-color="#FEC2CA"/>
</radialGradient>
</defs>
</svg>
