<svg width="20" height="19" viewBox="0 0 20 19" fill="none" xmlns="http://www.w3.org/2000/svg">
<path d="M10.1164 2.05598C10.1425 2.07022 10.1683 2.08435 10.194 2.096C10.4982 2.23292 10.7947 2.38649 11.082 2.556C12.0139 3.10091 12.9202 3.68853 13.798 4.317C15.0067 5.16916 15.5534 5.59778 16.2358 6.13272C16.7401 6.52809 17.3185 6.98154 18.293 7.707C18.3858 7.79984 18.4961 7.87349 18.6174 7.92374C18.7387 7.97399 18.8687 7.99985 19 7.99985C19.1313 7.99985 19.2613 7.97399 19.3826 7.92374C19.5039 7.87349 19.6142 7.79984 19.707 7.707C19.7998 7.61415 19.8735 7.50393 19.9237 7.38263C19.974 7.26132 19.9999 7.1313 19.9999 7C19.9999 6.8687 19.974 6.73868 19.9237 6.61737C19.8735 6.49607 19.7998 6.38585 19.707 6.293C17.5 4.5 17.102 4.201 14.952 2.683C14.0213 2.01847 13.061 1.3965 12.074 0.819C11.673 0.59 11.294 0.394 10.997 0.264C10.735 0.149 10.358 0 10 0C9.642 0 9.265 0.149 9.003 0.264C8.706 0.394 8.327 0.59 7.926 0.819C6.93898 1.3965 5.97866 2.01847 5.048 2.683C2.9 4.201 2.5 4.5 0.293002 6.293C0.200157 6.38585 0.126509 6.49607 0.0762615 6.61737C0.0260143 6.73868 0.000152588 6.8687 0.000152588 7C0.000152588 7.1313 0.0260143 7.26132 0.0762615 7.38263C0.126509 7.50393 0.200157 7.61415 0.293001 7.707C0.385846 7.79984 0.496068 7.87349 0.617376 7.92374C0.738683 7.97399 0.8687 7.99985 1 7.99985C1.1313 7.99985 1.26132 7.97399 1.38263 7.92374C1.50393 7.87349 1.61416 7.79984 1.707 7.707C2.68534 6.97901 3.26462 6.52493 3.77026 6.12858C4.45024 5.59557 4.99703 5.16696 6.202 4.317C7.07976 3.68853 7.98606 3.10091 8.918 2.556C9.283 2.347 9.568 2.199 9.806 2.096C9.85143 2.07581 9.88998 2.05511 9.92229 2.03776C9.954 2.02073 9.9797 2.00693 10 2C10.0392 2.0138 10.078 2.035 10.1164 2.05598Z"/>
<path d="M1.29289 17.2929C1.10536 17.4804 1 17.7348 1 18C1 18.2652 1.10536 18.5196 1.29289 18.7071C1.48043 18.8946 1.73479 19 2 19H18C18.2652 19 18.5196 18.8946 18.7071 18.7071C18.8946 18.5196 19 18.2652 19 18C19 17.7348 18.8946 17.4804 18.7071 17.2929C18.5196 17.1054 18.2652 17 18 17H2C1.73479 17 1.48043 17.1054 1.29289 17.2929Z"/>
<path fill-rule="evenodd" clip-rule="evenodd" d="M10 16C9.73478 16 9.48043 15.8946 9.29289 15.7071C9.10536 15.5196 9 15.2652 9 15V8C9 7.73478 9.10536 7.48043 9.29289 7.29289C9.48043 7.10536 9.73478 7 10 7C10.2652 7 10.5196 7.10536 10.7071 7.29289C10.8946 7.48043 11 7.73478 11 8V15C11 15.2652 10.8946 15.5196 10.7071 15.7071C10.5196 15.8946 10.2652 16 10 16ZM15 16C14.7348 16 14.4804 15.8946 14.2929 15.7071C14.1054 15.5196 14 15.2652 14 15V8C14 7.73478 14.1054 7.48043 14.2929 7.29289C14.4804 7.10536 14.7348 7 15 7C15.2652 7 15.5196 7.10536 15.7071 7.29289C15.8946 7.48043 16 7.73478 16 8V15C16 15.2652 15.8946 15.5196 15.7071 15.7071C15.5196 15.8946 15.2652 16 15 16ZM5 16C4.73478 16 4.48043 15.8946 4.29289 15.7071C4.10536 15.5196 4 15.2652 4 15V8C4 7.73478 4.10536 7.48043 4.29289 7.29289C4.48043 7.10536 4.73478 7 5 7C5.26522 7 5.51957 7.10536 5.70711 7.29289C5.89464 7.48043 6 7.73478 6 8V15C6 15.2652 5.89464 15.5196 5.70711 15.7071C5.51957 15.8946 5.26522 16 5 16Z"/>
</svg>
