<svg width="97" height="64" viewBox="0 0 97 64" fill="none" xmlns="http://www.w3.org/2000/svg">
<g clip-path="url(#clip0)">
<path d="M84.6739 19.4602C84.9382 18.6059 84.794 17.539 84.5086 17.1604C83.7167 16.1087 81.8942 16.94 81.3386 19.0012C80.9754 20.3482 81.7682 21.3671 82.6595 21.3671C83.6178 21.3666 84.2118 20.6108 84.6739 19.4602Z"/>
<path d="M69.2891 19.7285C69.3486 19.7393 69.4026 19.7491 69.4501 19.7565L69.2513 20.7744C69.0859 21.6306 67.8663 22.1763 67.0395 21.8603C66.1802 21.5302 66.4115 20.5451 67.2374 19.9862C67.9719 19.4891 68.8103 19.6415 69.2891 19.7285Z"/>
<path fill-rule="evenodd" clip-rule="evenodd" d="M96.2 53.4V10.2C96.2 10.2 96.2 0 86 0H10.2C10.2 0 0 0 0 10.2V53.3C0 53.3 0 63.5 10.2 63.5H86C86 63.6 96.2 63.6 96.2 53.4ZM10.6 41H38V48.9H10.6V41ZM47.2528 14.6497C45.46 9.60957 40.6403 6.00025 34.9764 6.00025C31.8552 6.00025 29.0152 7.09057 26.7722 8.9181C28.4832 10.5669 29.7893 12.6314 30.49 14.965H29.408C28.7298 12.8903 27.5386 11.0598 25.9901 9.59084C24.5094 10.9983 23.3826 12.7329 22.699 14.6532C22.4518 14.6907 22.1845 14.7367 21.8936 14.7935L21.8615 14.9587H21.5122C22.2033 12.6679 23.4699 10.5916 25.1915 8.9271C22.954 7.11831 20.1275 6 17.0238 6C9.83132 6 4 11.8205 4 19.0001C4 26.1795 9.83107 32 17.0238 32C20.1273 32 22.954 30.8817 25.1915 29.0729C23.6741 27.6036 22.4873 25.7961 21.7541 23.7719C22.1431 23.9361 22.5617 24.0124 22.9508 23.9984C23.645 25.6598 24.6788 27.1629 25.9901 28.4094C27.3626 27.1074 28.4542 25.5218 29.1568 23.7336C29.5237 23.8171 29.8684 23.8703 30.1967 23.9042C29.4537 25.8824 28.2676 27.6411 26.7722 29.0819C29.0152 30.9092 31.8552 31.9998 34.9764 31.9998C40.4329 31.9999 45.1058 28.6502 47.0437 23.8987C47.7029 23.8305 48.3103 23.7111 48.6452 23.5355L49.0414 21.5973C48.8294 21.6494 48.305 21.7116 47.7063 21.7581C47.8471 21.1076 47.9391 20.4391 47.9783 19.7565H49.3707C49.6322 18.4257 50.2007 15.3661 47.2528 14.6497ZM85.5987 15.6145C85.47 15.5208 85.3548 15.4006 85.2333 15.2738C84.8867 14.9121 84.4895 14.4977 83.5838 14.4977C83.4996 14.4977 83.4126 14.4966 83.3233 14.4955C81.9061 14.4784 79.8878 14.4539 78.6967 18.5074C77.8576 21.3631 79.555 23.9637 81.4036 23.9637C82.2629 23.9313 83.1212 23.5693 83.6488 23.2078L83.9805 23.9637H86.7538L89 12H86.2912L85.5987 15.6145ZM61.6553 14.7602C62.5147 14.7602 62.9758 14.8254 63.6373 15.2202L65.3219 13.5444C64.6614 12.821 63.9011 12.1107 61.7882 12.0323C60.0052 11.9667 56.9494 13.2618 55.9754 16.7979C54.6544 21.5973 57.5601 23.9632 60.2355 23.9632C61.6553 23.9632 62.5146 23.7663 63.373 23.3719L62.6136 21.0712C59.9712 21.9578 58.0892 20.6108 58.5188 17.8829C58.8811 15.5768 60.797 14.7602 61.6553 14.7602ZM72.4646 23.9553L74.2324 14.527H76.4673L76.701 15.4563C77.1016 14.9909 77.8689 14.527 79.1697 14.527L78.4698 16.9831C78.4379 16.9831 78.4046 16.9826 78.3699 16.9822C77.7157 16.974 76.596 16.96 75.8678 19.6394L75.0671 23.9553H72.4646ZM65.0896 16.8312L65.4868 14.7935C66.8863 14.52 67.7386 14.4968 68.4411 14.4776C68.584 14.4737 68.7207 14.47 68.8546 14.4643C73.1811 14.4643 72.7525 17.5542 72.4882 18.8361L71.4635 23.9632H69.0539L68.7232 23.4371C68.2601 23.7663 67.8979 23.9308 66.5759 23.997C65.255 24.0621 63.5713 23.0766 63.8691 21.1363C64.5018 17.699 68.0954 17.8074 69.4451 17.848C69.6439 17.854 69.794 17.8586 69.8788 17.8501C70.148 16.5721 69.3632 16.5572 68.551 16.5418C68.4651 16.5401 68.3789 16.5385 68.2935 16.5354C67.6194 16.5109 66.4938 16.6551 65.7127 16.7552C65.46 16.7875 65.2432 16.8153 65.0896 16.8312ZM49.4445 23.9632L51.1951 14.6289H53.4078L53.6386 15.5493C54.0358 15.0889 54.7952 14.6289 56.0822 14.6289L55.4217 17.0942C55.3848 17.0942 55.3459 17.0936 55.3051 17.0929C54.6528 17.0814 53.5275 17.0617 52.8128 19.6899L52.0209 23.9636L49.4445 23.9632Z"/>
<path fill-rule="evenodd" clip-rule="evenodd" d="M72.6408 17.5893C72.6331 18.0681 72.5553 18.5104 72.4882 18.8361L71.4635 23.9632H69.0539L68.7232 23.4371C68.6069 23.5197 68.497 23.592 68.3766 23.6549C68.0177 23.8427 67.5659 23.9474 66.5759 23.997C65.7753 24.0365 64.8415 23.69 64.2963 22.979C64.0132 22.6098 63.8349 22.1423 63.8344 21.5796C63.8343 21.4379 63.8455 21.2901 63.8691 21.1363C64.5018 17.699 68.0954 17.8074 69.4451 17.848C69.6439 17.854 69.794 17.8586 69.8788 17.8501C69.9824 17.3585 69.93 17.0538 69.7801 16.8641C69.7775 16.8609 69.775 16.8577 69.7724 16.8546C69.5299 16.5604 69.0455 16.5512 68.551 16.5418C68.4651 16.5401 68.3789 16.5385 68.2935 16.5354C67.7331 16.5151 66.8608 16.6113 66.1337 16.7018C65.9861 16.7201 65.8445 16.7383 65.7127 16.7552C65.46 16.7875 65.2432 16.8153 65.0896 16.8312L65.4868 14.7935C66.8863 14.52 67.7386 14.4968 68.4411 14.4776C68.584 14.4737 68.7207 14.47 68.8546 14.4643C72.082 14.4643 72.6634 16.1837 72.6408 17.5893ZM69.2513 20.7744L69.4501 19.7565C69.4026 19.7491 69.3486 19.7393 69.2891 19.7285C69.071 19.6888 68.7782 19.6356 68.4546 19.6365C68.0679 19.6375 67.6372 19.7156 67.2374 19.9862C66.4115 20.5451 66.1802 21.5302 67.0395 21.8603C67.8663 22.1763 69.0859 21.6306 69.2513 20.7744ZM67.6372 20.9469C67.7333 20.9376 67.8459 20.91 67.964 20.8538C68.1143 20.7824 68.1931 20.705 68.2327 20.6515C68.0765 20.674 67.9313 20.7241 67.7978 20.8144C67.734 20.8576 67.6806 20.9029 67.6372 20.9469ZM64.8127 17.8653L63.8498 17.9651L64.2236 16.0474L63.7918 16.477L63.1247 16.0788C62.8686 15.926 62.6894 15.8583 62.5104 15.8198C62.3129 15.7774 62.0701 15.7602 61.6553 15.7602C61.4783 15.7602 60.9964 15.8708 60.5159 16.2454C60.0679 16.5947 59.6453 17.1561 59.5067 18.0381C59.3298 19.1615 59.6525 19.758 60.0187 20.0359C60.4123 20.3345 61.1631 20.5031 62.2955 20.1231L63.2238 19.8117C63.5943 18.9401 64.1625 18.311 64.8127 17.8653ZM62.5559 21.0903C62.5751 21.084 62.5943 21.0777 62.6136 21.0712L63.373 23.3719C63.3674 23.3745 63.3617 23.3771 63.3561 23.3796C62.5034 23.7688 61.6461 23.9632 60.2355 23.9632C57.8131 23.9632 55.2019 22.0236 55.7103 18.0942C55.7469 17.8113 55.7997 17.518 55.8699 17.2143C55.9015 17.0776 55.9366 16.9388 55.9754 16.7979C56.1829 16.0445 56.4849 15.3928 56.849 14.8344C56.9572 14.6684 57.0709 14.5106 57.1893 14.3609C58.5413 12.6498 60.498 11.9848 61.7882 12.0323C63.207 12.085 64.016 12.4225 64.5943 12.8577C64.6787 12.9212 64.7581 12.9867 64.8338 13.0537C65.012 13.2115 65.1696 13.3776 65.3219 13.5444L63.6373 15.2202C62.9758 14.8254 62.5147 14.7602 61.6553 14.7602C60.797 14.7602 58.8811 15.5768 58.5188 17.8829C58.0923 20.5909 59.9439 21.9381 62.5559 21.0903ZM66.6941 13.59C67.4095 13.5056 67.9503 13.4906 68.4139 13.478C68.5582 13.474 68.6874 13.4705 68.8126 13.4652L68.8336 13.4643H68.8546C70.0486 13.4643 71.0122 13.6767 71.766 14.0906C72.3502 14.4113 72.7742 14.8347 73.0685 15.308L73.4025 13.527H77.2469L77.3274 13.8474C77.8387 13.6476 78.451 13.527 79.1697 13.527H80.4944L80.3081 14.1811C80.3421 14.1593 80.3763 14.1381 80.4107 14.1175C81.4862 13.4721 82.5896 13.4861 83.2841 13.4949L83.3354 13.4956C83.4259 13.4967 83.5067 13.4977 83.5838 13.4977C84.1117 13.4977 84.5536 13.6033 84.931 13.7849L85.4646 11H90.2052L87.5835 24.9637H83.3273L83.1612 24.5851C82.6422 24.7907 82.0488 24.9401 81.4412 24.963L81.4224 24.9637H81.4036C79.9949 24.9637 78.8253 23.9942 78.1648 22.7861C77.4875 21.5471 77.2426 19.9092 77.7373 18.2255C77.7516 18.1767 77.7661 18.1284 77.7807 18.0805C77.7659 18.0897 77.7511 18.0998 77.7361 18.1107C77.5475 18.2484 77.1771 18.6553 76.8434 19.8631L75.8986 24.9553H72.285L72.2834 24.9632H68.5014L68.3622 24.7417C68.3254 24.7536 68.2877 24.7652 68.249 24.7764C67.8231 24.8994 67.3104 24.9615 66.6259 24.9957C65.7637 25.0382 64.8027 24.7602 64.059 24.1572L63.7904 24.2806C62.7768 24.7463 61.77 24.9632 60.2355 24.9632C58.6163 24.9632 56.911 24.249 55.8075 22.7812C54.9336 21.6188 54.4983 20.069 54.6921 18.1959C54.6823 18.2023 54.6725 18.2089 54.6626 18.216C54.4796 18.3463 54.1141 18.7363 53.7883 19.9136L52.8526 24.9638L48.2395 24.9629L48.287 24.7098C47.9545 24.7891 47.6032 24.8419 47.2805 24.8788C46.6264 24.9537 45.9159 24.9804 45.3265 24.9632C44.0581 24.9607 43.0358 24.6605 42.2333 24.1414C41.9117 23.9333 41.6356 23.6967 41.3991 23.4433L41.3412 24.1113L40.9286 24.3769C40.1254 24.8939 39.133 24.997 38.4714 24.997C38.0435 24.997 37.1471 24.8792 36.4037 24.2675C36.1932 24.0942 36.0084 23.8928 35.8546 23.6632C35.4296 24.092 34.9263 24.387 34.4213 24.5814C33.386 24.9798 32.3248 24.9688 31.9122 24.9645L31.8918 24.9643C31.8526 24.9639 31.8248 24.9637 31.8027 24.9637H31.7806C30.9448 24.9637 29.9552 24.9637 28.7505 24.6647L28.6908 24.9632H24.9078L24.7689 24.7419C24.7324 24.7538 24.6949 24.7653 24.6563 24.7764C24.2305 24.8994 23.7177 24.9615 23.0337 24.9957C22.1313 25.0402 21.1209 24.7336 20.3643 24.0709C20.2719 23.99 20.1837 23.904 20.1003 23.8132L19.8833 24.9632H15.1718L15.3371 24.0907L14.9454 24.9632H10.9355L10.7728 23.036L10.401 24.9632H5.78668L8.38855 11.5907H14.2712L14.552 15.5021L16.3301 11.5907H22.407L21.9983 13.7563C23.3054 13.5197 24.1455 13.4964 24.8216 13.478C24.966 13.474 25.0952 13.4705 25.2204 13.4652L25.2414 13.4643H25.2624C26.4562 13.4643 27.4196 13.6767 28.1734 14.0906C28.7333 14.3981 29.146 14.7999 29.4384 15.2496C29.9943 14.4557 30.8316 14.0212 31.5475 13.7904C32.5634 13.463 33.5511 13.4645 33.7937 13.4648L33.8161 13.4648C33.8447 13.4648 33.8842 13.4638 33.9534 13.4618L33.9571 13.4617C34.4365 13.448 35.4597 13.4189 36.7113 13.8899L36.8286 13.9341L37.3879 11.1308H42.0177L41.4892 13.6289H42.8937L42.7287 14.3573C43.5241 13.8393 44.5438 13.4977 45.8375 13.4977C47.1012 13.4977 48.1156 13.7591 48.8919 14.2727C49.3949 14.6055 49.7605 15.0196 50.0202 15.4685L50.3652 13.6289H54.188L54.2667 13.9426C54.7714 13.7469 55.3748 13.6289 56.0822 13.6289H56.4931C58.0489 11.7375 60.2707 10.9758 61.825 11.033C62.9901 11.0762 63.8611 11.297 64.5593 11.6584C65.2577 12.0198 65.7097 12.486 66.0604 12.8702L66.7064 13.5778L66.6941 13.59ZM55.0138 14.7525C54.83 14.799 54.6632 14.8567 54.5124 14.9227C54.1195 15.0945 53.8348 15.3218 53.6386 15.5493L53.4078 14.6289H51.1951L49.4445 23.9632L52.0209 23.9636L52.8128 19.6899C53.3861 17.5815 54.2237 17.1772 54.8694 17.1057C55.0285 17.088 55.1761 17.0906 55.3051 17.0929C55.3459 17.0936 55.3848 17.0942 55.4217 17.0942L56.0822 14.6289C55.9838 14.6289 55.8884 14.6316 55.7961 14.6368C55.5065 14.653 55.2465 14.6937 55.0138 14.7525ZM49.3707 19.7565C49.4686 19.258 49.6097 18.5168 49.5928 17.7471C49.5585 16.1814 48.8707 14.4977 45.8375 14.4977C44.1493 14.4977 43.059 15.1737 42.3528 16.0167C42.1401 16.2706 41.9622 16.5397 41.8133 16.8101C41.6536 17.0999 41.5274 17.3911 41.4272 17.6666C41.1895 18.3202 41.0989 18.8854 41.0591 19.1335L41.0488 19.1971C41.0184 19.3792 40.9911 19.8999 41.0975 20.5338C41.1592 20.9016 41.2659 21.3074 41.4431 21.7074C41.4713 21.7711 41.5013 21.8346 41.5332 21.8978C42.0786 22.9785 43.1766 23.9632 45.3419 23.9632C46.3531 23.9941 47.7904 23.8829 48.4944 23.6039C48.5493 23.5822 48.5998 23.5594 48.6452 23.5355L49.0414 21.5973C48.9959 21.6085 48.9361 21.6201 48.8642 21.632C48.6558 21.6663 48.3462 21.7025 47.9928 21.7341C47.4066 21.7867 46.6999 21.827 46.1342 21.827H45.8375C45.013 21.8285 43.9847 21.8304 43.7612 20.7565C43.7596 20.7491 43.7581 20.7416 43.7566 20.7341C43.706 20.4746 43.7015 20.1536 43.7566 19.7565H49.3707ZM44.9205 20.7565C44.976 20.7737 45.0528 20.7907 45.1578 20.8032C45.353 20.8267 45.5682 20.8275 45.8356 20.827L45.8375 20.827H46.1342C46.5943 20.827 47.1688 20.798 47.6869 20.7565H44.9205ZM41.1802 16.6666L41.6418 14.6289H40.2554L40.784 12.1308H38.2081L36.4245 21.0712C36.4046 21.1738 36.3887 21.2729 36.3764 21.3686C36.3018 21.9511 36.3633 22.4075 36.5061 22.7638C36.9255 23.811 38.0459 23.997 38.4714 23.997C39.0664 23.997 39.8258 23.8975 40.3873 23.536L40.5527 21.6301C40.4824 21.641 40.4152 21.6499 40.3511 21.6569C39.9995 21.6953 39.7397 21.6765 39.5503 21.6149C39.0443 21.4504 39.0406 20.9805 39.1323 20.479L39.8593 16.6666H41.1802ZM35.9299 21.3009C35.9468 21.1899 35.9584 21.0838 35.9652 20.9823L35.9653 20.9796C36.0043 20.39 35.881 19.9578 35.6904 19.6398C35.507 19.3339 35.2614 19.1338 35.0381 19.0012C34.543 18.672 33.7172 18.212 33.1891 17.9813C32.6605 17.7516 32.2643 16.8645 33.222 16.6015C33.8161 16.5354 35.0376 16.5354 35.765 16.7328L36.359 14.8258C36.1336 14.741 35.9171 14.6751 35.7117 14.6242C35.6033 14.5973 35.4979 14.5745 35.3959 14.5553C34.7768 14.4387 34.2828 14.4528 33.9819 14.4614C33.9176 14.4633 33.8621 14.4648 33.8161 14.4648L33.7985 14.4648C33.3778 14.4642 30.5545 14.4604 29.9423 16.4797C29.9208 16.5506 29.9021 16.624 29.8862 16.6999C29.7075 17.5571 29.7718 18.167 29.9564 18.5969C30.1471 19.041 30.466 19.2932 30.778 19.4278C31.4258 19.7073 31.8901 19.9726 32.2816 20.1962C32.4891 20.3148 32.6763 20.4217 32.8593 20.5128C33.5129 20.838 33.3928 21.926 32.5286 21.926C32.4603 21.926 32.3527 21.9318 32.2149 21.9393C31.7451 21.9648 30.9236 22.0095 30.1051 21.9066C29.843 21.8737 29.5812 21.8256 29.3313 21.757C29.2623 21.738 29.1942 21.7175 29.1273 21.6952L28.7641 23.6345C28.8255 23.6515 28.8864 23.6676 28.9466 23.6829C30.0519 23.9637 30.956 23.9637 31.8027 23.9637C31.8309 23.9637 31.8642 23.964 31.9019 23.9644C32.5398 23.9708 34.4644 23.9902 35.4237 22.6252C35.6664 22.2799 35.8472 21.846 35.9299 21.3009ZM29.5278 20.7731C30.1716 20.9661 30.9691 20.9837 31.6108 20.965C31.2693 20.7715 30.8872 20.564 30.3819 20.346C30.1507 20.2463 29.9158 20.1052 29.6994 19.9142L29.5278 20.7731ZM28.9254 18.6832C28.9152 18.7366 28.905 18.7876 28.895 18.8361L27.8708 23.9632H25.4608L25.1305 23.4371C25.0131 23.5206 24.9021 23.5936 24.7802 23.657C24.4218 23.8435 23.9694 23.9476 22.9837 23.997C21.9804 24.0465 20.7677 23.4897 20.3729 22.3689C20.248 22.0141 20.2049 21.6028 20.2764 21.1363C20.3939 20.4978 20.6136 19.9817 20.9021 19.5647C22.1668 17.7369 24.7534 17.8149 25.8524 17.848C26.0512 17.854 26.2013 17.8586 26.2861 17.8501C26.3895 17.3586 26.3372 17.054 26.1874 16.8642C26.1848 16.861 26.1822 16.8578 26.1796 16.8546C25.9372 16.5604 25.4531 16.5512 24.9584 16.5418C24.8725 16.5401 24.7862 16.5385 24.7009 16.5354C24.1411 16.5151 23.2685 16.6113 22.5413 16.7018C22.3934 16.7202 22.2515 16.7384 22.1194 16.7553C21.8671 16.7876 21.6508 16.8153 21.4974 16.8312L21.8936 14.7935C23.294 14.52 24.1461 14.4968 24.8489 14.4776C24.9918 14.4737 25.1285 14.47 25.2624 14.4643C27.6602 14.4643 28.5971 15.4138 28.9109 16.4785C28.9128 16.4849 28.9147 16.4913 28.9165 16.4977C29.1401 17.2756 29.0345 18.1122 28.9254 18.6832ZM25.6591 20.7744L25.8574 19.7565C25.8099 19.7491 25.756 19.7393 25.6965 19.7285C25.4784 19.6889 25.1856 19.6357 24.862 19.6365C24.4751 19.6374 24.0442 19.7155 23.6442 19.9862C22.8184 20.5451 22.5875 21.5302 23.4464 21.8603C24.2727 22.1763 25.4927 21.6306 25.6591 20.7744ZM24.0441 20.9469C24.1401 20.9375 24.2528 20.9099 24.3709 20.8538C24.521 20.7824 24.6001 20.7052 24.64 20.6514C24.4836 20.6739 24.3383 20.724 24.2047 20.8144C24.1408 20.8576 24.0875 20.9029 24.0441 20.9469ZM21.2007 12.5907H16.974L13.836 19.4935L13.3404 12.5907H9.21273L7 23.9632H9.57545L11.1607 15.7462L11.8546 23.9632H14.2982L17.8983 15.9436L16.379 23.9632H19.0544L21.2007 12.5907ZM34.6052 17.5766C34.958 17.7717 35.3049 17.9789 35.5719 18.1553C35.6885 18.2259 35.8118 18.311 35.9351 18.4132L36.0483 17.8458L35.5031 17.6979C35.2696 17.6345 34.9439 17.5958 34.6052 17.5766ZM75.0671 23.9553L75.8678 19.6394C76.5271 17.2137 77.5072 16.9955 78.1723 16.982C78.2418 16.9806 78.3079 16.9814 78.3699 16.9822C78.4046 16.9826 78.4379 16.9831 78.4698 16.9831L79.1697 14.527C78.7602 14.527 78.4036 14.573 78.0947 14.6505C77.9032 14.6985 77.7301 14.7587 77.574 14.8275C77.1818 15.0004 76.8974 15.2282 76.701 15.4563L76.4673 14.527H74.2324L72.4646 23.9553H75.0671ZM78.8629 17.9831C78.962 17.6933 79.0658 17.4274 79.1736 17.1836C79.3572 16.7683 79.5524 16.4168 79.7558 16.1193C80.8864 14.466 82.2707 14.4828 83.3233 14.4955C83.4126 14.4966 83.4996 14.4977 83.5838 14.4977C84.1068 14.4977 84.4603 14.6359 84.7323 14.8223C84.9314 14.9587 85.0869 15.121 85.2333 15.2738C85.3548 15.4006 85.47 15.5208 85.5987 15.6145L86.2912 12H89L86.7538 23.9637H83.9805L83.6488 23.2078C83.4098 23.3716 83.103 23.5354 82.759 23.6687C82.3435 23.8296 81.8737 23.946 81.4036 23.9637C79.555 23.9637 77.8576 21.3631 78.6967 18.5074C78.7505 18.3245 78.8059 18.1498 78.8629 17.9831ZM84.5086 17.1604C84.794 17.539 84.9382 18.6059 84.6739 19.4602C84.2118 20.6108 83.6178 21.3666 82.6595 21.3671C81.7682 21.3671 80.9754 20.3482 81.3386 19.0012C81.8942 16.94 83.7167 16.1087 84.5086 17.1604ZM82.6593 20.3671C82.8352 20.3669 82.9748 20.3121 83.1384 20.1451C83.3253 19.9543 83.5242 19.6304 83.7293 19.1287C83.8067 18.8573 83.8296 18.528 83.8016 18.2235C83.7873 18.0681 83.7614 17.9384 83.7335 17.8443C83.717 17.7889 83.7037 17.7589 83.6988 17.7482C83.6685 17.7123 83.6493 17.7088 83.6286 17.7062C83.5866 17.7007 83.4764 17.7044 83.3069 17.7951C82.9652 17.978 82.5226 18.451 82.3041 19.2615C82.188 19.6921 82.2731 19.9935 82.3768 20.1596C82.4871 20.3362 82.6098 20.367 82.6593 20.3671ZM43.9215 18.0475C44.0246 17.6368 44.1795 17.3053 44.3805 17.0475C44.7588 16.5623 45.3006 16.338 45.9693 16.338C46.5833 16.338 46.9359 16.6218 47.0842 17.0475C47.1001 17.0931 47.1137 17.1404 47.1249 17.1892C47.1838 17.4438 47.1805 17.7382 47.1249 18.0475H43.9215Z"/>
</g>
<defs>
<clipPath id="clip0">
<rect width="96.2" height="63.6" fill="white"/>
</clipPath>
</defs>
</svg>
