<?xml version="1.0" encoding="utf-8"?>
<!-- Generator: Adobe Illustrator 21.1.0, SVG Export Plug-In . SVG Version: 6.00 Build 0)  -->
<svg version="1.1" id="Layer_1" xmlns="http://www.w3.org/2000/svg" xmlns:xlink="http://www.w3.org/1999/xlink" x="0px" y="0px"
	 viewBox="0 0 96.2 63.6" style="enable-background:new 0 0 96.2 63.6;" xml:space="preserve">
<style type="text/css">
	.st0{clip-path:url(#SVGID_2_);}
</style>
<g>
	<defs>
		<rect id="SVGID_1_" y="0" width="96.2" height="63.6"/>
	</defs>
	<clipPath id="SVGID_2_">
		<use xlink:href="#SVGID_1_"  style="overflow:visible;"/>
	</clipPath>
	<path class="st0" d="M22.4,21.5h-3.6l1.8-6.3L22.4,21.5z M46,28.2h4.8V10.6h-7.6l-2.9,10.7l-2.9-10.7h-7.6V28l-6.2-17.4h-5.6
		l-6.2,17.5h5.2l0.8-2.9h5.8l0.8,2.9h5.3h0.1h4.7V14.8L38,28.2h4.3L46,14.8V28.2z M69.2,19l-3.7,5.2h-7.3v-3.5h7.2v-3.6h-7.2v-2.8
		h7.7L69.2,19z M76.8,19.1l5.9-8.5h-6.4L73.1,16l-3.4-5.4h-3.7h-2.8h-9.6v17.5h9h3.6h3l3.8-5.6l3.8,5.6h6.6L76.8,19.1z M90.1,7.2
		L81,19.5l8.2,12.1H75.6l-2.6-3.9l-2.4,3.9H44.2v-3.3L43,31.6h-5.7l-1.2-3.3v3.3H23l-1.1-3.9h-2.7l-1.1,3.9h-12l9.4-24.4h9.9
		l1.3,2.7V7.2h11.9l1.7,5.9l1.5-5.9h28.7c0.2,0,2.5,3.9,2.5,3.9l2.2-3.9H90.1z M10.6,41H38v7.9H10.6V41z M96.2,53.4V10.2
		c0,0,0-10.2-10.2-10.2H10.2C10.2,0,0,0,0,10.2v43.1c0,0,0,10.2,10.2,10.2H86C86,63.6,96.2,63.6,96.2,53.4"/>
</g>
</svg>
