<?xml version="1.0" encoding="utf-8"?>
<!-- Generator: Adobe Illustrator 21.1.0, SVG Export Plug-In . SVG Version: 6.00 Build 0)  -->
<svg version="1.1" id="Layer_1" xmlns="http://www.w3.org/2000/svg" xmlns:xlink="http://www.w3.org/1999/xlink" x="0px" y="0px"
	 viewBox="0 0 96.2 63.6" style="enable-background:new 0 0 96.2 63.6;" xml:space="preserve">
<style type="text/css">
	.st0{clip-path:url(#SVGID_2_);}
</style>
<g>
	<defs>
		<rect id="SVGID_1_" y="0" width="96.2" height="63.6"/>
	</defs>
	<clipPath id="SVGID_2_">
		<use xlink:href="#SVGID_1_"  style="overflow:visible;"/>
	</clipPath>
	<path class="st0" d="M71.9,24.1h5.3l-1.8-9L71.9,24.1z M84.6,32.1h-5.8l-0.7-3.4h-8l-1.3,3.4h-6.3L73,8.1h6.7L84.6,32.1z M63.5,8.7
		l-1,5.4c0,0-2.3-1.4-4.9-1.6c-2.7-0.2-4.9,2.1-3.4,3.5c1.6,1.5,8.4,3.7,8.4,8s-4.2,7.8-9.3,8.6c-5,0.8-8.7-1.2-8.7-1.2l1.1-5
		c0,0,2.3,1.3,6.1,1.3c3.7,0,4.7-1.5,4.1-3.1c-0.6-1.6-3.4-2.2-5.2-3.5c-3.4-2.5-3.8-5.2-3.3-7.4c0.5-2.2,2-5,6.9-5.9
		C59.4,7,63.5,8.7,63.5,8.7 M44.7,8.1l-3.8,24h-6.4L38.4,8L44.7,8.1z M35.7,8.1c0,0.7-9.5,24-9.7,24h-7c-1.7-6.5-3.4-12.9-5.1-19.4
		c0,0,2.6,1.9,2.8,2c1.6,1.2,3,2.9,4.1,4.6c0.7,1.1,1.5,2.3,1.9,3.5c0.3,0.7,0.5,2.2,0.5,2.2c0.2-0.3,5.3-15.5,5.8-17H35.7z
		 M22.2,21.1C19.1,12.6,7.3,8.4,7,8.1H14c2.6,0,4.6,0,5.7,1.5C20.8,11.1,22.4,20.8,22.2,21.1 M10.6,41H38v7.9H10.6V41z M96.2,53.4
		V10.2c0,0,0-10.2-10.2-10.2H10.2C10.2,0,0,0,0,10.2v43.1c0,0,0,10.2,10.2,10.2H86C86,63.6,96.2,63.6,96.2,53.4"/>
</g>
</svg>
