<svg width="97" height="64" fill="none" xmlns="http://www.w3.org/2000/svg"><g clip-path="url(#clip0)"><path d="M84.674 19.46c.264-.854.12-1.921-.165-2.3-.792-1.051-2.615-.22-3.17 1.841-.364 1.347.43 2.366 1.32 2.366.959 0 1.553-.756 2.015-1.907zM69.29 19.729l.16.027-.199 1.018c-.165.857-1.385 1.402-2.212 1.086-.859-.33-.627-1.315.198-1.874.735-.497 1.573-.345 2.052-.258z"/><path clip-rule="evenodd" d="M96.2 53.4V10.2S96.2 0 86 0H10.2S0 0 0 10.2v43.1s0 10.2 10.2 10.2H86c0 .1 10.2.1 10.2-10.1zM10.6 41H38v7.9H10.6V41zm36.653-26.35A13.028 13.028 0 0 0 34.976 6a12.91 12.91 0 0 0-8.204 2.918 14.003 14.003 0 0 1 3.718 6.047h-1.082a12.961 12.961 0 0 0-3.418-5.374 13 13 0 0 0-3.291 5.062c-.247.038-.515.084-.805.14l-.032.166h-.35a14.024 14.024 0 0 1 3.68-6.032C22.954 7.118 20.128 6 17.024 6 9.83 6 4 11.82 4 19s5.831 13 13.024 13c3.103 0 5.93-1.118 8.168-2.927a14.041 14.041 0 0 1-3.438-5.301c.39.164.808.24 1.197.226a13.003 13.003 0 0 0 3.04 4.411 13.004 13.004 0 0 0 3.166-4.675c.367.083.711.136 1.04.17a14.075 14.075 0 0 1-3.425 5.178A12.911 12.911 0 0 0 34.976 32c5.457 0 10.13-3.35 12.068-8.101.659-.069 1.266-.188 1.601-.364l.396-1.938c-.212.052-.736.115-1.335.161.141-.65.233-1.319.272-2.002h1.393c.261-1.33.83-4.39-2.118-5.106zm38.346.964a2.86 2.86 0 0 1-.366-.34c-.346-.362-.743-.776-1.65-.776l-.26-.002c-1.417-.018-3.435-.042-4.626 4.011-.84 2.856.858 5.457 2.707 5.457.859-.033 1.717-.395 2.245-.756l.332.756h2.773L89 12h-2.709l-.692 3.614zm-23.944-.854c.86 0 1.32.065 1.982.46l1.685-1.676c-.66-.723-1.42-1.433-3.534-1.512-1.783-.065-4.839 1.23-5.813 4.766-1.32 4.8 1.585 7.165 4.26 7.165 1.42 0 2.28-.197 3.138-.591l-.76-2.3c-2.642.886-4.524-.461-4.094-3.19.362-2.305 2.278-3.122 3.136-3.122zm10.81 9.195l1.767-9.428h2.235l.234.93c.4-.466 1.168-.93 2.469-.93l-.7 2.456h-.1c-.654-.009-1.774-.023-2.502 2.656l-.8 4.316h-2.603zm-7.375-7.124l.397-2.037c1.4-.274 2.252-.297 2.954-.316.143-.004.28-.008.414-.014 4.326 0 3.897 3.09 3.633 4.372l-1.025 5.127h-2.41l-.33-.526c-.463.33-.825.494-2.147.56-1.321.065-3.005-.92-2.707-2.86.633-3.438 4.226-3.33 5.576-3.289.199.006.349.01.434.002.269-1.278-.516-1.293-1.328-1.308l-.258-.007c-.674-.024-1.8.12-2.58.22-.253.033-.47.06-.623.076zm-15.646 7.132l1.751-9.334h2.213l.23.92c.398-.46 1.157-.92 2.444-.92l-.66 2.465a6.9 6.9 0 0 1-.117-.001c-.652-.012-1.777-.031-2.492 2.597l-.792 4.274h-2.577z"/><path clip-rule="evenodd" d="M72.64 17.59a6.745 6.745 0 0 1-.152 1.246l-1.025 5.127h-2.41l-.33-.526a2.964 2.964 0 0 1-.346.218c-.36.188-.811.292-1.801.342-.8.04-1.734-.307-2.28-1.018a2.257 2.257 0 0 1-.462-1.4c0-.141.011-.289.035-.443.633-3.437 4.226-3.329 5.576-3.288.199.006.349.01.434.002.103-.492.051-.796-.099-.986l-.008-.01c-.242-.294-.727-.303-1.221-.312l-.258-.007c-.56-.02-1.432.076-2.16.167l-.42.053c-.253.033-.47.06-.623.076l.397-2.037c1.4-.274 2.252-.297 2.954-.316.143-.004.28-.008.414-.014 3.227 0 3.808 1.72 3.786 3.125zm-3.389 3.184l.2-1.018a6.86 6.86 0 0 1-.162-.027 4.5 4.5 0 0 0-.834-.092c-.387 0-.818.079-1.218.35-.825.558-1.057 1.543-.197 1.873.826.316 2.046-.23 2.211-1.086zm-1.614.173a.987.987 0 0 0 .327-.093.697.697 0 0 0 .269-.203 1.02 1.02 0 0 0-.596.296zm-2.824-3.082l-.963.1.374-1.918-.432.43-.667-.398a1.947 1.947 0 0 0-.615-.26c-.197-.042-.44-.059-.855-.059-.177 0-.659.11-1.14.485-.447.35-.87.911-1.008 1.793-.177 1.123.146 1.72.512 1.998.393.298 1.144.467 2.276.087l.929-.311c.37-.872.938-1.501 1.589-1.947zm-2.257 3.225l.058-.019.759 2.3a1.263 1.263 0 0 1-.017.009c-.853.389-1.71.583-3.12.583-2.423 0-5.034-1.94-4.526-5.869a9.084 9.084 0 0 1 .265-1.296c.208-.753.51-1.405.874-1.964.108-.166.222-.323.34-.473 1.352-1.711 3.309-2.376 4.6-2.329 1.418.053 2.227.39 2.805.826.085.063.164.129.24.196.178.157.336.324.488.49l-1.685 1.676c-.661-.395-1.122-.46-1.982-.46-.858 0-2.774.817-3.136 3.123-.427 2.708 1.425 4.055 4.037 3.207zm4.138-7.5c.715-.084 1.256-.1 1.72-.112l.399-.013H68.855c1.194 0 2.157.212 2.911.626.584.32 1.008.744 1.302 1.217l.335-1.781h3.844l.08.32c.512-.2 1.124-.32 1.843-.32h1.324l-.186.654c.034-.022.068-.043.103-.063 1.075-.646 2.179-.632 2.873-.623h.051l.249.003c.528 0 .97.105 1.347.287L85.465 11h4.74l-2.621 13.964h-4.257l-.166-.379a5.27 5.27 0 0 1-1.72.378h-.037c-1.41 0-2.579-.969-3.24-2.177-.677-1.239-.921-2.877-.427-4.56a14 14 0 0 1 .044-.145.747.747 0 0 0-.045.03c-.189.137-.559.544-.893 1.752l-.944 5.092h-3.614l-.002.008h-3.782l-.139-.221a3.81 3.81 0 0 1-.113.034c-.426.123-.939.186-1.623.22a3.857 3.857 0 0 1-2.567-.839l-.269.124c-1.013.465-2.02.682-3.554.682-1.62 0-3.325-.714-4.428-2.182-.874-1.162-1.31-2.712-1.116-4.585a.813.813 0 0 0-.03.02c-.182.13-.548.52-.874 1.698l-.935 5.05-4.614-.001.048-.253c-.332.08-.684.132-1.006.169-.655.075-1.365.101-1.954.084-1.269-.002-2.291-.303-3.094-.822a4.428 4.428 0 0 1-.834-.698l-.058.668-.412.266c-.804.517-1.796.62-2.458.62-.427 0-1.324-.118-2.067-.73a2.799 2.799 0 0 1-.55-.604 4.058 4.058 0 0 1-1.433.918c-1.035.399-2.096.388-2.509.384h-.02l-.09-.001h-.021c-.836 0-1.826 0-3.03-.3l-.06.3h-3.783l-.14-.222a3.35 3.35 0 0 1-.112.034c-.425.123-.938.186-1.622.22a3.848 3.848 0 0 1-2.67-.925 3.396 3.396 0 0 1-.264-.258l-.217 1.15h-4.711l.165-.872-.392.872h-4.01l-.162-1.927-.372 1.927H5.787l2.602-13.372h5.882l.281 3.911 1.778-3.911h6.077l-.409 2.165a16.802 16.802 0 0 1 2.824-.278l.398-.013h.042c1.194 0 2.158.212 2.911.626.56.307.973.709 1.265 1.159.556-.794 1.394-1.229 2.11-1.46 1.015-.327 2.003-.325 2.246-.325h.022l.137-.003h.004a6.897 6.897 0 0 1 2.754.428l.118.044.559-2.803h4.63l-.529 2.498h1.405l-.165.728c.795-.518 1.815-.86 3.108-.86 1.264 0 2.279.262 3.055.776.503.332.868.747 1.128 1.196l.345-1.84h3.823l.079.314c.504-.196 1.108-.314 1.815-.314h.411c1.556-1.891 3.778-2.653 5.332-2.596 1.165.043 2.036.264 2.734.625.699.362 1.15.828 1.501 1.212l.646.708-.012.012zm-11.68 1.162c-.184.047-.35.105-.502.17-.392.172-.677.4-.873.627l-.231-.92h-2.213l-1.75 9.334h2.576l.792-4.273c.573-2.109 1.41-2.513 2.056-2.584.16-.018.307-.015.436-.013l.117.001.66-2.465c-.098 0-.194.003-.286.008a4.13 4.13 0 0 0-.782.115zm-5.643 5.004c.098-.498.239-1.24.222-2.009-.035-1.566-.722-3.25-3.756-3.25-1.688 0-2.778.677-3.484 1.52-.213.254-.39.523-.54.793-.16.29-.286.581-.386.857-.237.653-.328 1.218-.368 1.466l-.01.064c-.03.182-.058.703.048 1.337a4.918 4.918 0 0 0 .436 1.364c.546 1.08 1.644 2.065 3.809 2.065 1.011.031 2.448-.08 3.152-.36.055-.02.106-.044.151-.068l.396-1.938a2.45 2.45 0 0 1-.177.035c-.208.034-.518.07-.871.102-.586.053-1.293.093-1.859.093h-.297c-.824.001-1.852.003-2.076-1.07l-.004-.023c-.051-.26-.055-.58 0-.978h5.614zm-4.45 1c.055.018.132.035.237.047.195.024.41.024.678.024h.298c.46 0 1.035-.029 1.553-.07H44.92zm-3.74-4.09l.46-2.037h-1.386l.529-2.498h-2.576l-1.783 8.94c-.02.103-.036.202-.049.298-.074.582-.013 1.038.13 1.395.42 1.047 1.54 1.233 1.965 1.233.595 0 1.355-.1 1.916-.461l.166-1.906c-.07.011-.138.02-.202.027-.352.038-.611.02-.8-.042-.507-.165-.51-.634-.419-1.136l.727-3.812h1.321zm-5.251 4.635c.017-.111.028-.217.035-.319v-.002c.04-.59-.084-1.022-.275-1.34a1.849 1.849 0 0 0-.652-.639c-.495-.329-1.32-.789-1.849-1.02-.529-.23-.925-1.117.033-1.38.594-.066 1.816-.066 2.543.132l.594-1.907a5.798 5.798 0 0 0-.963-.27 6.275 6.275 0 0 0-1.414-.095c-.064.002-.12.004-.166.004h-.018c-.42 0-3.244-.005-3.856 2.015-.021.07-.04.144-.056.22-.178.857-.114 1.467.07 1.897.191.444.51.696.822.83.648.28 1.112.546 1.504.77.207.118.394.225.577.316.654.325.534 1.413-.33 1.413-.069 0-.176.006-.314.013-.47.026-1.291.07-2.11-.032a5.548 5.548 0 0 1-.774-.15 4.021 4.021 0 0 1-.204-.062l-.363 1.94.183.048c1.105.28 2.009.28 2.856.28l.099.001c.638.007 2.562.026 3.522-1.339.242-.345.423-.779.506-1.324zm-6.402-.528c.644.193 1.441.21 2.083.192a12.103 12.103 0 0 0-1.23-.619c-.23-.1-.465-.24-.682-.432l-.171.86zm-.603-2.09l-.03.153-1.024 5.127h-2.41l-.33-.526a2.94 2.94 0 0 1-.35.22c-.36.186-.812.29-1.797.34-1.004.05-2.216-.507-2.611-1.628a2.522 2.522 0 0 1-.097-1.233c.118-.638.338-1.154.626-1.571 1.265-1.828 3.851-1.75 4.95-1.717.2.006.35.01.434.002.104-.491.051-.796-.099-.986l-.007-.01c-.243-.294-.727-.303-1.222-.312l-.257-.007c-.56-.02-1.433.076-2.16.167l-.422.053c-.252.033-.468.06-.622.076l.397-2.037c1.4-.274 2.252-.297 2.955-.316.143-.004.28-.008.413-.014 2.398 0 3.335.95 3.649 2.014l.005.02c.224.778.119 1.614.01 2.185zm-3.266 2.091l.198-1.018-.16-.027c-.219-.04-.511-.093-.835-.092-.387 0-.818.078-1.218.35-.826.558-1.056 1.543-.198 1.873.827.316 2.047-.23 2.213-1.086zm-1.615.173a.992.992 0 0 0 .327-.093.7.7 0 0 0 .269-.203 1.02 1.02 0 0 0-.596.296zm-2.843-8.356h-4.227l-3.138 6.903-.496-6.903H9.213L7 23.963h2.575l1.586-8.217.694 8.217h2.443l3.6-8.02-1.519 8.02h2.675l2.147-11.372zm13.404 4.986c.353.195.7.402.967.578.116.07.24.156.363.258l.113-.567-.545-.148a4.707 4.707 0 0 0-.898-.121zm40.462 6.378l.8-4.316c.66-2.425 1.64-2.643 2.305-2.657h.198l.1.001.7-2.456c-.41 0-.766.046-1.075.123a3.245 3.245 0 0 0-.521.178c-.392.172-.677.4-.873.628l-.234-.929h-2.235l-1.767 9.428h2.602zm3.796-5.972c.099-.29.203-.556.31-.8a6.63 6.63 0 0 1 .583-1.064c1.13-1.653 2.515-1.636 3.567-1.623l.26.002c.524 0 .877.138 1.15.324.198.137.354.299.5.452.122.127.237.247.366.34L86.29 12H89l-2.246 11.964H83.98l-.332-.756a4.44 4.44 0 0 1-.89.46 4.26 4.26 0 0 1-1.355.296c-1.849 0-3.546-2.6-2.707-5.457.053-.183.109-.357.166-.524zm5.646-.823c.285.379.43 1.446.165 2.3-.462 1.15-1.056 1.907-2.015 1.907-.89 0-1.684-1.019-1.32-2.366.555-2.061 2.378-2.892 3.17-1.84zm-1.85 3.207c.176 0 .316-.055.48-.222.186-.19.385-.515.59-1.016a2.571 2.571 0 0 0 .005-1.285.723.723 0 0 0-.035-.096c-.03-.036-.05-.04-.07-.042-.042-.005-.153-.002-.322.09-.342.182-.784.655-1.003 1.466-.116.43-.03.732.073.898.11.176.233.207.282.207zm-38.738-2.32c.104-.41.258-.742.46-1 .378-.485.92-.709 1.588-.709.614 0 .967.284 1.115.71.016.045.03.092.04.141.06.255.056.55 0 .858h-3.203z"/></g><defs><clipPath id="clip0"><path fill="#fff" d="M0 0h96.2v63.6H0z"/></clipPath></defs></svg>