<svg width="32" height="32" fill="none" xmlns="http://www.w3.org/2000/svg"><path fill-rule="evenodd" clip-rule="evenodd" d="M26 16c0 2.256-.05 3.836-.291 5.048-.216 1.11-.533 1.577-.864 1.853-.384.32-1.094.641-2.597.843-1.531.21-3.522.256-6.248.256-2.725 0-4.717-.046-6.248-.256-1.503-.202-2.213-.523-2.597-.843-.331-.276-.648-.743-.864-1.853C6.05 19.836 6 18.256 6 16c0-.35.001-.682.004-1h19.992c.003.318.004.65.004 1zm-.282-5a5.839 5.839 0 0 0-.009-.048c-.216-1.11-.533-1.577-.864-1.853-.384-.32-1.094-.641-2.597-.844C20.717 8.046 18.726 8 16 8c-2.725 0-4.717.046-6.248.255-1.503.203-2.213.524-2.597.844-.331.276-.648.743-.864 1.853a8.192 8.192 0 0 0-.01.048h19.437zM28 16c0 9.167-1 10-12 10S4 25.167 4 16 5 6 16 6s12 .833 12 10z" fill="#000"/><mask id="a" maskUnits="userSpaceOnUse" x="22" y="3" width="10" height="10" fill="#000"><path fill="#fff" d="M22 3h10v10H22z"/><path fill-rule="evenodd" clip-rule="evenodd" d="M26 5a1 1 0 0 1 2 0v2h1.999a1.001 1.001 0 0 1 0 2H28v2a1 1 0 0 1-2 0V9h-2a1.001 1.001 0 0 1 0-2h2V5z"/></mask><path fill-rule="evenodd" clip-rule="evenodd" d="M26 5a1 1 0 0 1 2 0v2h1.999a1.001 1.001 0 0 1 0 2H28v2a1 1 0 0 1-2 0V9h-2a1.001 1.001 0 0 1 0-2h2V5z" fill="#000"/><path d="M26 5l-1-.001h1zm2 0l-1-.001h1zm0 2h-1v1h1V7zm1.999 0L30 6H30v1zm0 2L30 8H30v1zM28 9V8h-1v1h1zm0 2h1-1zm-2 0h1-1zm0-2l1-.001v-1h-1v1zm-2 0v1-1zm0-2v1-1zm2 0v1h1V7h-1zM27 5V5c0 .001 0 0 0 0s.001 0 0 0H27V3a2 2 0 0 0-2 1.999L27 5zM27 5S27 5 27 5v-.002l2 .003A1.999 1.999 0 0 0 27 3v2zm0 0v2h2V5h-2zm1 3h1.999V6h-2v2zm1.998 0h.001c.001.001.001.001 0 0V8 8h2c0-1.107-.897-1.999-1.999-2l-.002 2zM30 8c0 .001 0 .001 0 0V8c-.001.001-.002.001 0 0 .001 0 .001 0 0 0l-.002 2A2 2 0 0 0 32 8h-2zm-.001 0h-2L28 10h2l-.001-2zM27 9v2h2V9h-2zm0 1.998V11c-.001.001-.002.001 0 .001.001 0 .001 0 0 0v2a2 2 0 0 0 2-2l-2-.002zM27 11H27c.002 0 .001 0 0 0 0-.001 0-.001 0 0l.001.002V11l-2-.003A1.999 1.999 0 0 0 27 13v-2zm0 0V8.998h-2V11h2zm-1-3h-2v2h2V8zm-1.998 0H24c.001 0 0 0 0 0 0-.001 0-.002 0 0 0 .001 0 0 0 0h-2c0 1.106.897 1.999 2 2l.002-2zM24 8v-.001V8H24l.003-2A2 2 0 0 0 22 8h2zm0 0h2V6h-2v2zm3-1V5h-2v2h2z" fill="#E5E5E5" mask="url(#a)"/></svg>