<svg fill-rule="evenodd" clip-rule="evenodd" stroke-linejoin="round" stroke-miterlimit="1.414" xmlns="http://www.w3.org/2000/svg" aria-labelledby="title" viewBox="0 0 32 32" fill="currentColor" width="48" height="48"><path d="M26 16c0 5.523-4.477 10-10 10S6 21.523 6 16 10.477 6 16 6s10 4.477 10 10zm2 0c0 6.627-5.373 12-12 12S4 22.627 4 16 9.373 4 16 4s12 5.373 12 12zm-17.5 0a1.5 1.5 0 1 0 0-3 1.5 1.5 0 0 0 0 3zM23 14.5a1.5 1.5 0 1 1-3 0 1.5 1.5 0 0 1 3 0zm-6.999 8c2.45 0 4.534-1.715 5-4 .232-1.14-3-1.5-5-1.5s-5.259.231-5 1.5c.466 2.285 2.549 4 5 4zm2-2s-.896.5-2 .5c-1.105 0-2-.5-2-.5s.895-1 2-1c1.104 0 2 1 2 1z"/></svg>