<svg width="300" height="185" viewBox="0 0 300 185" fill="none" xmlns="http://www.w3.org/2000/svg">
<path fill-rule="evenodd" clip-rule="evenodd" d="M233.847 37H66.4068C61.2114 37 57 41.2114 57 46.4068V138.593C57 143.789 61.2114 148 66.4068 148H233.847C239.043 148 243.254 143.789 243.254 138.593V46.4068C243.254 41.2114 239.043 37 233.847 37ZM80.5169 60.517V124.483H99.3305V87.7966L118.144 111.314L136.958 87.7966V124.483H155.771V60.517H136.958L118.144 84.0339L99.3305 60.517H80.5169ZM169.881 93.4407L198.102 124.483L226.322 93.4407H207.508V60.517H188.695V93.4407H169.881Z" fill="currentColor"/>
</svg>
