<svg xmlns="http://www.w3.org/2000/svg" width="48" height="48" fill="currentColor" fill-rule="evenodd" stroke-linejoin="round" stroke-miterlimit="1.414" aria-labelledby="title" clip-rule="evenodd" preserveAspectRatio="xMidYMid meet" title="menu" viewBox="0 0 32 32"><title id="title">menu</title><g><path d="M9,10c0,-0.552 0.448,-1 1,-1l12,0c0.552,0 1,0.448 1,1c0,0.552 -0.448,1 -1,1l-12,0c-0.552,0 -1,-0.448 -1,-1Z"/><path d="M9,15c0,-0.552 0.448,-1 1,-1l12,0c0.552,0 1,0.448 1,1c0,0.552 -0.448,1 -1,1l-12,0c-0.552,0 -1,-0.448 -1,-1Z"/><path d="M9,20c0,-0.552 0.448,-1 1,-1l12,0c0.552,0 1,0.448 1,1c0,0.552 -0.448,1 -1,1l-12,0c-0.552,0 -1,-0.448 -1,-1Z"/></g></svg>