<svg width="32" height="32" viewBox="0 0 32 32" xmlns="http://www.w3.org/2000/svg">
<path d="M12.0002 8C12.0002 7.448 12.4482 7 13.0002 7C13.5522 7 14.0002 7.448 14.0002 8V9.015C17.0062 9.015 18.5372 10.111 18.9092 12.004C19.0162 12.546 18.5512 12.999 17.9992 12.999C17.4472 13 17.0572 12.507 16.7492 12.049C16.7263 12.0148 16.7043 11.9811 16.6826 11.9479C16.3258 11.4009 16.0644 11 13.0002 11C9.75024 11 9.00024 11 9.00024 13C9.00024 15 9.60624 15 13.0002 15H18.1682C18.1888 14.9987 18.2094 14.9981 18.2303 14.9981H25.9246L25.9246 14.996C25.1073 14.1814 24.4179 13.6065 23.27 12.6493L23.108 12.5141C22.6837 12.1606 22.6264 11.53 22.9799 11.1058C23.3335 10.6815 23.922 10.6829 24.3888 10.9781C25.9982 11.996 26.9982 12.996 28.5895 14.9424C28.8077 15.2537 28.9982 15.6058 28.9982 15.9959C28.9982 16.3861 28.8077 16.7382 28.5896 17.0494C26.9981 18.996 25.9981 19.996 24.3896 21.0131L24.3883 21.0142C23.9641 21.3678 23.3335 21.3104 22.98 20.8861C22.6264 20.4619 22.6837 19.8313 23.108 19.4777L23.3528 19.273C24.4321 18.3703 25.1167 17.7976 25.9192 17H18.7782C18.945 17.5293 19.0002 18.1873 19.0002 19C19.0002 21.95 17.7252 22.86 14.0002 22.985V24C14.0002 24.552 13.5522 25 13.0002 25C12.4482 25 12.0002 24.552 12.0002 24V22.985C9.12824 22.889 7.44124 22.2 7.07624 19.997C6.98524 19.452 7.44824 19 8.00024 19C8.55224 19 8.92524 19.463 9.07524 19.995C9.28324 20.731 10.0652 21 13.0002 21C17.0002 21 17.0002 20.5 17.0002 19.002V18.998C17.0002 17.5 17.0002 17 13.0002 17C7.85724 17 7.00024 16 7.00024 13C7.00024 10.234 8.27524 9.168 12.0002 9.019V8Z"/>
</svg>
