<svg fill-rule="evenodd" clip-rule="evenodd" stroke-linejoin="round" stroke-miterlimit="1.414" xmlns="http://www.w3.org/2000/svg" aria-label="plus" viewBox="0 0 32 32"><path d="M16 6c5.1 0 7.247.575 8.336 1.664C25.425 8.753 26 10.9 26 16s-.575 7.247-1.664 8.336C23.247 25.425 21.1 26 16 26s-7.247-.575-8.336-1.664C6.575 23.247 6 21.1 6 16s.575-7.247 1.664-8.336C8.753 6.575 10.9 6 16 6zm0-2c10 0 12 2 12 12s-2 12-12 12S4 26 4 16 6 4 16 4zm-1 8a1 1 0 0 1 2 0v3h3a1 1 0 0 1 0 2h-3v3a1 1 0 0 1-2 0v-3h-3a1 1 0 0 1 0-2h3v-3z"/></svg>