<svg width="48" height="48" viewBox="0 0 48 48" fill="black" xmlns="http://www.w3.org/2000/svg">
<path fill-rule="evenodd" clip-rule="evenodd" d="M27.2679 8.15334C29.0011 7.71215 30.8377 8.23863 32.0739 9.53109C32.7375 10.2248 33.1855 11.0963 33.3633 12.0397L35.4081 22.8863C36.7058 22.5423 37.9916 22.1387 39.2615 21.6754C39.8952 21.4443 40.5963 21.7705 40.8275 22.4042C41.0587 23.0379 40.7324 23.739 40.0987 23.9702C29.7027 27.7629 18.2969 27.7639 7.90112 23.9701C7.26747 23.7389 6.94125 23.0378 7.17249 22.4041C7.40373 21.7705 8.10487 21.4442 8.73853 21.6755C10.0069 22.1383 11.2911 22.5416 12.5871 22.8853L14.6318 12.0397C14.8096 11.0963 15.2575 10.2248 15.9211 9.53109C17.1574 8.23863 18.9939 7.71215 20.7272 8.15334L22.5725 8.62305C23.5076 8.86109 24.4875 8.86109 25.4226 8.62305L27.2679 8.15334ZM14.967 23.4469C20.9231 24.6808 27.0718 24.6808 33.0282 23.4476L30.9629 12.4923C30.8727 12.0136 30.6454 11.5715 30.3088 11.2195C29.6815 10.5638 28.7498 10.2967 27.8705 10.5206L26.0252 10.9903C24.6946 11.3289 23.3004 11.3289 21.9699 10.9903L20.1246 10.5206C19.2453 10.2967 18.3135 10.5638 17.6863 11.2195C17.3496 11.5715 17.1224 12.0136 17.0322 12.4923L14.967 23.4469ZM12.805 33.1378C12.101 33.6658 11.7796 34.302 11.7796 34.9019C11.7796 35.5018 12.101 36.1381 12.805 36.6661C13.5095 37.1944 14.5386 37.5573 15.7272 37.5573C16.9159 37.5573 17.945 37.1944 18.6494 36.6661C19.3535 36.1381 19.6748 35.5018 19.6748 34.9019C19.6748 34.302 19.3535 33.6658 18.6494 33.1378C17.945 32.6095 16.9159 32.2466 15.7272 32.2466C14.5386 32.2466 13.5095 32.6095 12.805 33.1378ZM11.3394 31.1836C12.5058 30.3088 14.0612 29.8039 15.7272 29.8039C17.3933 29.8039 18.9487 30.3088 20.115 31.1836C20.7868 31.6875 21.3489 32.3329 21.7049 33.084C23.1987 32.6281 24.7964 32.6282 26.2902 33.084C26.6462 32.3329 27.2082 31.6875 27.88 31.1836C29.0464 30.3088 30.6018 29.8039 32.2678 29.8039C33.9339 29.8039 35.4893 30.3088 36.6556 31.1836C37.8224 32.0587 38.6581 33.3608 38.6581 34.9019C38.6581 36.4431 37.8224 37.7452 36.6556 38.6203C35.4893 39.495 33.9339 40 32.2678 40C30.6018 40 29.0464 39.495 27.88 38.6203C26.8781 37.8688 26.1202 36.8023 25.9261 35.54C24.6846 35.0664 23.3105 35.0664 22.0689 35.54C21.8749 36.8023 21.117 37.8688 20.115 38.6203C18.9487 39.495 17.3933 40 15.7272 40C14.0612 40 12.5058 39.495 11.3394 38.6203C10.1727 37.7452 9.33694 36.4431 9.33694 34.9019C9.33694 33.3608 10.1727 32.0587 11.3394 31.1836ZM29.3457 33.1378C28.6416 33.6658 28.3202 34.302 28.3202 34.9019C28.3202 35.5018 28.6416 36.1381 29.3457 36.6661C30.0501 37.1944 31.0792 37.5573 32.2678 37.5573C33.4565 37.5573 34.4856 37.1944 35.19 36.6661C35.8941 36.1381 36.2154 35.5018 36.2154 34.9019C36.2154 34.302 35.8941 33.6658 35.19 33.1378C34.4856 32.6095 33.4565 32.2466 32.2678 32.2466C31.0792 32.2466 30.0501 32.6095 29.3457 33.1378Z"/>
</svg>
